<svg width="423" height="254" viewBox="0 0 423 254" fill="none" xmlns="http://www.w3.org/2000/svg">
<g clip-path="url(#clip0_73_1943)">
<path d="M102.483 2.22481C102.483 2.22481 102.483 132.662 102.483 175.801C102.483 218.946 145.409 225.013 176.173 233.77C206.931 242.534 210.227 253.994 210.227 253.994C210.227 253.994 213.524 242.534 244.282 233.77C275.04 225.007 317.972 218.94 317.972 175.801V2.22481H102.483Z" fill="#9B191F"/>
<path fill-rule="evenodd" clip-rule="evenodd" d="M1.30196 114.126C0.639095 119.78 0.0413363 125.091 -9.25439e-05 130.862C-0.0178477 133.819 0.0413363 136.663 0.36093 139.585C0.585829 141.626 1.62747 145.805 1.56828 147.339C3.02421 148.932 3.93564 159.873 17.2165 157.46C24.4192 156.156 24.8513 151.163 24.946 145.498L24.875 139.661C23.3125 140.918 19.2051 147.599 14.8492 144.377C11.8012 142.116 12.7718 135.342 14.0088 131.736C19.0217 117.071 31.9474 106.744 33.1548 87.5583C33.9301 75.2127 27.7572 61.5983 20.2231 53.2715C14.0265 46.42 16.5655 47.8836 13.6418 44.0359C10.5228 39.9285 6.90668 40.4183 4.11912 44.9093C-1.04765 53.2361 7.74118 66.5023 5.3028 86.8561C4.2434 95.6727 2.70462 105.103 1.30196 114.126Z" fill="#1D1E1C"/>
<path fill-rule="evenodd" clip-rule="evenodd" d="M50.3005 36.4762C47.8976 35.4435 45.3468 34.0685 42.6539 32.9472C38.008 31.0116 38.2802 27.4708 41.3105 27.0872L41.7366 29.1881C42.2278 30.9703 49.1938 35.833 50.2946 36.4762H50.3005ZM21.0991 224.794C23.1706 225.231 24.4312 224.576 26.1534 224.653C37.1261 224.104 39.8486 214.337 30.5449 212.472C27.1063 211.782 22.555 213.517 21.2175 210.885C20.1344 208.743 20.4244 203.048 20.9216 200.705C22.2295 194.538 24.5199 195.134 25.7569 193.96C26.7867 193.989 40.0794 191.995 42.1864 191.157C46.418 189.475 50.0401 185.615 51.8452 181.213C58.6395 164.659 45.8084 153.671 58.8703 131.683C60.7938 128.437 64.5402 122.429 66.5879 119.774C69.3459 116.203 72.1276 112.332 74.3174 107.894C75.7023 105.085 79.0225 96.2215 79.0817 93.1764C77.2174 91.6716 75.2998 89.1104 74.4357 85.7466C74.4949 85.7938 74.5778 85.7997 74.6074 85.9001L79.348 91.7719C80.8809 93.6367 83.1121 95.8497 85.1954 97.0418C92.8361 101.409 94.4814 94.1737 95.9551 88.2724C96.8428 86.1597 97.2393 84.6017 99.151 83.8346C101.826 81.7514 103.992 86.1656 109.958 80.5121C111.651 78.9128 112.402 77.2015 113.213 74.9825C114.462 65.1745 104.33 69.2346 99.299 70.3618C96.0261 72.9643 96.2569 73.1944 94.1204 76.7175C92.1081 80.0282 91.3387 83.0792 88.1073 82.5776C87.9238 82.1881 87.9771 82.3297 87.6101 81.7986C85.7517 79.1312 80.4903 64.8971 80.4962 64.844C81.1531 66.0656 81.9462 67.1161 82.6623 68.5796C83.2482 69.7835 83.6211 71.6778 84.4556 72.6633C88.7879 71.3001 95.5349 64.5254 97.8312 59.9459C99.0385 57.5441 103.318 42.1415 103.235 39.0492C103.282 38.1876 103.436 37.5621 103.525 36.6415C103.548 36.3877 103.602 35.4199 103.572 35.2016C103.572 32.9 103.057 28.3265 98.5414 29.2648C95.2685 30.3447 92.6585 33.4666 93.4516 38.1404C93.9606 41.1265 94.6589 40.619 94.2861 44.4549C92.5934 61.8993 76.2823 56.9421 72.8555 54.0564C70.648 52.1974 68.6061 49.7425 65.2918 46.9629C63.972 45.8594 62.6167 44.7912 61.2259 43.6936C59.6457 42.4484 58.7934 41.5809 57.1836 40.4183C54.0232 38.1404 51.3836 36.3995 48.5072 34.4285C46.9921 33.3898 45.6842 32.4102 44.2815 31.3303C41.8786 29.4772 41.7898 28.7278 42.8907 26.9574C47.7201 26.4971 50.6319 27.6419 51.1113 24.6381L50.0815 24.048C48.6138 23.4697 47.6846 23.7706 47.7082 22.0474L49.8152 22.2245C51.644 22.6081 54.2836 22.6612 55.852 21.8999C58.9532 20.401 61.6875 15.8156 56.6687 14.5468C52.5791 13.5141 47.9864 9.45396 43.7311 7.55963C42.7013 7.09932 40.0794 6.49149 39.4876 5.6771C38.7419 4.64436 38.8484 2.32513 37.8363 0.950118C35.7176 0.932414 35.3388 2.69102 34.96 4.62666L34.1373 3.69425C32.9418 2.00646 31.113 -0.4367 28.1183 0.300969C27.5679 0.4367 27.7751 0.377687 27.4377 0.590135C26.9287 0.908808 27.2898 0.637346 26.9347 1.07405C23.4487 1.88843 24.3187 10.0972 23.6855 10.8585L23.4783 6.96949C20.5309 7.93141 17.7552 12.204 16.8023 15.4379C14.6776 22.673 17.6901 29.2235 21.7738 35.0363C23.7565 37.8631 29.4204 43.1271 32.5986 46.7682C36.4041 51.1352 40.0439 56.4346 42.9262 61.9288C46.2819 68.3258 48.2054 73.3479 47.9509 82.3061C47.7319 89.8245 45.5303 96.8057 43.0386 102.743C41.8609 105.557 32.1133 125.209 30.2845 128.059C28.5504 130.768 27.2957 133.589 26.4553 137.147C24.7271 144.471 25.893 152.432 25.3604 155.076C25.1059 156.344 24.224 158.386 23.8097 159.98C21.7205 168.065 24.5081 170.643 24.4489 177.111C24.3838 184.942 21.0518 185.031 15.7962 189.138C12.1446 191.995 12.5233 194.402 12.5529 199.932C12.5944 207.391 11.7717 212.248 14.7783 218.444C15.1748 219.265 15.5536 219.943 16.0744 220.699C17.3468 222.522 18.7317 224.304 21.0754 224.8L21.0991 224.794ZM46.1517 14.8065C43.3345 16.0694 38.7064 13.4551 40.4937 11.2244C41.5472 9.90246 47.2525 11.2598 46.1517 14.8065ZM55.6862 15.0307C60.5512 15.9809 58.4442 18.9728 57.6571 19.4627L57.2724 17.5978C56.2958 17.0608 56.7516 17.1434 55.704 17.6273L55.6862 15.0248V15.0307ZM28.8759 4.54404C30.6869 4.47322 31.3202 5.2404 31.6871 6.78065C30.1661 8.03764 29.5743 6.22002 28.799 10.3687C27.6271 10.646 26.7157 7.15834 28.87 4.54404H28.8759Z" fill="#1D1E1C"/>
<path fill-rule="evenodd" clip-rule="evenodd" d="M82.5677 207.958C86.3436 212.384 89.1904 213.948 94.9904 214.296C103.578 213.806 104.395 208.388 104.466 206.417C104.383 205.638 104.306 205.072 104.123 204.588C103.306 201.059 99.2813 200.74 95.3159 200.729C90.4333 200.717 90.1137 201.443 87.3024 198.551C85.6157 196.816 84.1242 194.88 82.9702 192.632C81.165 189.121 81.4254 188.283 82.0765 184.417H82.1061L82.0765 184.405C83.3844 180.316 84.7042 171.269 84.9114 166.577C85.4973 153.246 80.3128 146.401 68.7601 140.659C64.7592 138.676 61.5692 138.729 61.9776 131.73C62.1078 129.517 62.8831 128.673 62.0072 127.481C61.4035 128.933 59.0539 132.096 57.4796 135.56C53.5735 144.14 51.8453 159.089 56.9884 166.737C60.5335 172.013 67.0378 172.733 70.7605 178.174C73.2758 181.85 71.885 184.329 71.1629 188.377C70.6836 191.08 71.3583 190.814 72.7846 192.543C76.6138 197.176 78.9042 203.667 82.5677 207.964V207.958Z" fill="#1D1E1C"/>
<path fill-rule="evenodd" clip-rule="evenodd" d="M51.6797 23.2572C59.1605 29.9434 57.6928 24.827 61.2912 24.6558C63.5638 24.5437 63.9959 26.4735 67.1445 26.4262C69.7131 26.3908 70.8494 24.8683 71.1098 22.4074C69.2455 22.6081 67.2806 23.3693 65.6294 22.6494C64.0847 21.9707 63.623 20.9557 61.2853 21.1268C59.4328 21.2685 58.7581 22.372 57.2607 22.9149C55.574 23.5287 53.5026 23.1569 51.6797 23.2513V23.2572Z" fill="#1D1E1C"/>
<path fill-rule="evenodd" clip-rule="evenodd" d="M50.3003 36.4762C49.1995 35.833 42.2276 30.9644 41.7423 29.1881L41.3161 27.0872C38.2859 27.4708 38.0137 31.0116 42.6596 32.9472C45.3525 34.0685 47.9033 35.4435 50.3062 36.4762H50.3003Z" fill="#1D1E1C"/>
<path fill-rule="evenodd" clip-rule="evenodd" d="M55.7038 17.6332C56.7514 17.1493 56.2956 17.0667 57.2722 17.6037L57.6569 19.4686C58.444 18.9728 60.551 15.9868 55.686 15.0366L55.7038 17.6391V17.6332Z" fill="#1D1E1C"/>
<path fill-rule="evenodd" clip-rule="evenodd" d="M103.525 208.855C103.27 207.958 103.217 207.674 103.744 206.748C106.105 206.783 105.146 210.159 104.034 211.257L103.525 208.849V208.855Z" fill="#1D1E1C"/>
<path fill-rule="evenodd" clip-rule="evenodd" d="M103.341 207.816L102.868 207.787C102.844 208.158 102.927 208.489 103.063 208.979L103.572 211.363L104.034 211.268L103.525 208.861C103.4 208.412 103.318 208.117 103.341 207.816ZM104.034 211.262C105.146 210.159 106.111 206.789 103.744 206.754V206.282C104.182 206.288 104.537 206.388 104.821 206.559C105.288 206.842 105.543 207.303 105.638 207.846C105.72 208.324 105.667 208.866 105.531 209.398L105.069 209.28L105.525 209.398C105.306 210.259 104.845 211.115 104.359 211.593L104.028 211.257L104.034 211.262ZM103.75 206.754C103.483 207.214 103.365 207.515 103.347 207.816L102.874 207.781C102.897 207.403 103.039 207.043 103.341 206.518L103.75 206.754Z" fill="#1D1E1C"/>
<path fill-rule="evenodd" clip-rule="evenodd" d="M101.282 211.41C101.027 210.513 100.974 210.23 101.501 209.303C103.862 209.339 102.903 212.714 101.791 213.812L101.282 211.404V211.41Z" fill="#1D1E1C"/>
<path fill-rule="evenodd" clip-rule="evenodd" d="M101.098 210.365L100.625 210.336C100.601 210.708 100.684 211.038 100.82 211.528L101.329 213.912L101.791 213.818L101.282 211.41C101.157 210.961 101.074 210.666 101.098 210.365ZM101.791 213.812C102.903 212.708 103.868 209.339 101.501 209.303V208.831C101.939 208.837 102.294 208.937 102.578 209.108C103.051 209.392 103.3 209.858 103.394 210.395C103.477 210.873 103.424 211.416 103.288 211.947L102.826 211.829L103.282 211.947C103.063 212.809 102.601 213.664 102.116 214.142L101.785 213.806L101.791 213.812ZM101.501 209.303C101.234 209.763 101.116 210.064 101.098 210.365L100.625 210.33C100.648 209.952 100.79 209.592 101.092 209.067L101.501 209.303Z" fill="#1D1E1C"/>
<path fill-rule="evenodd" clip-rule="evenodd" d="M98.1981 213.334C97.9436 212.437 97.8903 212.154 98.417 211.227C100.778 211.262 99.8197 214.638 98.707 215.736L98.1981 213.328V213.334Z" fill="#1D1E1C"/>
<path fill-rule="evenodd" clip-rule="evenodd" d="M98.0146 212.295L97.5411 212.266C97.5175 212.637 97.6003 212.968 97.7364 213.458L98.2454 215.842L98.7071 215.747L98.1981 213.34C98.0738 212.891 97.9968 212.596 98.0146 212.295ZM98.7071 215.742C99.8197 214.638 100.784 211.268 98.4171 211.233V210.761C98.855 210.767 99.2101 210.867 99.4942 211.038C99.9677 211.321 100.216 211.788 100.311 212.325C100.394 212.803 100.341 213.346 100.204 213.877L99.7428 213.759L100.198 213.877C99.9795 214.738 99.5179 215.594 99.0326 216.072L98.7011 215.736L98.7071 215.742ZM98.4171 211.233C98.1507 211.693 98.0324 211.994 98.0146 212.295L97.5411 212.26C97.5648 211.882 97.7069 211.522 98.0087 210.997L98.4171 211.233Z" fill="#1D1E1C"/>
<path fill-rule="evenodd" clip-rule="evenodd" d="M95.0081 213.912C94.7536 213.015 94.7004 212.732 95.2271 211.805C97.5885 211.841 96.6298 215.216 95.5171 216.314L95.0081 213.906V213.912Z" fill="#1D1E1C"/>
<path fill-rule="evenodd" clip-rule="evenodd" d="M94.3512 212.838C94.3275 213.21 94.4104 213.54 94.5465 214.03L95.0555 216.414L95.5171 216.32L95.0081 213.912C94.7536 213.015 94.7004 212.732 95.2271 211.805L94.8187 211.569C94.5169 212.095 94.3808 212.455 94.3512 212.838ZM95.5171 216.314C96.6298 215.21 97.5945 211.841 95.2271 211.805V211.333C95.6651 211.339 96.0202 211.439 96.3043 211.611C96.7718 211.894 97.0263 212.36 97.121 212.897C97.2039 213.375 97.1506 213.918 97.0145 214.449L96.5528 214.331L97.0086 214.449C96.7896 215.311 96.3279 216.166 95.8426 216.644L95.5112 216.308L95.5171 216.314Z" fill="#1D1E1C"/>
<path fill-rule="evenodd" clip-rule="evenodd" d="M35.7825 219.105C35.4452 218.362 35.3623 218.12 35.7056 217.252C37.7593 216.981 37.3627 220.026 36.5401 221.124L35.7885 219.105H35.7825Z" fill="#1D1E1C"/>
<path fill-rule="evenodd" clip-rule="evenodd" d="M35.0193 218.261C35.0429 218.598 35.1613 218.875 35.3507 219.294L36.0964 221.289L36.5403 221.124L35.7887 219.105C35.4513 218.362 35.3684 218.12 35.7117 217.252L35.2678 217.081C35.0725 217.589 34.9956 217.925 35.0252 218.261H35.0193ZM36.5344 221.124C36.6468 220.976 36.7474 220.793 36.8362 220.587L36.9782 220.958L36.8421 220.587C37.0138 220.197 37.138 219.737 37.1854 219.276C37.3038 218.161 36.9605 217.087 35.7058 217.252L35.6407 216.786C36.0313 216.733 36.3627 216.78 36.635 216.892C37.0966 217.087 37.3866 217.465 37.5405 217.937C37.6766 218.344 37.7003 218.834 37.6529 219.318C37.5701 220.103 37.2801 220.911 36.9131 221.401L36.5344 221.118V221.124Z" fill="#1D1E1C"/>
<path fill-rule="evenodd" clip-rule="evenodd" d="M33.3205 221.944C32.8826 221.253 32.7642 221.029 32.9832 220.12C34.9777 219.566 35.0132 222.634 34.3504 223.838L33.3205 221.944Z" fill="#1D1E1C"/>
<path fill-rule="evenodd" clip-rule="evenodd" d="M32.9066 221.112L32.4449 221.218C32.5159 221.548 32.6757 221.808 32.9184 222.192L33.9364 224.062L34.3506 223.838L33.3208 221.944C33.1019 221.602 32.9657 221.371 32.9066 221.112ZM34.3506 223.838C34.4394 223.679 34.5164 223.478 34.5755 223.266C34.9662 221.873 34.7057 219.636 32.9835 220.12L32.8533 219.666C33.2321 219.56 33.5635 219.56 33.8535 219.636C34.3388 219.766 34.6762 220.097 34.8951 220.545C35.0904 220.935 35.1851 221.413 35.2029 221.903C35.2325 222.687 35.0549 223.531 34.7649 224.068L34.3506 223.844V223.838ZM32.9835 220.12C32.877 220.575 32.8533 220.858 32.9066 221.112L32.4449 221.212C32.3739 220.876 32.3976 220.533 32.5219 220.008L32.9835 220.114V220.12Z" fill="#1D1E1C"/>
<path fill-rule="evenodd" clip-rule="evenodd" d="M30.6692 223.614C30.2845 222.894 30.1839 222.658 30.468 221.767C32.498 221.36 32.3086 224.422 31.557 225.573L30.6692 223.608V223.614Z" fill="#1D1E1C"/>
<path fill-rule="evenodd" clip-rule="evenodd" d="M29.8524 222.823C29.8997 223.154 30.0358 223.425 30.2489 223.82L31.1248 225.768L31.5569 225.573L30.6691 223.608C30.2844 222.888 30.1838 222.652 30.4679 221.761L30.0181 221.619C29.8524 222.133 29.805 222.475 29.8524 222.817V222.823ZM31.5569 225.579C31.6575 225.426 31.7463 225.237 31.8232 225.024C32.3144 223.667 32.2256 221.419 30.4679 221.773L30.3732 221.312C30.7579 221.236 31.0893 221.259 31.3734 221.354C31.8469 221.519 32.1605 221.879 32.3499 222.339C32.5097 222.741 32.5748 223.224 32.5571 223.714C32.5275 224.499 32.2907 225.331 31.9593 225.839L31.5628 225.585L31.5569 225.579Z" fill="#1D1E1C"/>
<path fill-rule="evenodd" clip-rule="evenodd" d="M27.5856 224.617C27.1654 223.921 27.053 223.691 27.2838 222.788C29.2901 222.274 29.2606 225.349 28.5681 226.535L27.5797 224.617H27.5856Z" fill="#1D1E1C"/>
<path fill-rule="evenodd" clip-rule="evenodd" d="M28.9942 224.623C29.006 225.331 28.8403 226.075 28.5681 226.535L28.9764 226.771C29.2842 226.24 29.4736 225.402 29.4617 224.617C29.4558 224.127 29.367 223.649 29.1895 223.26C28.9823 222.811 28.645 222.469 28.1656 222.327C27.8756 222.245 27.5442 222.239 27.1654 222.339L27.2838 222.794C28.5148 222.481 28.9764 223.508 28.9942 224.629V224.623ZM26.7274 223.874C26.6623 223.537 26.6919 223.195 26.8281 222.67L27.2838 222.788C27.1654 223.236 27.1358 223.52 27.1891 223.779C27.2423 224.039 27.3725 224.269 27.5856 224.617L28.574 226.535L28.1538 226.748L27.1713 224.847C26.9405 224.464 26.7925 224.198 26.7274 223.874Z" fill="#1D1E1C"/>
<path fill-rule="evenodd" clip-rule="evenodd" d="M110.733 73.1C110.206 73.8082 110.064 74.0442 110.224 75.0357C112.325 75.791 112.603 72.4863 111.988 71.1408L110.733 73.1Z" fill="#1D1E1C"/>
<path fill-rule="evenodd" clip-rule="evenodd" d="M110.733 73.1C110.207 73.8082 110.065 74.0442 110.224 75.0357C112.326 75.791 112.604 72.4863 111.988 71.1408L110.733 73.1ZM109.798 73.8318C109.899 73.4954 110.082 73.2298 110.372 72.8404L111.615 70.8988L112.059 70.2084L112.402 70.9519C112.675 71.5421 112.793 72.4509 112.704 73.283C112.645 73.7964 112.509 74.298 112.278 74.6934C112.018 75.1419 111.639 75.4665 111.124 75.5609C110.816 75.6199 110.473 75.5904 110.082 75.4547L109.834 75.3661L109.792 75.1065C109.704 74.5399 109.698 74.1741 109.804 73.8318H109.798Z" fill="#1D1E1C"/>
<path fill-rule="evenodd" clip-rule="evenodd" d="M112.029 73.9262C111.503 74.6344 111.361 74.8704 111.52 75.8619C113.622 76.6172 113.9 73.3125 113.284 71.967L112.029 73.9262Z" fill="#1D1E1C"/>
<path fill-rule="evenodd" clip-rule="evenodd" d="M112.029 73.9262C111.503 74.6344 111.361 74.8704 111.52 75.8618C113.621 76.6172 113.9 73.3125 113.284 71.967L112.029 73.9262ZM111.094 74.658C111.195 74.3216 111.378 74.056 111.662 73.6724L112.911 71.7309L113.355 71.0404L113.698 71.784C113.971 72.3741 114.089 73.283 113.994 74.115C113.935 74.6285 113.799 75.1242 113.568 75.5255C113.308 75.974 112.929 76.2985 112.414 76.393C112.106 76.452 111.757 76.4225 111.372 76.2808L111.124 76.1923L111.082 75.9327C110.994 75.3661 110.988 75.0003 111.094 74.658Z" fill="#1D1E1C"/>
<path fill-rule="evenodd" clip-rule="evenodd" d="M102.56 34.6468C101.708 33.3839 104.2 32.7348 105.259 33.1066C103.892 33.561 103.341 34.7176 102.56 34.6468Z" fill="#1D1E1C"/>
<path fill-rule="evenodd" clip-rule="evenodd" d="M102.087 34.098C102.075 34.3223 102.146 34.5642 102.312 34.8121L102.566 34.6409C101.862 33.5964 103.442 32.9767 104.608 32.9944L105.17 32.8056C105.004 32.8587 104.851 32.9236 104.703 32.9944C104.91 33.0062 105.105 33.0358 105.265 33.0948L105.366 32.8056C104.851 32.6227 104.046 32.6581 103.377 32.8646C103.051 32.9649 102.75 33.1125 102.525 33.2954C102.264 33.5079 102.099 33.7734 102.087 34.0921V34.098ZM102.56 34.6468C103.341 34.7176 103.892 33.561 105.259 33.1066L105.354 33.3957C104.732 33.6023 104.282 33.98 103.898 34.2986C103.43 34.6881 103.051 35.0009 102.531 34.9537L102.554 34.6527L102.56 34.6468Z" fill="#1D1E1C"/>
<path fill-rule="evenodd" clip-rule="evenodd" d="M102.365 32.8174C101.513 31.5545 104.004 30.9054 105.064 31.2772C103.697 31.7316 103.146 32.8882 102.365 32.8174Z" fill="#1D1E1C"/>
<path fill-rule="evenodd" clip-rule="evenodd" d="M101.885 32.2686C101.873 32.4928 101.944 32.7348 102.11 32.9826L102.364 32.8115C101.66 31.767 103.24 31.1414 104.412 31.165L104.939 30.988C104.785 31.0411 104.643 31.1001 104.507 31.165C104.714 31.1768 104.909 31.2063 105.069 31.2654L105.17 30.9762C104.655 30.7932 103.85 30.8287 103.181 31.0352C102.856 31.1355 102.554 31.2831 102.329 31.466C102.069 31.6784 101.903 31.944 101.891 32.2627L101.885 32.2686ZM102.364 32.8174C103.146 32.8882 103.696 31.7316 105.063 31.2772L105.158 31.5663C104.536 31.7729 104.087 32.1506 103.702 32.4692C103.234 32.8587 102.856 33.1715 102.335 33.1243L102.359 32.8233L102.364 32.8174Z" fill="#1D1E1C"/>
<path fill-rule="evenodd" clip-rule="evenodd" d="M101.684 31.0765C100.69 29.6012 103.602 28.8399 104.845 29.2707C103.241 29.8018 102.602 31.1532 101.684 31.0765Z" fill="#1D1E1C"/>
<path fill-rule="evenodd" clip-rule="evenodd" d="M101.128 30.4333C101.116 30.6988 101.193 30.9762 101.394 31.2713L101.69 31.0706C101.329 30.5395 101.477 30.1028 101.873 29.7782L101.648 29.5008C101.347 29.7487 101.151 30.0615 101.134 30.4274L101.128 30.4333ZM101.684 31.0765C102.601 31.1532 103.241 29.8018 104.844 29.2707L104.957 29.6071C104.235 29.849 103.702 30.2857 103.252 30.6575C102.708 31.1119 102.264 31.4778 101.654 31.4247L101.684 31.0706V31.0765ZM104.844 29.2707C104.655 29.2058 104.43 29.1704 104.187 29.1527C104.359 29.0701 104.537 28.9933 104.732 28.9284L104.075 29.1468C103.306 29.135 102.376 29.3592 101.867 29.7782L101.643 29.5008C101.903 29.2825 102.258 29.1173 102.637 28.9933C103.412 28.7514 104.359 28.716 104.957 28.9284L104.838 29.2648L104.844 29.2707Z" fill="#1D1E1C"/>
<path fill-rule="evenodd" clip-rule="evenodd" d="M99.7785 29.9435C98.8138 28.5094 101.643 27.7718 102.844 28.1907C101.294 28.7042 100.666 30.0202 99.7785 29.9435Z" fill="#1D1E1C"/>
<path fill-rule="evenodd" clip-rule="evenodd" d="M99.2399 29.3238C99.2281 29.5776 99.3051 29.8549 99.4944 30.1382L99.7785 29.9435C99.4293 29.43 99.5714 29.0051 99.9561 28.6924L99.7371 28.4268C99.4471 28.6688 99.2577 28.9697 99.2399 29.3297V29.3238ZM99.7785 29.9435C100.666 30.0202 101.288 28.7101 102.844 28.1907L102.957 28.5212C102.252 28.7514 101.738 29.1822 101.305 29.5422C100.779 29.9789 100.347 30.3388 99.7549 30.2857L99.7844 29.9435H99.7785ZM102.844 28.1907C102.661 28.1258 102.442 28.0904 102.205 28.0786C102.371 27.996 102.542 27.9252 102.732 27.8662L102.093 28.0786C101.341 28.0668 100.447 28.2852 99.9502 28.6924L99.7312 28.4268C99.9857 28.2144 100.329 28.0491 100.702 27.937C101.453 27.7009 102.371 27.6655 102.957 27.8721L102.844 28.1966V28.1907Z" fill="#1D1E1C"/>
<path fill-rule="evenodd" clip-rule="evenodd" d="M374.593 35.2547C375.842 33.2069 383.051 30.3506 381.033 27.1167C384.477 26.2197 384.619 30.4805 381.453 32.2568C380.169 32.9767 376.055 34.7944 374.593 35.2547ZM309.882 74.9648C310.604 78.4939 313.74 81.6924 316.605 82.8372C317.138 82.973 318.67 83.4687 319.108 83.4097C320.043 83.2798 321.535 82.9435 322.778 83.1736C323.02 83.2208 323.299 83.1146 324.127 83.7402C324.973 84.3244 325.157 84.4719 325.654 85.2273C325.938 85.664 325.962 85.7879 326.163 86.1715C327.749 88.6619 327.649 92.5509 329.566 95.6904C331.2 98.3696 333.881 98.9715 337.355 97.1185C341.243 95.0412 344.309 90.7274 347.061 87.1924L348.209 85.906C348.239 85.7997 348.327 85.7997 348.387 85.7466C347.813 88.8861 345.682 91.3529 343.877 93.1115C344.078 97.9978 348.41 107.735 350.647 111.547C352.097 114.02 354.187 116.735 355.844 118.948C357.661 121.379 359.312 123.852 360.94 126.454C364.023 131.382 367.693 136.705 369.202 143.379C371.22 152.302 369.681 157.2 369.024 165.804C368.48 172.915 370.119 181.579 373.854 185.863C383.252 196.645 396.716 189.829 400.617 196.657C402.191 199.407 402.741 203.785 402.339 207.545C401.646 213.989 399.687 211.805 394.373 212.112C390.159 212.354 388.064 213.67 386.59 216.621C386.063 224.706 400.439 226.565 404.381 223.372C411.139 217.896 410.287 207.48 410.335 200.233C410.394 191.162 410.275 191.021 404.097 187.02C399.356 183.951 397.675 180.581 398.652 173.535C399.575 166.837 401.084 165.368 398.285 157.123C397.137 153.748 397.468 151.924 397.492 148.142C397.569 136.492 395.787 134.209 391.331 125.445C382.873 108.821 368.894 87.0154 377.541 66.9567C386.016 47.3111 396.201 42.2773 402.126 33.5374C404.659 29.8018 407.162 24.6853 406.76 18.7722C406.428 13.9036 402.901 7.76618 399.391 6.81606C399.356 8.06124 399.741 9.14119 398.965 10.1267C398.888 5.71251 398.9 5.98987 397.586 2.10678C396.432 1.58156 395.586 -0.967821 392.094 0.418996C389.709 1.36321 389.401 2.70872 388.212 4.66207C387.099 3.02739 387.774 0.554727 384.897 0.879302C383.003 4.76239 385.294 5.17548 381.281 6.60951C372.966 9.58379 371.042 13.343 366.16 14.6176C364.272 15.1075 364.497 15.6032 363.638 16.1579C363.461 18.0758 363.526 19.0378 364.692 19.9997C369.326 23.8237 369.657 21.8645 375.327 21.953C375.073 24.0539 373.386 23.3634 371.865 24.349C371.93 28.6274 379.612 25.1693 380.743 27.6478C381.69 29.7369 375.144 33.8619 373.765 34.818C368.231 38.6538 362.674 42.6373 357.46 46.9452C354.477 49.412 352.299 52.2978 349.772 53.3305C337.668 58.2758 330.146 54.3455 328.82 42.6136C328.418 39.0374 329.105 39.4446 329.501 36.6179C330.14 32.0856 327.749 29.0937 324.524 27.9193C319.629 27.4118 319.629 28.8399 319.262 34.5524C319.398 35.6205 319.517 35.7622 319.611 36.6533C319.428 39.2499 324.157 55.1894 325.258 57.5795C327.637 62.7432 335.597 69.6477 339.491 69.7422C340.497 67.4996 340.782 66.0538 342.066 63.8113C343.06 62.0704 344.457 60.0226 345.688 59.1315C345.155 60.6364 343.433 63.1798 342.51 65.1037C340.284 69.7303 339.189 72.7695 337.39 77.5437C333.579 87.6468 331.348 79.7803 329.761 78.4879C328.773 75.6612 326.329 72.7164 324.595 70.8693C322.275 69.6949 320.629 70.1021 317.771 70.1021C310.462 70.1021 308.946 68.0603 309.876 74.9825L309.882 74.9648ZM365.094 19.5689C363.538 17.409 363.982 15.3789 367.302 15.1016L367.095 17.2674C366.296 17.7808 366.941 17.2437 365.686 17.4208L365.088 19.563L365.094 19.5689ZM376.7 14.7239C375.777 11.1654 381.139 9.83165 382.323 10.9116C384.459 12.8649 380.168 15.8333 376.7 14.7239ZM391.248 6.77475C391.526 4.87452 393.426 3.25755 394.757 5.2345C395.734 6.68623 395.521 9.1648 394.379 10.3451L393.887 8.98186C393.763 8.55106 393.698 8.12616 393.402 7.76028C392.526 6.65672 392.212 7.48291 391.248 6.77475Z" fill="#1D1E1C"/>
<path fill-rule="evenodd" clip-rule="evenodd" d="M319.86 202.829C319.369 203.715 319.428 203.207 318.931 204.299C318.629 204.966 318.517 205.609 318.44 206.358C318.309 214.16 326.252 213.859 328.193 213.965L330.921 213.906C340.338 212.779 344.398 199.95 349.357 193.37C350.239 192.195 351.121 191.499 351.926 190.265C351.896 186.736 349.985 183.349 351.133 179.944C353.666 172.42 364.668 172.632 367.852 162.677C369.427 157.755 369.089 147.186 367.852 142.087C366.858 137.968 362.881 129.086 360.318 127.009C360.579 131.388 362.319 135.218 358.886 138.204C358.176 138.823 352.82 141.148 350.044 142.854C334.555 152.355 337 166.371 340.385 182.334C341.468 187.427 342.042 188.719 339.539 193.257C337.811 196.391 335.686 198.433 333.336 200.481C328.359 200.811 322.742 199.684 319.854 202.841L319.86 202.829Z" fill="#1D1E1C"/>
<path fill-rule="evenodd" clip-rule="evenodd" d="M351.766 22.2717C351.979 24.5437 353.222 26.0132 355.104 26.2728C358.3 26.7095 358.809 24.8506 360.946 24.5614C364.094 24.1424 363.449 27.04 366.68 26.3141C368.113 25.9895 370.06 24.0539 371.125 23.2277C369.113 22.9504 367.562 23.4461 365.716 22.7674C364.402 22.2835 363.354 21.0973 361.508 21.0029C359.022 20.879 358.543 22.0179 357.128 22.6022C355.53 23.2631 353.601 22.3661 351.766 22.2717Z" fill="#1D1E1C"/>
<path fill-rule="evenodd" clip-rule="evenodd" d="M374.593 35.2547C376.049 34.7944 380.168 32.9767 381.453 32.2568C384.619 30.4805 384.477 26.2138 381.032 27.1167C383.051 30.3506 375.836 33.2069 374.593 35.2547Z" fill="#1D1E1C"/>
<path fill-rule="evenodd" clip-rule="evenodd" d="M365.094 19.5689L365.692 17.4267C366.947 17.2555 366.302 17.7867 367.101 17.2733L367.308 15.1075C363.988 15.3789 363.538 17.4149 365.1 19.5748L365.094 19.5689Z" fill="#1D1E1C"/>
<path fill-rule="evenodd" clip-rule="evenodd" d="M421.704 114.126C422.367 119.78 422.965 125.091 423 130.862C423.018 133.819 422.959 136.663 422.639 139.585C422.414 141.626 421.373 145.805 421.432 147.339C419.976 148.932 419.064 159.873 405.783 157.46C398.581 156.156 398.149 151.163 398.054 145.498L398.125 139.661C399.687 140.918 403.795 147.599 408.151 144.377C411.199 142.116 410.228 135.342 408.991 131.736C403.978 117.071 391.053 106.744 389.845 87.5583C389.07 75.2127 395.243 61.5983 402.777 53.2715C408.973 46.42 406.434 47.8836 409.358 44.0359C412.477 39.9285 416.093 40.4183 418.875 44.9093C424.042 53.2361 415.253 66.5023 417.691 86.8561C418.751 95.6727 420.289 105.103 421.692 114.126H421.704Z" fill="#1D1E1C"/>
<path fill-rule="evenodd" clip-rule="evenodd" d="M319.392 208.949C319.647 208.052 319.7 207.769 319.173 206.842C316.812 206.878 317.771 210.253 318.883 211.351L319.392 208.943V208.949Z" fill="#1D1E1C"/>
<path fill-rule="evenodd" clip-rule="evenodd" d="M319.173 206.842C316.812 206.878 317.771 210.253 318.883 211.351L319.392 208.943C319.647 208.046 319.7 207.763 319.173 206.836V206.842ZM320.049 207.875C320.073 208.247 319.99 208.577 319.854 209.067L319.345 211.451L319.168 212.295L318.552 211.687C318.067 211.209 317.605 210.354 317.386 209.492C317.25 208.961 317.203 208.418 317.28 207.94C317.374 207.397 317.629 206.937 318.096 206.653C318.38 206.482 318.735 206.382 319.168 206.376H319.446L319.582 206.612C319.884 207.137 320.02 207.497 320.049 207.881V207.875Z" fill="#1D1E1C"/>
<path fill-rule="evenodd" clip-rule="evenodd" d="M321.641 211.498C321.896 210.601 321.949 210.318 321.422 209.392C319.061 209.427 320.02 212.803 321.132 213.9L321.641 211.493V211.498Z" fill="#1D1E1C"/>
<path fill-rule="evenodd" clip-rule="evenodd" d="M321.417 209.398C319.055 209.433 320.014 212.809 321.127 213.906L321.636 211.498C321.89 210.601 321.943 210.318 321.417 209.392V209.398ZM322.298 210.424C322.322 210.796 322.239 211.127 322.103 211.616L321.594 214.001L321.417 214.845L320.801 214.237C320.316 213.753 319.854 212.903 319.635 212.041C319.499 211.51 319.452 210.967 319.529 210.489C319.623 209.946 319.878 209.486 320.345 209.203C320.629 209.032 320.984 208.931 321.417 208.925H321.695L321.831 209.162C322.133 209.687 322.269 210.047 322.298 210.43V210.424Z" fill="#1D1E1C"/>
<path fill-rule="evenodd" clip-rule="evenodd" d="M324.725 213.428C324.979 212.531 325.033 212.248 324.506 211.321C322.144 211.357 323.103 214.732 324.216 215.83L324.725 213.422V213.428Z" fill="#1D1E1C"/>
<path fill-rule="evenodd" clip-rule="evenodd" d="M324.5 211.321C322.139 211.357 323.097 214.732 324.21 215.83L324.719 213.422C324.974 212.525 325.027 212.242 324.5 211.316V211.321ZM325.376 212.354C325.4 212.726 325.317 213.056 325.181 213.546L324.672 215.93L324.494 216.774L323.879 216.166C323.393 215.688 322.932 214.833 322.713 213.971C322.577 213.44 322.529 212.897 322.606 212.419C322.701 211.876 322.955 211.416 323.423 211.133C323.707 210.961 324.062 210.861 324.494 210.855H324.772L324.908 211.091C325.21 211.617 325.346 211.976 325.376 212.36V212.354Z" fill="#1D1E1C"/>
<path fill-rule="evenodd" clip-rule="evenodd" d="M327.909 214.001C328.163 213.104 328.217 212.82 327.69 211.894C325.329 211.929 326.287 215.305 327.4 216.402L327.909 213.995V214.001Z" fill="#1D1E1C"/>
<path fill-rule="evenodd" clip-rule="evenodd" d="M327.69 211.894C325.329 211.929 326.287 215.305 327.4 216.403L327.909 213.995C328.163 213.098 328.217 212.814 327.69 211.888V211.894ZM328.566 212.927C328.59 213.298 328.507 213.629 328.371 214.119L327.862 216.503L327.684 217.347L327.069 216.739C326.583 216.255 326.122 215.405 325.903 214.544C325.767 214.012 325.719 213.47 325.796 212.992C325.891 212.449 326.145 211.988 326.613 211.705C326.897 211.534 327.252 211.434 327.684 211.428H327.962L328.098 211.664C328.4 212.189 328.536 212.549 328.566 212.933V212.927Z" fill="#1D1E1C"/>
<path fill-rule="evenodd" clip-rule="evenodd" d="M387.135 219.2C387.472 218.456 387.555 218.214 387.211 217.347C385.158 217.075 385.554 220.12 386.377 221.218L387.129 219.2H387.135Z" fill="#1D1E1C"/>
<path fill-rule="evenodd" clip-rule="evenodd" d="M387.134 219.2C387.472 218.456 387.555 218.214 387.211 217.347C385.158 217.075 385.554 220.12 386.377 221.218L387.129 219.2H387.134ZM387.904 218.356C387.88 218.692 387.762 218.97 387.572 219.389L386.827 221.383L386.525 222.192L386.004 221.501C385.637 221.011 385.347 220.203 385.264 219.418C385.217 218.934 385.241 218.444 385.377 218.037C385.531 217.565 385.821 217.187 386.282 216.993C386.56 216.875 386.886 216.833 387.277 216.886L387.555 216.922L387.655 217.181C387.851 217.689 387.928 218.025 387.898 218.362L387.904 218.356Z" fill="#1D1E1C"/>
<path fill-rule="evenodd" clip-rule="evenodd" d="M389.597 222.032C390.035 221.342 390.153 221.118 389.934 220.209C387.939 219.654 387.904 222.723 388.567 223.927L389.597 222.032Z" fill="#1D1E1C"/>
<path fill-rule="evenodd" clip-rule="evenodd" d="M389.597 222.032C390.035 221.342 390.153 221.118 389.934 220.209C387.939 219.654 387.904 222.723 388.567 223.927L389.597 222.032ZM390.473 221.307C390.401 221.637 390.242 221.897 389.999 222.28L388.981 224.151L388.567 224.912L388.147 224.157C387.851 223.62 387.679 222.776 387.709 221.991C387.726 221.507 387.821 221.029 388.016 220.634C388.235 220.185 388.579 219.855 389.058 219.725C389.348 219.648 389.679 219.654 390.058 219.754L390.325 219.831L390.39 220.103C390.514 220.628 390.538 220.976 390.467 221.307H390.473Z" fill="#1D1E1C"/>
<path fill-rule="evenodd" clip-rule="evenodd" d="M392.248 223.708C392.633 222.988 392.733 222.752 392.449 221.861C390.419 221.454 390.609 224.517 391.36 225.668L392.248 223.702V223.708Z" fill="#1D1E1C"/>
<path fill-rule="evenodd" clip-rule="evenodd" d="M392.248 223.708C392.633 222.988 392.733 222.752 392.449 221.861C390.419 221.454 390.609 224.517 391.36 225.668L392.248 223.702V223.708ZM393.065 222.918C393.018 223.248 392.881 223.52 392.668 223.915L391.792 225.862L391.437 226.653L390.964 225.927C390.632 225.414 390.39 224.588 390.366 223.803C390.348 223.319 390.407 222.835 390.573 222.434C390.757 221.973 391.076 221.613 391.55 221.448C391.834 221.348 392.165 221.33 392.55 221.407L392.822 221.46L392.905 221.726C393.071 222.239 393.118 222.581 393.071 222.924L393.065 222.918Z" fill="#1D1E1C"/>
<path fill-rule="evenodd" clip-rule="evenodd" d="M395.332 224.712C395.752 224.015 395.864 223.785 395.633 222.882C393.627 222.369 393.657 225.443 394.349 226.63L395.337 224.712H395.332Z" fill="#1D1E1C"/>
<path fill-rule="evenodd" clip-rule="evenodd" d="M395.633 222.882C393.627 222.369 393.657 225.443 394.349 226.63L395.337 224.712C395.758 224.015 395.87 223.785 395.639 222.882H395.633ZM396.196 223.962C396.13 224.293 395.983 224.552 395.752 224.936L394.769 226.836L394.373 227.603L393.941 226.854C393.633 226.323 393.444 225.485 393.455 224.7C393.461 224.21 393.55 223.732 393.728 223.342C393.935 222.894 394.272 222.552 394.751 222.41C395.041 222.327 395.373 222.322 395.752 222.422L396.018 222.493L396.089 222.764C396.225 223.289 396.261 223.632 396.19 223.968L396.196 223.962Z" fill="#1D1E1C"/>
<path fill-rule="evenodd" clip-rule="evenodd" d="M311.823 73.1177C312.35 73.8259 312.492 74.0619 312.332 75.0534C310.231 75.8087 309.953 72.504 310.568 71.1585L311.823 73.1177Z" fill="#1D1E1C"/>
<path fill-rule="evenodd" clip-rule="evenodd" d="M312.764 73.8495C312.663 73.5131 312.48 73.2476 312.19 72.8581L310.947 70.9165L310.568 71.1526L311.823 73.1118C312.35 73.82 312.492 74.056 312.332 75.0475L312.776 75.1183C312.87 74.5518 312.87 74.1859 312.764 73.8436V73.8495ZM310.568 71.1585C310.497 71.3178 310.432 71.5008 310.391 71.7073C310.284 72.1735 310.249 72.7282 310.308 73.2594C310.438 74.4573 311.042 75.5196 312.332 75.0593L312.48 75.4783C312.095 75.614 311.746 75.6435 311.438 75.5845C310.923 75.4901 310.544 75.1655 310.284 74.717C310.053 74.3216 309.917 73.8259 309.858 73.3066C309.763 72.4745 309.887 71.5657 310.16 70.9755L310.568 71.1585Z" fill="#1D1E1C"/>
<path fill-rule="evenodd" clip-rule="evenodd" d="M310.527 73.9498C311.053 74.658 311.195 74.894 311.036 75.8855C308.935 76.6408 308.656 73.3361 309.272 71.9906L310.527 73.9498Z" fill="#1D1E1C"/>
<path fill-rule="evenodd" clip-rule="evenodd" d="M311.468 74.6816C311.367 74.3452 311.184 74.0796 310.9 73.6961L309.651 71.7545L309.272 71.9965L310.527 73.9557C311.053 74.6639 311.195 74.8999 311.036 75.8914L311.48 75.9622C311.574 75.3956 311.574 75.0298 311.468 74.6875V74.6816ZM309.272 71.9906C308.651 73.3361 308.929 76.6408 311.036 75.8855L311.19 76.3045C310.805 76.4402 310.456 76.4697 310.148 76.4166C309.639 76.3222 309.254 75.9976 308.994 75.5491C308.763 75.1537 308.621 74.6521 308.568 74.1387C308.479 73.3007 308.597 72.3919 308.864 71.8076L309.272 71.9906Z" fill="#1D1E1C"/>
<path fill-rule="evenodd" clip-rule="evenodd" d="M320.209 33.2895C321.062 32.0266 318.57 31.3775 317.51 31.7493C318.878 32.2037 319.428 33.3603 320.209 33.2895Z" fill="#1D1E1C"/>
<path fill-rule="evenodd" clip-rule="evenodd" d="M320.209 33.2895C321.061 32.0266 318.57 31.3775 317.51 31.7493C318.878 32.2037 319.428 33.3603 320.209 33.2895ZM320.689 32.7407C320.7 32.9649 320.629 33.2069 320.464 33.4548L320.381 33.5728L320.239 33.5846C319.718 33.6318 319.333 33.3131 318.872 32.9295C318.487 32.6109 318.037 32.2332 317.416 32.0266L316.563 31.7434L317.41 31.4483C317.925 31.2654 318.73 31.3008 319.398 31.5073C319.724 31.6076 320.026 31.7552 320.251 31.9381C320.511 32.1506 320.677 32.4161 320.689 32.7348V32.7407Z" fill="#1D1E1C"/>
<path fill-rule="evenodd" clip-rule="evenodd" d="M320.405 31.4601C321.257 30.1972 318.765 29.5481 317.706 29.9198C319.073 30.3742 319.623 31.5309 320.405 31.4601Z" fill="#1D1E1C"/>
<path fill-rule="evenodd" clip-rule="evenodd" d="M320.405 31.4601C321.257 30.1972 318.765 29.5481 317.706 29.9198C319.073 30.3742 319.623 31.5309 320.405 31.4601ZM320.884 30.9113C320.896 31.1355 320.825 31.3775 320.659 31.6253L320.576 31.7434L320.428 31.7552C319.907 31.8024 319.529 31.4837 319.061 31.1001C318.676 30.7814 318.227 30.4038 317.605 30.1972L316.759 29.9139L317.605 29.6189C318.12 29.4359 318.925 29.4713 319.594 29.6779C319.919 29.7782 320.221 29.9257 320.446 30.1087C320.706 30.3211 320.872 30.5867 320.884 30.9054V30.9113Z" fill="#1D1E1C"/>
<path fill-rule="evenodd" clip-rule="evenodd" d="M321.085 29.7133C322.08 28.238 319.168 27.4767 317.925 27.9075C319.529 28.4386 320.168 29.79 321.085 29.7133Z" fill="#1D1E1C"/>
<path fill-rule="evenodd" clip-rule="evenodd" d="M321.085 29.7133C322.079 28.238 319.167 27.4767 317.925 27.9075C319.528 28.4386 320.168 29.79 321.085 29.7133ZM321.647 29.076C321.659 29.3415 321.582 29.6189 321.381 29.9139L321.286 30.0556L321.115 30.0674C320.505 30.1205 320.061 29.7546 319.517 29.3002C319.067 28.9284 318.54 28.4858 317.812 28.2498L316.818 27.9193L317.806 27.577C318.41 27.3646 319.351 27.4 320.126 27.6419C320.511 27.76 320.86 27.9311 321.121 28.1494C321.422 28.3973 321.618 28.7101 321.635 29.076H321.647Z" fill="#1D1E1C"/>
<path fill-rule="evenodd" clip-rule="evenodd" d="M322.991 28.5802C323.955 27.1462 321.126 26.4085 319.925 26.8275C321.476 27.341 322.103 28.657 322.991 28.5802Z" fill="#1D1E1C"/>
<path fill-rule="evenodd" clip-rule="evenodd" d="M322.991 28.5802C323.956 27.1462 321.127 26.4085 319.925 26.8275C321.476 27.341 322.103 28.657 322.991 28.5802ZM323.535 27.9606C323.547 28.2144 323.47 28.4917 323.281 28.775L323.186 28.9107L323.021 28.9225C322.429 28.9756 321.997 28.6156 321.47 28.1789C321.038 27.819 320.523 27.3882 319.819 27.158L318.854 26.8393L319.813 26.503C320.399 26.2964 321.31 26.3318 322.068 26.5679C322.441 26.6859 322.778 26.8511 323.038 27.0577C323.328 27.2996 323.518 27.6006 323.535 27.9606Z" fill="#1D1E1C"/>
<path d="M308.035 15.8038L125.198 195.093" stroke="white" stroke-miterlimit="10"/>
<path d="M156.808 23.2041L182.465 31.7611L184.364 28.4209C185.051 27.2111 185.542 26.4676 185.826 26.1843C186.11 25.901 186.448 25.7594 186.832 25.7594C187.217 25.7594 187.531 25.8892 187.779 26.1548C188.028 26.4203 188.152 26.7154 188.152 27.0518C188.152 27.5888 187.685 28.6452 186.744 30.2149L174.344 51.1942L184.193 50.5451C187.152 50.4329 190.591 50.846 194.514 51.7902C198.438 52.7345 201.812 54.198 204.641 56.1868C207.464 58.1696 209.683 60.5183 211.299 63.2212C212.909 65.924 213.714 68.9042 213.714 72.1558C213.714 78.128 211.204 83.9998 206.186 89.7654C201.167 95.531 192.23 101.609 179.387 108.001C174.871 106.336 169.616 104.584 163.632 102.742C152.955 107.611 144.184 110.042 137.325 110.042C132.43 110.042 128.666 108.974 126.033 106.838C123.399 104.702 122.079 102.235 122.079 99.4377C122.079 96.4517 123.671 93.7193 126.855 91.2408C130.039 88.7622 134.762 87.5288 141.018 87.5288C143.48 87.5288 146.534 87.8298 150.168 88.4317L154.802 80.2997L146.481 80.9429C144.51 80.9783 141.852 80.7069 138.514 80.1226C135.177 79.5384 132.436 78.5824 130.294 77.2605C128.151 75.9386 126.547 74.3098 125.488 72.3801C124.429 70.4503 123.896 68.4321 123.896 66.3135C123.896 62.9497 125.092 59.9636 127.477 57.3493C128.992 55.6851 131.495 54.1921 134.987 52.8702L134.928 52.1915C134.928 48.6743 136.496 44.6378 139.627 40.082C142.758 35.5261 148.481 29.9021 156.796 23.21L156.808 23.2041ZM159.673 101.415C150.239 98.2634 142.503 96.6995 136.473 96.7113C133.36 96.7113 130.898 97.39 129.075 98.7532C127.82 99.662 127.199 100.777 127.199 102.099C127.199 103.498 127.826 104.613 129.075 105.445C131.045 106.809 133.91 107.487 137.662 107.487C143.427 107.487 150.76 105.463 159.667 101.415H159.673ZM165.384 61.7399C160.448 62.4422 155.666 62.7963 151.038 62.7963C145.883 62.7963 142.219 62.1943 140.059 60.9786C137.899 59.7689 136.283 57.8804 135.224 55.3075C132.495 57.0483 131.128 59.2023 131.128 61.7753C131.128 64.1182 132.188 66.0479 134.312 67.5587C137.118 69.5238 141.918 70.5093 148.706 70.5093C151.896 70.5093 155.956 70.2202 160.88 69.6477L165.384 61.7399ZM177.298 40.8255C171.356 37.8808 166.722 35.9097 163.39 34.9124C160.057 33.9151 157.128 33.4134 154.589 33.4134C151.032 33.4134 148.138 34.4167 145.907 36.4172C143.675 38.4237 142.557 40.7665 142.557 43.4516C142.557 46.1368 143.516 48.273 145.427 49.9726C147.339 51.6722 150.233 52.522 154.104 52.522C156.648 52.522 162.372 52.1443 171.273 51.389L177.292 40.8196L177.298 40.8255ZM152.76 88.9333C156.335 89.7182 159.253 90.4441 161.513 91.1109C163.768 91.7778 167.787 93.1115 173.569 95.1062C182.749 90.9339 187.329 86.9033 187.324 82.9966C187.324 81.7868 186.785 80.6833 185.72 79.7036C184.648 78.7181 183.287 78.2283 181.63 78.2283C179.6 78.2283 177.102 78.4053 174.131 78.7535C165.863 79.6328 160.43 80.0695 157.838 80.0695L152.766 88.9392L152.76 88.9333ZM163.916 69.4294C172.966 68.5383 179.257 68.0898 182.778 68.0898C187.596 68.0898 191.271 69.1815 193.81 71.3591C196.349 73.5367 197.622 76.1392 197.622 79.1666C197.622 81.8163 196.379 84.3952 193.899 86.8915C191.413 89.3877 186.081 92.5037 177.896 96.2392L189.466 99.2784C194.443 96.2156 198.279 92.9049 200.971 89.3464C203.67 85.7938 205.02 81.8753 205.02 77.6028C205.02 74.8055 204.173 72.0496 202.481 69.3468C200.788 66.6439 198.19 64.4841 194.692 62.8789C191.194 61.2737 187.158 60.4652 182.595 60.4652C178.902 60.4652 174.191 60.8134 168.444 61.5098L163.916 69.4235V69.4294Z" fill="white"/>
<path d="M237.192 120.901L238.583 122.488C232.931 126.307 228.723 130.39 225.953 134.74C222.39 140.334 220.609 146.424 220.609 153.004C220.609 160.983 223.242 168.354 228.515 175.123C230.788 173.27 232.155 171.712 232.611 170.443C233.067 169.174 233.292 165.704 233.292 160.033V134.622L257.664 114.374C263.339 116.605 267.802 118.051 271.057 118.712C274.312 119.373 278.129 119.703 282.521 119.703H283.829L284.77 121.774L275.383 130.709C269.086 130.03 261.972 127.723 254.053 123.787L254.622 188.56L256.776 188.619C262.221 188.619 267.186 187.687 271.667 185.828C276.147 183.969 280.787 180.947 285.593 176.763L287.327 178.433C283.799 183.278 280.337 187.049 276.946 189.734C273.549 192.425 269.465 194.573 264.689 196.179C259.913 197.79 255.172 198.592 250.467 198.592C243.489 198.592 236.92 196.91 230.759 193.547C224.598 190.183 219.768 185.361 216.282 179.082C212.79 172.803 211.05 166.341 211.05 159.685C211.05 151.482 213.512 143.881 218.436 136.882C222.301 131.399 228.551 126.071 237.186 120.889L237.192 120.901ZM251.437 123.397L244.785 129.145V155.034C244.785 158.251 244.614 160.393 244.27 161.449C243.892 162.848 243.016 164.347 241.648 165.934C238.873 169.15 234.99 172.821 230.007 176.946C233.049 180.31 236.304 182.889 239.784 184.683C243.258 186.477 247.336 187.675 252.012 188.283L251.443 123.391L251.437 123.397Z" fill="white"/>
</g>
<defs>
<clipPath id="clip0_73_1943">
<rect width="423" height="254" fill="white"/>
</clipPath>
</defs>
</svg>
