<svg width="434" height="159" viewBox="0 0 434 159" fill="none" xmlns="http://www.w3.org/2000/svg">
<g clip-path="url(#clip0_73_2016)">
<path d="M29.7719 0L51.7752 7.3354L53.4012 4.47205C53.993 3.43478 54.4104 2.79503 54.6534 2.5528C54.8963 2.31056 55.1891 2.18634 55.5131 2.18634C55.837 2.18634 56.1111 2.29814 56.3292 2.52174C56.541 2.74534 56.6469 3 56.6469 3.29193C56.6469 3.75155 56.242 4.65838 55.4383 6L44.8042 23.9876L53.2517 23.4286C55.7872 23.3292 58.7338 23.6894 62.1041 24.4969C65.4682 25.3043 68.365 26.5652 70.7821 28.2671C73.2055 29.9689 75.1056 31.9752 76.4886 34.2981C77.8716 36.6149 78.5631 39.1677 78.5631 41.9565C78.5631 47.0807 76.4076 52.1118 72.1091 57.0559C67.7981 62 60.148 67.2112 49.1338 72.6894C45.259 71.2609 40.7549 69.7578 35.6278 68.1801C26.4763 72.354 18.9571 74.441 13.07 74.441C8.87736 74.441 5.65036 73.5279 3.38897 71.6956C1.12758 69.8634 0 67.7516 0 65.354C0 62.795 1.36431 60.4534 4.09916 58.3292C6.82778 56.205 10.8771 55.1429 16.2409 55.1429C18.3528 55.1429 20.9693 55.4037 24.0841 55.9193L28.0587 48.9503L20.9194 49.5031C19.2312 49.5342 16.9511 49.2981 14.0916 48.8012C11.2322 48.2981 8.88359 47.4783 7.04582 46.3416C5.20805 45.205 3.83751 43.8137 2.92797 42.1615C2.01843 40.5093 1.56366 38.7764 1.56366 36.9565C1.56366 34.0683 2.58534 31.5093 4.63492 29.2733C5.93693 27.8447 8.07995 26.5652 11.0702 25.4348L11.0204 24.8509C11.0204 21.8385 12.3598 18.3727 15.051 14.472C17.736 10.5652 22.6451 5.74534 29.7719 0.00621118V0ZM32.2326 67.0497C24.1464 64.3478 17.5118 63.0062 12.3411 63.0186C9.67476 63.0186 7.55666 63.6025 5.99923 64.7702C4.92771 65.5466 4.39196 66.5031 4.39196 67.6398C4.39196 68.8385 4.92771 69.795 5.99923 70.5093C7.68748 71.677 10.142 72.2609 13.3628 72.2609C18.3029 72.2609 24.595 70.5279 32.2326 67.0559V67.0497ZM37.1229 33.0311C32.8929 33.6335 28.7876 33.9379 24.8192 33.9379C20.3961 33.9379 17.2626 33.4224 15.4061 32.3789C13.5497 31.3354 12.1729 29.7205 11.2633 27.5155C8.92097 29.0062 7.74978 30.8509 7.74978 33.0559C7.74978 35.0683 8.65932 36.7205 10.4784 38.0124C12.8831 39.6957 16.9947 40.5404 22.8195 40.5404C25.5543 40.5404 29.0367 40.2981 33.2605 39.8012L37.1229 33.0248V33.0311ZM47.3397 15.1118C42.2438 12.5901 38.2692 10.9006 35.416 10.0373C32.5628 9.18012 30.046 8.75155 27.8718 8.75155C24.8192 8.75155 22.3398 9.6087 20.4273 11.3292C18.5147 13.0497 17.5554 15.0559 17.5554 17.3602C17.5554 19.6646 18.3777 21.4907 20.0161 22.9503C21.6608 24.4099 24.1402 25.1366 27.4544 25.1366C29.6348 25.1366 34.5438 24.8137 42.1752 24.1677L47.3397 15.1118ZM26.3019 56.3478C29.3669 57.0186 31.8713 57.6398 33.8087 58.2112C35.7399 58.7826 39.185 59.9255 44.1438 61.6398C52.012 58.0621 55.9429 54.6025 55.9367 51.2609C55.9367 50.2236 55.4757 49.2795 54.5599 48.4348C53.6379 47.5901 52.473 47.1677 51.0526 47.1677C49.3145 47.1677 47.1652 47.3168 44.6235 47.6149C37.5341 48.3665 32.8743 48.7453 30.6502 48.7453L26.3019 56.3478ZM35.8708 39.6273C43.633 38.8634 49.0217 38.4783 52.0369 38.4783C56.1672 38.4783 59.3194 39.4099 61.4998 41.2795C63.6802 43.1491 64.7704 45.3789 64.7704 47.9752C64.7704 50.2484 63.6989 52.4534 61.5746 54.5963C59.444 56.7391 54.8714 59.4099 47.8567 62.6087L57.7745 65.2174C62.0418 62.5901 65.3249 59.7516 67.6424 56.7081C69.9536 53.6584 71.1061 50.3043 71.1061 46.6397C71.1061 44.2422 70.3834 41.882 68.9319 39.559C67.4804 37.236 65.2564 35.3913 62.2599 34.0124C59.2571 32.6335 55.7996 31.9441 51.8936 31.9441C48.7289 31.9441 44.6858 32.2422 39.7581 32.8385L35.877 39.6273H35.8708Z" fill="#9B191F"/>
<path d="M95.3647 20.8571L104.024 28.0311L100.168 31.7516V58.205C100.168 60.9938 100.398 62.8075 100.872 63.6522C101.345 64.4969 101.825 64.9193 102.323 64.9193C102.678 64.9193 102.996 64.8385 103.289 64.677C103.7 64.4534 104.554 63.8012 105.843 62.7329L107.033 64.2422L96.5733 72.7019C93.963 70.8571 92.281 69.1118 91.5334 67.4783C90.7797 65.8385 90.4059 62.9814 90.4059 58.8944V31.764L86.749 28.0435L95.3585 20.8696L95.3647 20.8571ZM99.0465 4.22981H105.245L98.517 14.7329H96.5671L99.0527 4.22981H99.0465Z" fill="#9B191F"/>
<path d="M133.671 3.01242L134.014 4.2795C131.509 5.77018 129.858 7.22981 129.061 8.67081C128.264 10.1118 127.865 12.4658 127.865 15.7329V32.8199L143.352 20.8571C146.236 22.8323 148.18 24.7702 149.183 26.6646C150.186 28.5652 150.691 31.1615 150.691 34.472V63.7888C146.71 65.3478 143.414 66.882 140.792 68.4099C138.786 69.6087 136.879 71.0373 135.067 72.6894C132.294 70.4224 129.541 68.6708 126.787 67.441C124.034 66.2112 119.959 64.9938 114.558 63.795V62.9193C115.96 61.9441 116.838 60.8075 117.193 59.5155C117.742 57.6025 118.022 53.1739 118.022 46.2298V18.0497C118.022 14.3851 117.642 11.7329 116.901 10.0932C116.159 8.45341 114.739 6.91925 112.658 5.49689L113.543 4.2795C116.022 5.34782 117.717 6.1677 118.626 6.73292C119.542 7.30435 120.42 8.03726 121.268 8.9441C124.619 6.54658 126.999 5.03105 128.401 4.39751C129.802 3.77018 131.565 3.30435 133.684 3.01242H133.671ZM127.871 59.323L140.605 64.3292V36.9627C140.605 34.4348 140.374 32.6894 139.907 31.7391C139.44 30.7888 138.318 29.7081 136.555 28.5093L127.877 35.1491V59.323H127.871Z" fill="#9B191F"/>
<path d="M172.009 43.9068H188.935V50.1801H172.009V43.9068Z" fill="#9B191F"/>
<path d="M223.292 6.08074L224.482 7.44099C219.641 10.7143 216.028 14.2174 213.661 17.9441C210.602 22.7391 209.07 27.9627 209.07 33.6025C209.07 40.441 211.331 46.764 215.848 52.5652C217.798 50.9751 218.969 49.6397 219.361 48.5528C219.754 47.4658 219.947 44.4969 219.947 39.6335V17.8447L240.847 0.484467C245.713 2.39751 249.538 3.63353 252.329 4.20496C255.12 4.77639 258.39 5.0559 262.159 5.0559H263.281L264.084 6.83229L256.042 14.4907C250.641 13.9068 244.548 11.9317 237.751 8.559L238.243 64.087L240.087 64.1366C244.754 64.1366 249.015 63.3416 252.858 61.7453C256.702 60.1491 260.677 57.559 264.795 53.9752L266.283 55.4099C263.262 59.5652 260.29 62.795 257.381 65.0994C254.472 67.4037 250.971 69.2422 246.872 70.6273C242.772 72.0124 238.711 72.6956 234.68 72.6956C228.693 72.6956 223.062 71.2547 217.779 68.3665C212.496 65.4783 208.359 61.3478 205.369 55.9689C202.379 50.5901 200.884 45.0435 200.884 39.3416C200.884 32.3106 202.996 25.795 207.219 19.795C210.534 15.0932 215.891 10.5279 223.298 6.08074H223.292ZM235.509 8.21739L229.802 13.1491V35.3416C229.802 38.0994 229.653 39.9317 229.36 40.8447C229.036 42.0435 228.282 43.3292 227.111 44.6894C224.725 47.4472 221.405 50.5963 217.131 54.1304C219.741 57.0124 222.532 59.2236 225.516 60.7578C228.5 62.2981 231.989 63.323 235.995 63.8447L235.509 8.21739Z" fill="#9B191F"/>
<path d="M306.658 27.9565V64.3292C301.774 66.3043 298.242 67.9255 296.062 69.1925C294.398 70.1304 292.803 71.2981 291.271 72.6957C286.549 69.8447 282.643 67.8634 279.553 66.764C277.21 65.9193 274.55 65.4348 271.591 65.3044L271.105 64.3292C272.339 63.2919 273.117 62.354 273.448 61.5093C273.902 60.4099 274.133 58.5404 274.133 55.9193V29.2236C280.088 27.2485 285.191 24.4596 289.421 20.8634C294.043 23.9068 299.787 26.2795 306.658 27.9627V27.9565ZM283.982 59.6149L296.709 64.8199V33.9441C292.716 32.0745 289.882 30.8509 288.231 30.2609C287.06 29.8385 285.645 29.4721 283.988 29.1801V59.6211L283.982 59.6149Z" fill="#9B191F"/>
<path d="M325.31 20.8571L333.969 28.0311L330.113 31.7516V58.205C330.113 60.9938 330.344 62.8075 330.817 63.6522C331.291 64.4969 331.77 64.9193 332.269 64.9193C332.624 64.9193 332.941 64.8385 333.234 64.677C333.645 64.4534 334.499 63.8012 335.788 62.7329L336.978 64.2422L326.519 72.7019C323.908 70.8571 322.226 69.1118 321.479 67.4783C320.725 65.8385 320.351 62.9814 320.351 58.8944V31.764L316.694 28.0435L325.304 20.8696L325.31 20.8571ZM328.992 4.22981H335.19L328.462 14.7329H326.512L328.998 4.22981H328.992Z" fill="#9B191F"/>
<path d="M374.618 20.8571L381.278 28.1491L386.031 23.5776L387.42 24.8882C385.121 26.9689 383.726 28.5466 383.234 29.6211C382.573 31.0497 382.25 33.0186 382.25 35.528V58.7081C382.25 60.8571 382.592 62.4472 383.277 63.4907C383.695 64.1739 384.175 64.5155 384.698 64.5155C385.153 64.5155 386.23 63.882 387.931 62.6211L389.127 64.1304L378.667 72.6894C375.958 70.6646 374.219 68.8696 373.453 67.3044C372.687 65.7453 372.307 63.2236 372.307 59.7453V33.1367L367.996 28.5963L359.673 35.2547V62.2298L363.33 65.7081L354.72 72.6832L346.067 65.7081L349.724 62.2298V37.4224C349.724 33.8944 349.363 31.5155 348.64 30.2857C348.154 29.4472 347.6 29.0248 346.977 29.0248C346.323 29.0248 345.345 29.6584 344.036 30.9193L342.84 29.4099L353.207 20.8509C356.078 22.9814 357.873 24.6646 358.589 25.9006C359.312 27.1367 359.673 28.8571 359.673 31.0559V32.8075L374.618 20.8447V20.8571Z" fill="#9B191F"/>
<path d="M420.332 38.8944L431.658 44.7826V65.2547C428.917 65.5155 426.443 66.1801 424.232 67.2484C422.014 68.3168 419.51 70.1367 416.706 72.6957C414.295 71.2671 412.208 70.2795 410.433 69.7267C408.657 69.1739 406.782 68.9006 404.795 68.9006C401.736 68.9006 399.02 69.8261 396.64 71.6708C395.762 72.354 395.126 72.6894 394.734 72.6894C394.379 72.6894 394.018 72.5093 393.662 72.1553C393.307 71.8012 393.127 71.441 393.127 71.087C393.127 70.6956 393.469 70.1801 394.155 69.528C394.541 69.1366 395.214 68.3913 396.154 67.2919L400.59 61.795L406.869 53.472L396.204 47.7453V29.6087C399.556 28.5714 402.191 27.4099 404.097 26.1304C406.004 24.8509 407.835 23.0932 409.592 20.8509C413.753 22.6025 417.105 23.8323 419.64 24.5466C421.459 25.0311 423.198 25.2733 424.855 25.2733C426.68 25.2733 428.1 24.8758 429.116 24.0807C430.131 23.2857 430.636 22.4534 430.636 21.5776C430.636 20.9938 430.312 20.4099 429.658 19.8261C428.387 18.6894 427.758 17.5901 427.758 16.5217C427.758 15.5155 428.032 14.7143 428.586 14.1118C429.135 13.5155 429.757 13.2112 430.437 13.2112C431.346 13.2112 432.168 13.6211 432.904 14.4534C433.632 15.2795 434 16.3727 434 17.7329C434 19.0932 433.701 20.4845 433.115 21.8199C432.523 23.1491 431.396 24.8634 429.733 26.9752L420.326 38.882L420.332 38.8944ZM414.445 46.6832L402.683 62.3851C404.116 61.9006 405.449 61.5404 406.689 61.3168C407.922 61.0932 409.044 60.9752 410.053 60.9752C413.791 60.9752 417.678 62.205 421.709 64.6708V50.5714L414.445 46.6832ZM406.053 42.2484L412.732 45.7019L423.366 31.5963C421.185 32.2174 419.304 32.528 417.709 32.528C413.71 32.528 409.829 31.1988 406.053 28.5404V42.2484Z" fill="#9B191F"/>
<path d="M138.499 93.5652L127.815 103.832C132.039 108.503 136.263 113.149 140.468 117.82H136.549C132.718 113.509 128.849 109.18 125.012 104.851V117.82H121.978V93.5652H125.012V102.901L134.494 93.5652H138.499Z" fill="#1E1E1C"/>
<path d="M152.616 117.814C145.576 117.814 140.281 112.553 140.281 105.671C140.281 98.7888 145.576 93.5466 152.616 93.5466C159.655 93.5466 164.95 98.8261 164.95 105.671C164.95 112.516 159.674 117.814 152.616 117.814ZM152.616 96.4037C147.221 96.4037 143.352 100.398 143.352 105.671C143.352 110.944 147.221 114.957 152.616 114.957C158.011 114.957 161.879 110.963 161.879 105.671C161.879 100.379 158.011 96.4037 152.616 96.4037Z" fill="#1E1E1C"/>
<path d="M170.252 93.5466L180.924 106.807L191.595 93.5466H193.19V117.814H190.169V99.5466L180.905 111.18L171.679 99.5466V117.814H168.645V93.5466H170.259H170.252Z" fill="#1E1E1C"/>
<path d="M217.629 93.5466V117.814H214.577V96.3851H201.127V117.814H198.093V93.5466H217.635H217.629Z" fill="#1E1E1C"/>
<path d="M238.038 112.845H225.603L223.603 117.82H220.395L230.35 93.5652H233.322L243.246 117.82H240.056L238.038 112.845ZM226.724 110.037H236.916L231.845 97.3043L226.724 110.037Z" fill="#1E1E1C"/>
<path d="M265.536 93.5466V117.814H262.502V105.957H249.052V117.814H246.018V93.5466H249.052V103.137H262.502V93.5466H265.536Z" fill="#1E1E1C"/>
<path d="M287.402 99.2609L272.052 117.814H270.438V93.559H273.46V112.081C278.581 105.907 283.708 99.7329 288.81 93.559H290.423V117.814H287.402V99.2609Z" fill="#1E1E1C"/>
<path d="M309.842 117.814V106.938H303.618L297.052 117.814H293.526L300.31 106.82C299.731 106.72 299.239 106.584 298.802 106.416C297.631 105.975 296.628 105.23 295.887 104.199C295.09 103.099 294.647 101.745 294.647 100.261C294.647 97.5217 296.124 95.3043 298.379 94.2733C299.295 93.8137 300.347 93.5652 302.042 93.5652H312.863V117.82H309.842V117.814ZM309.842 104.149V96.4037H302.36C301.17 96.4037 300.559 96.5217 300.005 96.7578C298.616 97.3478 297.631 98.6211 297.631 100.273C297.631 101.925 298.634 103.217 300.005 103.789C300.565 104.025 301.176 104.143 302.36 104.143H309.842V104.149Z" fill="#1E1E1C"/>
<path d="M27.6974 151.186H31.0365V159H28.0151V154.012H9.24495V159H6.19238V151.186H8.87116C10.4161 148.615 11.2821 145.335 11.7181 141.882C12.2601 137.839 12.2414 133.547 12.2788 129.739H27.6974V151.186ZM15.2504 132.565C15.2504 135.528 15.2006 138.807 14.7583 142.106C14.3346 145.236 13.6369 148.298 12.1293 151.186H24.6635V132.565H15.2504Z" fill="#1E1E1C"/>
<path d="M54.7717 129.758V154.012H51.7503V132.602H42.2998V144.882C42.2998 146.64 42.0942 148.043 41.5523 149.329C40.6178 152.019 38.6181 154.031 35.4596 154.031C34.2572 154.031 33.0861 153.745 31.9834 153.149L33.3913 150.441C34.033 150.814 34.7307 151 35.4596 151C37.1541 151 38.2754 150.056 38.8174 148.161C39.1538 147.248 39.2597 146.217 39.2597 144.727V129.758H54.7655H54.7717Z" fill="#1E1E1C"/>
<path d="M74.196 154.006V143.13H67.9725L61.4064 154.006H57.8804L64.6645 143.012C64.0852 142.913 63.593 142.776 63.1569 142.609C61.9858 142.168 60.9828 141.422 60.2414 140.391C59.444 139.292 59.0017 137.938 59.0017 136.453C59.0017 133.714 60.4782 131.497 62.7333 130.466C63.6491 130.006 64.7019 129.758 66.3964 129.758H77.2174V154.012H74.196V154.006ZM74.196 140.342V132.596H66.7141C65.5242 132.596 64.9137 132.714 64.3593 132.95C62.9701 133.54 61.9858 134.814 61.9858 136.466C61.9858 138.118 62.9887 139.41 64.3593 139.981C64.92 140.217 65.5305 140.335 66.7141 140.335H74.196V140.342Z" fill="#1E1E1C"/>
<path d="M117.567 129.758L106.883 140.025C111.107 144.696 115.331 149.342 119.536 154.012H115.617C111.786 149.702 107.917 145.373 104.08 141.043V154.012H101.046V129.758H104.08V139.093L113.561 129.758H117.567Z" fill="#1E1E1C"/>
<path d="M131.684 154.006C124.644 154.006 119.349 148.745 119.349 141.863C119.349 134.981 124.644 129.739 131.684 129.739C138.724 129.739 144.019 135.019 144.019 141.863C144.019 148.708 138.742 154.006 131.684 154.006ZM131.684 132.596C126.289 132.596 122.42 136.59 122.42 141.863C122.42 147.137 126.289 151.149 131.684 151.149C137.079 151.149 140.948 147.155 140.948 141.863C140.948 136.571 137.079 132.596 131.684 132.596Z" fill="#1E1E1C"/>
<path d="M166.726 129.758V154.012H163.705V132.602H154.254V144.882C154.254 146.64 154.049 148.043 153.507 149.329C152.572 152.019 150.573 154.031 147.414 154.031C146.212 154.031 145.041 153.745 143.938 153.149L145.346 150.441C145.988 150.814 146.685 151 147.414 151C149.109 151 150.23 150.056 150.772 148.161C151.108 147.248 151.214 146.217 151.214 144.727V129.758H166.72H166.726Z" fill="#1E1E1C"/>
<path d="M192.1 129.758V154.012H189.078V132.602H179.628V144.882C179.628 146.64 179.422 148.043 178.88 149.329C177.946 152.019 175.946 154.031 172.788 154.031C171.585 154.031 170.414 153.745 169.312 153.149L170.719 150.441C171.361 150.814 172.059 151 172.788 151C174.482 151 175.604 150.056 176.146 148.161C176.482 147.248 176.588 146.217 176.588 144.727V129.758H192.094H192.1Z" fill="#1E1E1C"/>
<path d="M213.1 129.739V132.565H200.024V139.298H210.322V142.087H200.024V151.205H213.1V154.012H197.002V129.745H213.1V129.739Z" fill="#1E1E1C"/>
<path d="M233.577 129.758L222.893 140.025C227.117 144.696 231.341 149.342 235.546 154.012H231.627C227.796 149.702 223.928 145.373 220.09 141.043V154.012H217.056V129.758H220.09V139.093L229.572 129.758H233.577Z" fill="#1E1E1C"/>
<path d="M257.562 129.758V151.186H260.988V159H257.954V154.012H238.393V129.758H241.427V151.186H254.522V129.758H257.555H257.562Z" fill="#1E1E1C"/>
<path d="M281.21 135.453L265.86 154.006H264.246V129.752H267.268V148.273C272.389 142.099 277.516 135.925 282.618 129.752H284.231V154.006H281.21V135.453Z" fill="#1E1E1C"/>
<path d="M300.273 154.006C293.233 154.006 287.938 148.745 287.938 141.863C287.938 134.981 293.233 129.739 300.273 129.739C307.312 129.739 312.608 135.019 312.608 141.863C312.608 148.708 307.331 154.006 300.273 154.006ZM300.273 132.596C294.878 132.596 291.009 136.59 291.009 141.863C291.009 147.137 294.878 151.149 300.273 151.149C305.668 151.149 309.536 147.155 309.536 141.863C309.536 136.571 305.668 132.596 300.273 132.596Z" fill="#1E1E1C"/>
<path d="M335.832 129.739V154.006H332.798V142.149H319.348V154.006H316.314V129.739H319.348V139.329H332.798V129.739H335.832Z" fill="#1E1E1C"/>
<path d="M356.832 129.739V132.565H343.756V139.298H354.054V142.087H343.756V151.205H356.832V154.012H340.735V129.745H356.832V129.739Z" fill="#1E1E1C"/>
<path d="M360.782 154.006V129.752H371.622C373.304 129.752 374.35 130.006 375.266 130.447C377.54 131.497 379.016 133.714 379.016 136.453C379.016 139.193 377.54 141.373 375.254 142.441C374.357 142.882 373.304 143.137 371.622 143.137H363.803V154.012H360.782V154.006ZM371.298 140.342C372.469 140.342 373.079 140.205 373.64 139.988C375.029 139.398 376.014 138.143 376.014 136.472C376.014 134.801 375.029 133.528 373.64 132.957C373.098 132.72 372.469 132.602 371.285 132.602H363.803V140.348H371.304L371.298 140.342Z" fill="#1E1E1C"/>
<path d="M393.675 154.006C386.635 154.006 381.34 148.745 381.34 141.863C381.34 134.981 386.635 129.739 393.675 129.739C400.715 129.739 406.01 135.019 406.01 141.863C406.01 148.708 400.733 154.006 393.675 154.006ZM393.675 132.596C388.28 132.596 384.411 136.59 384.411 141.863C384.411 147.137 388.28 151.149 393.675 151.149C399.07 151.149 402.939 147.155 402.939 141.863C402.939 136.571 399.07 132.596 393.675 132.596Z" fill="#1E1E1C"/>
<path d="M409.704 129.758H418.999C420.612 129.758 421.597 129.975 422.456 130.366C424.73 131.379 426.207 133.565 426.207 136.255C426.207 138.118 425.378 139.739 423.952 140.82C426.493 141.82 428.206 144.137 428.206 146.994C428.206 149.851 426.58 152.286 424.12 153.354C423.204 153.776 422.17 154.012 420.457 154.012H409.704V129.758ZM418.712 139.919C419.834 139.919 420.425 139.801 420.967 139.584C422.326 139.025 423.272 137.807 423.272 136.199C423.272 134.59 422.326 133.41 420.967 132.832C420.444 132.596 419.846 132.497 418.694 132.497H412.738V139.919H418.706H418.712ZM420.014 151.217C421.285 151.217 421.946 151.081 422.544 150.845C424.107 150.217 425.204 148.801 425.204 146.907C425.204 145.012 424.101 143.609 422.544 142.969C421.952 142.733 421.291 142.615 420.014 142.615H412.738V151.224H420.014V151.217Z" fill="#1E1E1C"/>
</g>
<defs>
<clipPath id="clip0_73_2016">
<rect width="434" height="159" fill="white"/>
</clipPath>
</defs>
</svg>
