<svg width="21" height="21" viewBox="0 0 21 21" fill="none" xmlns="http://www.w3.org/2000/svg">
<g clip-path="url(#clip0_73_2179)">
<mask id="mask0_73_2179" style="mask-type:luminance" maskUnits="userSpaceOnUse" x="0" y="0" width="21" height="21">
<path d="M20.9778 0.0220947H0V21H20.9778V0.0220947Z" fill="white"/>
</mask>
<g mask="url(#mask0_73_2179)">
<path d="M10.4978 0C4.69871 0 0 4.67992 0 10.4558C0 16.2317 4.69871 20.9116 10.4978 20.9116C16.2969 20.9116 20.9956 16.2273 20.9956 10.4558C20.9956 4.68434 16.2969 0 10.4978 0ZM10.4978 3.67235L16.7095 7.5303H4.28608L10.4978 3.67235ZM16.7894 13.6951C16.7894 14.3138 16.2835 14.8175 15.6624 14.8175H5.33319C4.71202 14.8175 4.20621 14.3138 4.20621 13.6951V7.77778C4.20621 7.71149 4.21509 7.64962 4.22396 7.58775L10.1606 11.2734C10.1606 11.2734 10.1739 11.2822 10.1828 11.2866C10.1916 11.2866 10.2005 11.2955 10.2049 11.2999C10.2449 11.322 10.2892 11.3396 10.3336 11.3485C10.3381 11.3485 10.3425 11.3485 10.3469 11.3485C10.3957 11.3617 10.4445 11.3662 10.4933 11.3662C10.5422 11.3662 10.591 11.3573 10.6398 11.3485C10.6398 11.3485 10.6486 11.3485 10.6531 11.3485C10.6974 11.3352 10.7418 11.322 10.7817 11.2999C10.7906 11.2999 10.7995 11.291 10.8039 11.2866C10.8128 11.2866 10.8172 11.2778 10.8261 11.2734L16.7627 7.58775C16.7716 7.64962 16.7805 7.71591 16.7805 7.77778V13.6951H16.7894Z" fill="white"/>
</g>
</g>
<defs>
<clipPath id="clip0_73_2179">
<rect width="21" height="21" fill="white"/>
</clipPath>
</defs>
</svg>
