<svg width="291" height="187" viewBox="0 0 291 187" fill="none" xmlns="http://www.w3.org/2000/svg">
<g clip-path="url(#clip0_73_2095)">
<path d="M280.417 161.252C278.21 160.838 275.989 160.852 273.747 161.138C267.934 161.901 263.392 166.432 262.585 172.374C261.864 177.704 265.156 183.333 270.276 185.452C272.19 186.244 274.218 186.515 275.732 186.615C283.173 186.658 288.501 182.905 290.136 176.805C291.821 170.577 289.486 162.971 280.41 161.259M278.681 184.296C275.361 184.717 272.504 183.212 270.647 180.979C268.984 179.031 268.112 176.948 268.005 174.379C267.955 173.245 267.941 172.082 268.005 170.94C268.205 167.216 270.476 163.906 273.168 163.107C277.325 162.008 280.76 163.235 283.487 166.845C286.537 171.311 287.679 183.062 278.681 184.303M258.329 185.074C258.822 183.775 258.993 182.933 259.171 180.279C259.171 180.115 259.114 179.98 259.036 179.887H258.607C258.543 179.951 258.472 180.044 258.422 180.172C257.957 181.264 257.536 183.155 254.815 183.861C250.409 184.995 246.481 183.989 243.382 180.629C240.34 176.869 240.083 172.182 241.84 167.623C242.661 165.497 245.01 163.592 247.296 163.1C249.952 162.543 251.902 162.315 254.501 163.549C256.101 164.113 257.965 165.775 258.05 167.773C258.05 167.801 258.065 167.83 258.079 167.866H258.843C258.864 167.801 258.872 167.744 258.872 167.666C258.843 165.604 258.793 164.484 258.872 162.629C258.886 162.372 259 162.001 258.543 161.751C254.073 160.753 249.838 160.738 245.489 161.537C239.783 162.579 235.977 166.838 235.591 172.125C235.112 178.738 239.076 183.376 244.16 185.416C247.26 186.322 250.302 186.472 255.037 186.208C256.129 186.037 257.608 185.787 258.336 185.074M232.57 185.916V185.174C229.214 185.138 229.571 182.142 229.564 181.407C229.549 175.656 229.542 170.898 229.578 164.783C229.542 162.943 230.899 162.137 232.577 162.137V161.395C230.628 161.423 228.857 161.445 227.271 161.445C225.686 161.445 223.922 161.43 221.987 161.395V162.137C223.644 162.151 224.993 162.957 224.958 164.783C224.986 170.898 224.979 175.656 224.972 181.407C224.972 182.142 225.322 185.117 221.987 185.174V185.908C224.272 185.801 225.8 185.787 227.271 185.794C228.735 185.794 230.271 185.809 232.577 185.916M218.152 165.982C218.438 166.011 218.837 166.011 218.837 166.011C218.837 166.011 218.552 164.056 218.223 161.173C218.188 160.845 217.495 160.845 217.288 161.045C216.845 161.437 214.61 161.487 214.089 161.487C210.625 161.509 208.854 161.537 207.004 161.544C205.141 161.544 203.369 161.509 199.906 161.487C199.378 161.487 197.142 161.437 196.707 161.045C196.485 160.845 195.8 160.845 195.764 161.173C195.436 164.049 195.143 166.011 195.143 166.011C195.143 166.011 195.543 166.011 195.843 165.982C196.392 164.163 197.592 163.692 198.749 163.528C199.542 163.392 200.891 163.378 203.905 163.328C204.455 163.314 204.726 163.778 204.726 164.241C204.726 170.241 204.791 176.348 204.776 182.348C204.776 183.668 204.534 185.259 201.677 185.195V185.937C203.819 185.894 205.519 185.88 207.012 185.88C208.504 185.88 210.182 185.894 212.332 185.937V185.195C209.475 185.266 209.225 183.668 209.225 182.348C209.204 176.341 209.275 170.241 209.275 164.241C209.275 163.785 209.547 163.314 210.104 163.328C213.11 163.378 214.474 163.399 215.253 163.528C216.417 163.692 217.602 164.163 218.159 165.982M198.135 134.976C199.813 128.805 197.478 121.278 188.394 119.587C186.195 119.166 183.967 119.18 181.739 119.466C175.904 120.222 171.355 124.71 170.562 130.61C169.841 135.889 173.133 141.461 178.261 143.559C180.175 144.351 182.196 144.622 183.724 144.707C191.172 144.75 196.492 141.04 198.142 134.983M186.659 142.417C183.345 142.838 180.475 141.354 178.618 139.135C176.947 137.195 176.083 135.14 175.968 132.593C175.926 131.452 175.911 130.31 175.968 129.183C176.168 125.494 178.439 122.205 181.139 121.413C185.309 120.329 188.73 121.549 191.465 125.123C194.521 129.539 195.664 141.19 186.659 142.424M169.084 185.216V185.973C173.555 185.894 177.668 185.944 177.811 185.944V185.195C177.625 185.216 176.404 185.359 175.954 184.96C175.454 184.532 175.761 183.376 175.761 183.376C175.761 183.376 177.004 180.365 177.961 177.961C178.161 177.633 178.196 177.518 178.475 177.518C180.939 177.518 183.074 177.518 185.559 177.518C186.016 177.518 186.03 177.711 186.116 177.932C187.13 180.429 187.873 182.27 188.587 183.989C188.744 184.346 189.187 185.031 188.323 185.195V185.93C189.487 185.916 192.179 185.78 196.949 185.966V185.195C194.836 185.145 194.164 184.831 192.779 182.113C192.579 181.721 191.822 180.087 191.594 179.63C189.158 173.937 186.252 167.145 183.795 161.452C183.538 160.974 183.36 160.695 183.031 160.653C182.545 160.667 182.274 161.038 182.138 161.366C179.503 167.88 175.89 175.442 173.176 181.927C172.398 183.79 171.955 185.159 169.077 185.224M178.753 175.956C178.753 175.956 180.896 170.341 181.817 168.044C181.931 167.723 182.203 167.73 182.367 168.179C183.552 171.461 185.131 175.963 185.131 175.963H178.753V175.956ZM167.799 185.901V185.195C164.028 185.302 164.021 182.199 163.957 181.756C163.435 178.253 161.936 168.322 161.057 162.08C160.957 161.445 160.986 160.802 160.215 160.581C159.265 160.717 159.336 161.088 159.008 161.744C156.83 166.168 154.195 171.404 152.024 175.813C151.452 176.983 151.21 177.411 150.503 178.795C150.388 179.031 150.231 179.502 150.067 179.059C147.568 174.094 143.861 166.51 141.355 161.544C140.998 160.845 140.99 160.61 140.298 160.588C139.669 160.667 139.505 161.252 139.412 161.887C138.527 167.559 137.405 174.75 136.534 180.95C136.163 183.561 136.62 185.138 133.428 185.152V185.894C136.841 185.794 138.112 185.88 141.383 185.908V185.73C141.383 185.495 141.369 185.309 141.383 185.145C140.698 185.145 138.748 185.438 139.105 183.354C139.498 178.86 139.919 175.635 140.569 170.605C140.633 170.027 140.969 170.291 141.026 170.527C142.362 173.088 146.939 182.455 148.589 185.516C148.967 186.144 149.574 186.087 149.874 185.68C151.931 181.635 155.402 174.593 157.444 170.534C157.708 169.992 157.922 170.113 158.015 170.42C158.851 176.969 159.465 181.157 159.765 184.025C159.829 184.631 159.593 184.91 159.286 185.081V185.901C159.286 185.901 159.322 185.93 159.343 185.937C162.85 185.787 163.693 185.787 167.813 185.901M166.156 140.091C167.649 137.002 166.892 133.685 163.85 131.523C163.107 130.995 162.778 130.888 161.686 130.403C160.9 130.267 161.029 129.91 161.443 129.689C164.185 128.134 165.156 124.916 164.171 122.776C163.228 120.679 162.429 120.679 161.286 120.136C160.679 119.922 159.336 119.723 159.336 119.723H146.882L146.953 120.272C146.953 120.272 148.232 120.379 148.639 120.472C150.581 120.943 150.31 122.855 150.31 122.855L150.36 141.004C150.36 141.004 150.403 142.032 149.653 142.674C148.903 143.337 148.339 143.273 147.71 143.295V144.029C147.71 144.029 147.725 144.058 147.725 144.079C150.667 144.108 154.245 144.051 157.187 144.079C158.351 144.094 158.779 144.029 160.422 143.787C163.257 143.238 165.078 142.11 166.135 140.091M159.615 128.84C158.772 130.003 156.537 129.996 155.359 130.01C154.53 130.01 154.53 129.404 154.53 129.404L154.516 122.17C154.516 122.17 154.387 121.413 155.494 121.299C156.48 121.185 158.065 121.164 159.765 122.947C161.065 124.667 161.057 127.121 159.608 128.84M161.579 140.32C160.793 142.246 157.637 142.867 155.873 141.875C155.294 141.547 154.552 140.676 154.552 139.535C154.552 138.087 154.559 134.883 154.559 131.922C154.723 131.544 155.044 131.53 155.53 131.509C158.265 131.416 159.729 132.55 160.929 134.084C162.393 135.96 162.5 138.072 161.579 140.32ZM143.925 142.282C144.29 140.748 144.197 138.764 144.197 138.764H143.411C143.411 138.764 143.59 140.013 142.383 141.29C141.405 142.331 140.305 142.196 140.305 142.196L136.213 142.167C136.213 142.167 134.835 141.932 134.113 141.133C133.349 140.312 133.399 139.378 133.399 139.378C133.399 139.378 133.413 123.397 133.413 122.148C133.571 120.315 136.784 120.208 136.784 120.208V120.193V119.723H125.722L125.794 120.293C125.794 120.293 128.693 119.887 128.786 122.12C128.786 122.983 128.786 138.871 128.786 140.612C128.865 142.924 127.579 143.302 126.194 143.295V144.087H142.79C143.161 144.087 143.568 143.794 143.918 142.289M129.879 161.445C127.086 160.688 124.23 160.581 121.416 161.445C118.981 162.201 117.067 163.827 116.517 166.496C115.96 169.25 117.217 171.411 119.309 173.223C120.666 174.401 122.223 175.35 123.773 176.256C124.887 176.912 126.001 177.618 126.651 178.788C127.908 181.007 126.458 183.839 123.994 184.439C122.68 184.767 121.33 184.574 120.031 184.168C118.538 183.554 116.989 182.798 116.746 179.102C116.71 178.638 116.067 179.316 116.003 179.709C116.046 180.672 116.017 183.839 116.046 185.473C116.731 185.901 118.224 186.251 118.66 186.365C120.602 186.757 122.937 186.786 125.515 186.23C126.915 185.916 130.121 184.225 130.793 180.729C131.45 177.625 130.7 174.9 128.272 172.917C127.086 171.946 125.587 171.162 124.223 170.441C123.209 169.899 122.045 169.478 121.252 168.622C119.738 166.967 119.959 164.598 121.852 163.492C124.23 162.101 127.586 162.322 129.193 165.497C129.386 165.896 129.422 166.039 129.486 166.788C129.786 166.788 129.971 166.774 130.257 166.774C130.236 165.747 130.257 163.599 130.214 162.236C130.207 161.923 130.257 161.644 129.886 161.466M123.516 144.072V143.28C121.116 143.23 120.395 142.781 118.831 139.585C118.61 139.128 117.76 137.223 117.524 136.688C114.81 130.046 111.59 122.12 108.862 115.485C108.576 114.921 108.369 114.6 108.012 114.543C107.476 114.557 107.169 114.992 107.026 115.378C104.084 122.969 100.085 131.794 97.0715 139.356C96.2074 141.547 95.7075 143.223 92.4654 143.28V144.079C97.4357 143.994 102.028 144.044 102.206 144.044V143.288C102.049 143.302 100.664 143.38 100.142 142.902C99.5924 142.403 99.928 141.054 99.928 141.054C99.928 141.054 101.263 137.188 102.335 134.391C102.542 134.006 102.72 133.877 103.027 133.877H110.683C111.19 133.877 111.24 134.013 111.425 134.419C112.547 137.33 113.375 139.756 114.182 141.768C114.361 142.217 114.875 143.045 113.789 143.195C113.739 143.509 113.825 143.965 113.825 144.044C115.082 144.015 118.088 143.858 123.523 144.065M110.29 132.079L103.199 132.065C103.199 132.065 105.634 125.865 106.655 123.176C106.784 122.819 107.076 122.819 107.262 123.34C108.583 127.164 110.283 132.079 110.283 132.079M92.901 181.756C92.3797 178.253 90.88 168.322 89.9945 162.08C89.8945 161.445 89.9302 160.802 89.159 160.581C88.2092 160.717 88.2735 161.088 87.945 161.744C85.7669 166.168 83.1317 171.404 80.9537 175.813C80.3824 176.983 80.1467 177.411 79.4254 178.795C79.3254 179.031 79.1612 179.502 78.9898 179.059C76.5046 174.094 72.784 166.51 70.2774 161.544C69.9204 160.845 69.9204 160.61 69.2277 160.588C68.5992 160.667 68.4421 161.252 68.3422 161.887C67.4495 167.559 66.3283 174.75 65.4499 180.95C65.0786 183.576 65.5428 185.166 62.2792 185.152V185.894C65.7499 185.794 67.0139 185.88 70.306 185.908C70.2917 185.58 70.2917 185.338 70.2917 185.145C69.6133 185.145 67.6637 185.438 68.0137 183.354C68.4136 178.86 68.8349 175.635 69.4776 170.605C69.549 170.027 69.8847 170.291 69.9418 170.527C71.2844 173.088 75.8619 182.455 77.5044 185.516C77.8829 186.137 78.4899 186.087 78.7827 185.68C80.8323 181.635 84.3101 174.593 86.3453 170.527C86.6167 169.992 86.8238 170.113 86.9166 170.42C87.7593 176.969 88.3806 181.157 88.6805 184.025C88.7448 184.667 88.4663 184.945 88.1592 185.109V185.809C88.1806 185.887 88.2092 185.923 88.2592 185.937C91.7727 185.787 92.6011 185.787 96.7787 185.901V185.195C92.951 185.331 92.951 182.199 92.8796 181.756M61.4223 162.129V161.366C57.7374 161.366 55.2522 161.437 52.2814 161.366C52.2671 161.509 52.2671 161.83 52.2814 162.115C55.395 161.994 55.3093 164.191 55.3165 164.634C55.3165 169.043 55.3807 173.602 55.3522 177.925C55.2308 179.124 55.1451 184.111 49.125 184.417C45.8828 184.453 43.4191 182.898 42.7478 179.93C42.4693 178.681 42.2336 177.426 42.2408 176.134C42.2551 172.681 42.2408 169.235 42.2408 165.768C42.2408 162.301 43.5976 162.094 44.9116 162.115V161.345C40.3055 161.452 35.7136 161.387 34.7139 161.366V162.129C38.0703 161.873 37.8346 163.606 37.7203 166.517C37.7203 169.963 37.6418 173.68 37.7061 177.14C37.6704 181.264 39.9699 184.51 43.719 185.794C45.6329 186.458 47.561 186.429 49.5535 186.372C54.381 186.244 57.6874 183.44 58.5086 178.667C58.93 175.485 58.7586 172.382 58.7943 169.2C58.83 167.138 58.7943 166.225 58.7943 164.327C58.8228 162.187 60.3225 162.101 61.4223 162.129ZM32.1359 157.892V157.128H21.9881V157.892C22.4309 157.856 25.8087 157.642 25.7873 160.895C26.0801 168.979 26.2015 178.325 26.2015 178.325L25.873 178.218L15.3182 167.495L5.02043 156.386C5.02043 156.386 3.93496 155.98 3.93496 157.078C3.92068 164.805 3.91353 181.649 3.91353 181.649C3.91353 181.649 4.7562 185.423 0.442872 185.159C0.442872 185.644 0.414307 185.901 0.414307 185.901C0.414307 185.901 7.87694 185.944 10.1836 185.901V185.138C6.43441 185.302 6.58437 182.313 6.58437 181.385C6.58437 180.458 6.57009 165.383 6.57009 165.383C6.57009 165.383 6.85574 165.026 7.19852 165.59C7.5056 165.968 21.5596 180.18 27.4226 186.158C27.544 186.294 28.0653 186.422 28.301 186.294C28.4438 186.158 28.5724 186.08 28.5152 185.195C28.5867 178.895 28.8437 168.593 29.2365 161.124C29.1865 157.892 31.4932 157.835 32.143 157.892M105.641 161.437C104.077 161.437 102.313 161.423 100.385 161.388V162.129C102.035 162.144 103.363 162.957 103.334 164.776C103.37 170.883 103.363 175.649 103.349 181.4C103.342 182.134 103.699 185.095 100.392 185.166V185.901C102.67 185.794 104.191 185.78 105.648 185.787C107.112 185.787 108.633 185.801 110.911 185.901V185.166C107.605 185.095 107.948 182.134 107.948 181.4C107.933 175.649 107.926 170.876 107.962 164.776C107.933 162.914 109.312 162.122 111.011 162.129V161.965C110.997 161.751 110.997 161.559 110.997 161.388C109.033 161.416 107.248 161.437 105.648 161.437" fill="white"/>
<path d="M280.417 161.252C278.21 160.838 275.989 160.852 273.747 161.138C267.934 161.901 263.392 166.432 262.585 172.374C261.864 177.704 265.156 183.333 270.276 185.452C272.19 186.244 274.218 186.515 275.732 186.615C283.173 186.658 288.501 182.905 290.136 176.805C291.821 170.577 289.486 162.971 280.41 161.259M278.681 184.296C275.361 184.717 272.504 183.212 270.647 180.979C268.984 179.031 268.112 176.948 268.005 174.379C267.955 173.245 267.941 172.082 268.005 170.94C268.205 167.216 270.476 163.906 273.168 163.107C277.325 162.008 280.76 163.235 283.487 166.845C286.537 171.311 287.679 183.062 278.681 184.303M258.329 185.074C258.822 183.775 258.993 182.933 259.171 180.279C259.171 180.115 259.114 179.98 259.036 179.887H258.607C258.543 179.951 258.472 180.044 258.422 180.172C257.957 181.264 257.536 183.155 254.815 183.861C250.409 184.995 246.481 183.989 243.382 180.629C240.34 176.869 240.083 172.182 241.84 167.623C242.661 165.497 245.01 163.592 247.295 163.1C249.952 162.543 251.902 162.315 254.501 163.549C256.101 164.113 257.965 165.775 258.05 167.773C258.05 167.801 258.065 167.83 258.079 167.866H258.843C258.864 167.801 258.872 167.744 258.872 167.666C258.843 165.604 258.793 164.484 258.872 162.629C258.886 162.372 259 162.001 258.543 161.751C254.073 160.753 249.838 160.738 245.489 161.537C239.783 162.579 235.977 166.838 235.591 172.125C235.112 178.738 239.076 183.376 244.16 185.416C247.26 186.322 250.302 186.472 255.037 186.208C256.129 186.037 257.608 185.787 258.336 185.074M232.57 185.916V185.174C229.214 185.138 229.571 182.142 229.564 181.407C229.549 175.656 229.542 170.898 229.578 164.783C229.542 162.943 230.899 162.137 232.577 162.137V161.395C230.628 161.423 228.857 161.445 227.271 161.445C225.686 161.445 223.922 161.43 221.987 161.395V162.137C223.644 162.151 224.993 162.957 224.958 164.783C224.986 170.898 224.979 175.656 224.972 181.407C224.972 182.142 225.322 185.117 221.987 185.174V185.908C224.272 185.801 225.8 185.787 227.271 185.794C228.735 185.794 230.271 185.809 232.577 185.916M218.152 165.982C218.438 166.011 218.837 166.011 218.837 166.011C218.837 166.011 218.552 164.056 218.223 161.173C218.188 160.845 217.495 160.845 217.288 161.045C216.845 161.437 214.61 161.487 214.089 161.487C210.625 161.509 208.854 161.537 207.004 161.544C205.141 161.544 203.369 161.509 199.906 161.487C199.378 161.487 197.142 161.437 196.707 161.045C196.485 160.845 195.8 160.845 195.764 161.173C195.436 164.049 195.143 166.011 195.143 166.011C195.143 166.011 195.543 166.011 195.843 165.982C196.392 164.163 197.592 163.692 198.749 163.528C199.542 163.392 200.891 163.378 203.905 163.328C204.455 163.314 204.726 163.778 204.726 164.241C204.726 170.241 204.791 176.348 204.776 182.348C204.776 183.668 204.534 185.259 201.677 185.195V185.937C203.819 185.894 205.519 185.88 207.012 185.88C208.504 185.88 210.182 185.894 212.332 185.937V185.195C209.475 185.266 209.225 183.668 209.225 182.348C209.204 176.341 209.275 170.241 209.275 164.241C209.275 163.785 209.547 163.314 210.104 163.328C213.11 163.378 214.474 163.399 215.253 163.528C216.417 163.692 217.602 164.163 218.159 165.982M198.135 134.976C199.813 128.805 197.478 121.278 188.394 119.587C186.195 119.166 183.967 119.18 181.739 119.466C175.904 120.222 171.355 124.71 170.562 130.61C169.841 135.889 173.133 141.461 178.261 143.559C180.175 144.351 182.196 144.622 183.724 144.707C191.172 144.75 196.492 141.04 198.142 134.983M186.659 142.417C183.345 142.838 180.475 141.354 178.618 139.135C176.947 137.195 176.083 135.14 175.968 132.593C175.926 131.452 175.911 130.31 175.968 129.183C176.168 125.494 178.439 122.205 181.139 121.413C185.309 120.329 188.73 121.549 191.465 125.123C194.521 129.539 195.664 141.19 186.659 142.424M169.084 185.216V185.973C173.555 185.894 177.668 185.944 177.811 185.944V185.195C177.625 185.216 176.404 185.359 175.954 184.96C175.454 184.532 175.761 183.376 175.761 183.376C175.761 183.376 177.004 180.365 177.961 177.961C178.161 177.633 178.196 177.518 178.475 177.518C180.939 177.518 183.074 177.518 185.559 177.518C186.016 177.518 186.03 177.711 186.116 177.932C187.13 180.429 187.873 182.27 188.587 183.989C188.744 184.346 189.187 185.031 188.323 185.195V185.93C189.487 185.916 192.179 185.78 196.949 185.966V185.195C194.836 185.145 194.164 184.831 192.779 182.113C192.579 181.721 191.822 180.087 191.594 179.63C189.158 173.937 186.252 167.145 183.795 161.452C183.538 160.974 183.36 160.695 183.031 160.653C182.545 160.667 182.274 161.038 182.138 161.366C179.503 167.88 175.89 175.442 173.176 181.927C172.398 183.79 171.955 185.159 169.077 185.224M167.799 185.901V185.195C164.028 185.302 164.021 182.199 163.957 181.756C163.435 178.253 161.936 168.322 161.057 162.08C160.957 161.445 160.986 160.802 160.215 160.581C159.265 160.717 159.336 161.088 159.008 161.744C156.83 166.168 154.195 171.404 152.024 175.813C151.452 176.983 151.21 177.411 150.503 178.795C150.388 179.031 150.231 179.502 150.067 179.059C147.568 174.094 143.861 166.51 141.355 161.544C140.998 160.845 140.99 160.61 140.298 160.588C139.669 160.667 139.505 161.252 139.412 161.887C138.527 167.559 137.405 174.75 136.534 180.95C136.163 183.561 136.62 185.138 133.428 185.152V185.894C136.841 185.794 138.112 185.88 141.383 185.908V185.73C141.383 185.495 141.369 185.309 141.383 185.145C140.698 185.145 138.748 185.438 139.105 183.354C139.498 178.86 139.919 175.635 140.569 170.605C140.633 170.027 140.969 170.291 141.026 170.527C142.362 173.088 146.939 182.455 148.589 185.516C148.967 186.144 149.574 186.087 149.874 185.68C151.931 181.635 155.401 174.593 157.444 170.534C157.708 169.992 157.922 170.113 158.015 170.42C158.851 176.969 159.465 181.157 159.765 184.025C159.829 184.631 159.593 184.91 159.286 185.081V185.901C159.286 185.901 159.322 185.93 159.343 185.937C162.85 185.787 163.693 185.787 167.813 185.901M166.156 140.091C167.649 137.002 166.892 133.685 163.85 131.523C163.107 130.995 162.778 130.888 161.686 130.403C160.9 130.267 161.029 129.91 161.443 129.689C164.185 128.134 165.156 124.916 164.171 122.776C163.228 120.679 162.429 120.679 161.286 120.136C160.679 119.922 159.336 119.723 159.336 119.723H146.882L146.953 120.272C146.953 120.272 148.232 120.379 148.639 120.472C150.581 120.943 150.31 122.855 150.31 122.855L150.36 141.004C150.36 141.004 150.403 142.032 149.653 142.674C148.903 143.337 148.339 143.273 147.71 143.295V144.029C147.71 144.029 147.725 144.058 147.725 144.079C150.667 144.108 154.245 144.051 157.187 144.079C158.351 144.094 158.779 144.029 160.422 143.787C163.257 143.238 165.078 142.11 166.135 140.091M159.615 128.84C158.772 130.003 156.537 129.996 155.359 130.01C154.53 130.01 154.53 129.404 154.53 129.404L154.516 122.17C154.516 122.17 154.387 121.413 155.494 121.299C156.48 121.185 158.065 121.164 159.765 122.947C161.065 124.667 161.057 127.121 159.608 128.84M143.925 142.282C144.29 140.748 144.197 138.764 144.197 138.764H143.411C143.411 138.764 143.59 140.013 142.383 141.29C141.405 142.331 140.305 142.196 140.305 142.196L136.213 142.167C136.213 142.167 134.835 141.932 134.113 141.133C133.349 140.312 133.399 139.378 133.399 139.378C133.399 139.378 133.414 123.397 133.414 122.148C133.571 120.315 136.784 120.208 136.784 120.208V120.193V119.723H125.722L125.794 120.293C125.794 120.293 128.693 119.887 128.786 122.12C128.786 122.983 128.786 138.871 128.786 140.612C128.864 142.924 127.579 143.302 126.194 143.295V144.087H142.79C143.161 144.087 143.568 143.794 143.918 142.289M129.879 161.445C127.086 160.688 124.23 160.581 121.416 161.445C118.981 162.201 117.067 163.827 116.517 166.496C115.96 169.25 117.217 171.411 119.309 173.223C120.666 174.401 122.223 175.35 123.773 176.256C124.887 176.912 126.001 177.618 126.651 178.788C127.908 181.007 126.458 183.839 123.994 184.439C122.68 184.767 121.33 184.574 120.031 184.168C118.538 183.554 116.989 182.798 116.746 179.102C116.71 178.638 116.067 179.316 116.003 179.709C116.046 180.672 116.017 183.839 116.046 185.473C116.731 185.901 118.224 186.251 118.66 186.365C120.602 186.757 122.937 186.786 125.515 186.23C126.915 185.916 130.121 184.225 130.793 180.729C131.45 177.625 130.7 174.9 128.272 172.917C127.086 171.946 125.587 171.162 124.223 170.441C123.209 169.899 122.045 169.478 121.252 168.622C119.738 166.967 119.959 164.598 121.852 163.492C124.23 162.101 127.586 162.322 129.193 165.497C129.386 165.896 129.422 166.039 129.486 166.788C129.786 166.788 129.971 166.774 130.257 166.774C130.236 165.747 130.257 163.599 130.214 162.236C130.207 161.923 130.257 161.644 129.886 161.466M123.516 144.072V143.28C121.116 143.23 120.395 142.781 118.831 139.585C118.61 139.128 117.76 137.223 117.524 136.688C114.81 130.046 111.59 122.12 108.862 115.485C108.576 114.921 108.369 114.6 108.012 114.543C107.476 114.557 107.169 114.992 107.026 115.378C104.084 122.969 100.085 131.794 97.0715 139.356C96.2074 141.547 95.7075 143.223 92.4654 143.28V144.079C97.4357 143.994 102.028 144.044 102.206 144.044V143.288C102.049 143.302 100.664 143.38 100.142 142.902C99.5924 142.403 99.928 141.054 99.928 141.054C99.928 141.054 101.263 137.188 102.335 134.391C102.542 134.006 102.72 133.877 103.027 133.877H110.683C111.19 133.877 111.24 134.013 111.425 134.419C112.547 137.33 113.375 139.756 114.182 141.768C114.361 142.217 114.875 143.045 113.789 143.195C113.739 143.509 113.825 143.965 113.825 144.044C115.082 144.015 118.088 143.858 123.523 144.065M110.29 132.079L103.199 132.065C103.199 132.065 105.634 125.865 106.655 123.176C106.784 122.819 107.076 122.819 107.262 123.34C108.583 127.164 110.283 132.079 110.283 132.079M92.901 181.756C92.3797 178.253 90.88 168.322 89.9945 162.08C89.8945 161.445 89.9302 160.802 89.159 160.581C88.2092 160.717 88.2735 161.088 87.945 161.744C85.7669 166.168 83.1317 171.404 80.9537 175.813C80.3824 176.983 80.1467 177.411 79.4254 178.795C79.3254 179.031 79.1612 179.502 78.9898 179.059C76.5046 174.094 72.784 166.51 70.2774 161.544C69.9204 160.845 69.9204 160.61 69.2277 160.588C68.5992 160.667 68.4421 161.252 68.3422 161.887C67.4495 167.559 66.3283 174.75 65.4499 180.95C65.0786 183.576 65.5428 185.166 62.2792 185.152V185.894C65.7499 185.794 67.0139 185.88 70.306 185.908C70.2917 185.58 70.2917 185.338 70.2917 185.145C69.6133 185.145 67.6637 185.438 68.0137 183.354C68.4136 178.86 68.8349 175.635 69.4776 170.605C69.549 170.027 69.8847 170.291 69.9418 170.527C71.2844 173.088 75.8619 182.455 77.5044 185.516C77.8829 186.137 78.4899 186.087 78.7827 185.68C80.8323 181.635 84.3101 174.593 86.3453 170.527C86.6167 169.992 86.8238 170.113 86.9166 170.42C87.7593 176.969 88.3806 181.157 88.6805 184.025C88.7448 184.667 88.4663 184.945 88.1592 185.109V185.809C88.1806 185.887 88.2092 185.923 88.2592 185.937C91.7727 185.787 92.6011 185.787 96.7787 185.901V185.195C92.951 185.331 92.951 182.199 92.8796 181.756M32.1359 157.892V157.128H21.9881V157.892C22.4309 157.856 25.8087 157.642 25.7873 160.895C26.0801 168.979 26.2015 178.325 26.2015 178.325L25.873 178.218L15.3182 167.495L5.02043 156.386C5.02043 156.386 3.93496 155.98 3.93496 157.078C3.92068 164.805 3.91353 181.649 3.91353 181.649C3.91353 181.649 4.7562 185.423 0.442872 185.159C0.442872 185.644 0.414307 185.901 0.414307 185.901C0.414307 185.901 7.87694 185.944 10.1836 185.901V185.138C6.43441 185.302 6.58437 182.313 6.58437 181.385C6.58437 180.458 6.57009 165.383 6.57009 165.383C6.57009 165.383 6.85574 165.026 7.19852 165.59C7.5056 165.968 21.5596 180.18 27.4226 186.158C27.544 186.294 28.0653 186.422 28.301 186.294C28.4438 186.158 28.5724 186.08 28.5152 185.195C28.5867 178.895 28.8437 168.593 29.2365 161.124C29.1865 157.892 31.4932 157.835 32.143 157.892M105.641 161.437C104.077 161.437 102.313 161.423 100.385 161.388V162.129C102.035 162.144 103.363 162.957 103.334 164.776C103.37 170.883 103.363 175.649 103.349 181.4C103.342 182.134 103.699 185.095 100.392 185.166V185.901C102.67 185.794 104.191 185.78 105.648 185.787C107.112 185.787 108.633 185.801 110.911 185.901V185.166C107.605 185.095 107.948 182.134 107.948 181.4C107.933 175.649 107.926 170.876 107.962 164.776C107.933 162.914 109.312 162.122 111.011 162.129V161.965C110.997 161.751 110.997 161.559 110.997 161.388C109.033 161.416 107.248 161.437 105.648 161.437M178.753 175.956C178.753 175.956 180.896 170.341 181.817 168.044C181.931 167.723 182.203 167.73 182.367 168.179C183.552 171.461 185.131 175.963 185.131 175.963H178.753V175.956ZM161.579 140.32C160.793 142.246 157.637 142.867 155.873 141.875C155.294 141.547 154.552 140.676 154.552 139.535C154.552 138.087 154.559 134.883 154.559 131.922C154.723 131.544 155.044 131.53 155.53 131.509C158.265 131.416 159.729 132.55 160.929 134.084C162.393 135.96 162.5 138.072 161.579 140.32ZM61.4223 162.129V161.366C57.7374 161.366 55.2522 161.437 52.2814 161.366C52.2671 161.509 52.2671 161.83 52.2814 162.115C55.395 161.994 55.3093 164.191 55.3165 164.634C55.3165 169.043 55.3807 173.602 55.3522 177.925C55.2308 179.124 55.1451 184.111 49.125 184.417C45.8828 184.453 43.4191 182.898 42.7478 179.93C42.4693 178.681 42.2336 177.426 42.2408 176.134C42.2551 172.681 42.2408 169.235 42.2408 165.768C42.2408 162.301 43.5976 162.094 44.9116 162.115V161.345C40.3055 161.452 35.7137 161.387 34.7139 161.366V162.129C38.0703 161.873 37.8346 163.606 37.7203 166.517C37.7203 169.963 37.6418 173.68 37.7061 177.14C37.6704 181.264 39.9699 184.51 43.719 185.794C45.6329 186.458 47.561 186.429 49.5534 186.372C54.381 186.244 57.6874 183.44 58.5086 178.667C58.93 175.485 58.7586 172.382 58.7943 169.2C58.83 167.138 58.7943 166.225 58.7943 164.327C58.8228 162.187 60.3225 162.101 61.4223 162.129Z" stroke="white" stroke-miterlimit="10"/>
<path d="M169.234 23.7646L187.687 40.188V18.3781H184.788V33.7171L166.328 17.2937V39.1036H169.234V23.7646Z" fill="white"/>
<path d="M114.653 21.3319L118.559 27.8955H110.754L114.653 21.3319ZM103.713 39.7387L109.033 30.7992H120.288L125.608 39.7387L128.107 38.2547L114.66 15.6458L101.22 38.2547L103.713 39.7387Z" fill="white"/>
<path d="M197.392 17.9716C191.486 13.9549 184.338 11.6148 176.654 11.6148C171.505 11.6148 166.62 12.6636 162.164 14.5613C162.279 13.641 162.357 12.6564 162.414 11.6148H165.314V8.71111H171.726V3.32463H204.419C204.062 16.1452 201.677 28.7802 197.399 40.7517V17.9787L197.392 17.9716ZM193.457 50.4545C188.608 47.3439 182.845 45.5318 176.654 45.5318C168.206 45.5318 160.55 48.8921 154.944 54.3428C154.345 53.5437 153.745 52.7732 153.188 51.9956C159.301 46.1882 167.556 42.621 176.654 42.621C183.26 42.621 189.43 44.5116 194.65 47.7649C194.264 48.6638 193.864 49.5556 193.45 50.4474M190.886 55.7269C186.83 52.9659 181.924 51.3392 176.661 51.3392C169.427 51.3392 162.907 54.3785 158.287 59.2513C157.772 58.3523 157.23 57.5176 156.687 56.7328C161.8 51.6175 168.863 48.4426 176.661 48.4426C182.403 48.4426 187.744 50.1692 192.208 53.1228C191.779 54.0003 191.336 54.8707 190.886 55.734M188.059 60.8422C184.852 58.5236 180.917 57.1395 176.654 57.1395C170.162 57.1395 164.407 60.3214 160.865 65.2085C160.515 64.0599 160.115 63.004 159.686 62.0266C163.8 57.2608 169.877 54.2429 176.654 54.2429C181.431 54.2429 185.866 55.7483 189.508 58.3024C189.037 59.1585 188.558 60.0004 188.059 60.8422ZM171.726 82.7377V77.6866H165.314V74.7829H162.421C162.321 72.7282 162.107 70.8804 161.814 69.2109C164.542 63.7816 170.162 60.0503 176.654 60.0503C180.367 60.0503 183.795 61.2774 186.566 63.3393C182.274 70.3025 177.297 76.8019 171.726 82.7377ZM161.579 18.0429C166.128 15.7884 171.241 14.5114 176.654 14.5114C183.195 14.5114 189.308 16.3663 194.493 19.5768V44.3332C189.201 41.401 183.124 39.7244 176.654 39.7244C166.992 39.7244 158.187 43.4486 151.602 49.5342C150.353 47.3225 149.517 44.8469 149.517 41.4937C149.517 30.4069 158.629 31.213 161.579 18.0358M168.827 83.494H122.23V80.5903H128.636V77.6795H131.392L131.535 74.9184C132.042 64.5236 135.442 60.0432 138.727 55.6983C141.54 51.9884 144.44 48.1573 144.44 41.4937C144.44 34.8302 141.433 31.4556 138.527 28.3521C135.349 24.9562 132.057 21.446 131.535 11.4507L131.392 8.69685H128.636V5.79314H122.23V2.88944H168.827V5.79314H162.414V8.69685H159.665L159.522 11.4507C159.001 21.446 155.709 24.9562 152.531 28.3521C149.624 31.4556 146.625 34.6661 146.625 41.4937C146.625 48.3214 149.531 51.9884 152.345 55.6983C155.63 60.0361 159.022 64.5236 159.536 74.9184L159.672 77.6795H162.428V80.5903H168.841V83.494H168.827ZM145.525 103.884C137.298 98.9614 129.707 93.0755 122.894 86.3977H168.156C161.343 93.0755 153.745 98.9614 145.525 103.884ZM119.317 77.6795V82.7306C113.746 76.7948 108.769 70.2953 104.484 63.3321C107.255 61.2703 110.683 60.0432 114.396 60.0432C120.881 60.0432 126.501 63.7745 129.236 69.2038C128.936 70.8732 128.729 72.721 128.629 74.7757H125.729V77.6795H119.317ZM101.542 58.3024C105.184 55.7483 109.612 54.2429 114.389 54.2429C121.166 54.2429 127.243 57.2679 131.357 62.0266C130.928 63.004 130.528 64.0599 130.178 65.2085C126.629 60.3286 120.873 57.1395 114.389 57.1395C110.133 57.1395 106.191 58.5236 102.984 60.8422C102.499 60.0004 102.013 59.1514 101.542 58.3024ZM98.8497 53.1157C103.313 50.162 108.655 48.4355 114.396 48.4355C122.187 48.4355 129.257 51.6103 134.363 56.7257C133.821 57.5105 133.285 58.3452 132.764 59.2441C128.143 54.3785 121.616 51.3321 114.389 51.3321C109.119 51.3321 104.227 52.9587 100.164 55.7197C99.7138 54.8565 99.2781 53.9861 98.8425 53.1085M96.3931 47.772C101.62 44.5187 107.783 42.6281 114.389 42.6281C123.487 42.6281 131.742 46.1882 137.855 52.0027C137.298 52.7804 136.706 53.5509 136.106 54.3499C130.493 48.8992 122.837 45.5389 114.396 45.5389C108.205 45.5389 102.449 47.3511 97.5928 50.4617C97.1858 49.577 96.7858 48.6781 96.3931 47.7791M129.464 18.0429C132.414 31.213 141.526 30.4069 141.526 41.5009C141.526 44.854 140.69 47.3297 139.448 49.5413C132.856 43.4557 124.058 39.7315 114.389 39.7315C107.919 39.7315 101.842 41.4081 96.543 44.3404V19.5768C101.735 16.3663 107.848 14.5114 114.389 14.5114C119.802 14.5114 124.915 15.7813 129.464 18.0429ZM93.6437 17.9716V40.7446C89.3661 28.7731 86.9809 16.138 86.6238 3.3175H119.317V8.70398H125.729V11.6077H128.636C128.686 12.6493 128.779 13.6339 128.879 14.5542C124.43 12.6564 119.538 11.6077 114.389 11.6077C106.705 11.6077 99.5638 13.9549 93.6508 17.9644H93.6437V17.9716ZM83.2603 0C83.2603 46.0312 108.305 86.2265 145.525 107.737C182.738 86.2336 207.79 46.0383 207.79 0H83.2603Z" fill="white"/>
</g>
<defs>
<clipPath id="clip0_73_2095">
<rect width="291" height="187" fill="white"/>
</clipPath>
</defs>
</svg>
