<svg width="49" height="31" viewBox="0 0 49 31" fill="none" xmlns="http://www.w3.org/2000/svg">
<g clip-path="url(#clip0_73_2102)">
<path d="M11.8711 0.352997C11.8711 0.352997 11.8711 15.5671 11.8711 20.5994C11.8711 25.6317 16.8439 26.3391 20.4076 27.3613C23.9713 28.3836 24.3524 29.7207 24.3524 29.7207C24.3524 29.7207 24.7336 28.3836 28.2972 27.3613C31.8609 26.3391 36.8338 25.6317 36.8338 20.5994V0.352997H11.8711Z" stroke="#1D1D1B" stroke-width="2" stroke-miterlimit="10"/>
<path fill-rule="evenodd" clip-rule="evenodd" d="M0.150543 13.4039C0.0746003 14.0647 0.00428289 14.6832 6.38493e-05 15.3567C-0.00274885 15.7012 0.00428289 16.033 0.0422543 16.3733C0.0689749 16.6119 0.188515 17.0991 0.181483 17.277C0.350245 17.4634 0.455721 18.7384 1.99427 18.4574C2.82823 18.3049 2.87886 17.7232 2.89011 17.0624L2.88167 16.3818C2.70025 16.5286 2.22491 17.308 1.72003 16.9325C1.36703 16.6684 1.47954 15.8791 1.62299 15.4583C2.20381 13.7484 3.70157 12.544 3.8408 10.306C3.93081 8.86582 3.21498 7.27875 2.34304 6.30731C1.6244 5.50813 1.91973 5.67898 1.5808 5.22997C1.21937 4.75131 0.800276 4.80779 0.478222 5.33163C-0.119476 6.30307 0.898721 7.8506 0.614638 10.2241C0.492286 11.2521 0.31368 12.352 0.150543 13.4053V13.4039Z" fill="#1E1F1D"/>
<path fill-rule="evenodd" clip-rule="evenodd" d="M5.82646 4.34889C5.548 4.22746 5.25267 4.06791 4.94046 3.93659C4.40183 3.71068 4.43417 3.29697 4.78435 3.25319L4.83358 3.49747C4.88983 3.70503 5.69707 4.27264 5.82505 4.34748L5.82646 4.34889ZM2.44419 26.3136C2.68468 26.3645 2.82953 26.2882 3.03064 26.2967C4.30198 26.2332 4.617 25.0937 3.53974 24.8762C3.14174 24.7958 2.61436 24.9977 2.45966 24.6913C2.33449 24.4414 2.36684 23.7777 2.4245 23.5038C2.57639 22.7837 2.84219 22.8543 2.98423 22.7173C3.10377 22.7202 4.64372 22.4872 4.88702 22.3897C5.37783 22.1935 5.79692 21.7431 6.00647 21.2305C6.79403 19.3003 5.30752 18.0183 6.81934 15.4527C7.04295 15.0743 7.4761 14.3739 7.71378 14.0633C8.03302 13.6468 8.35507 13.1949 8.60962 12.6782C8.76995 12.3506 9.15388 11.317 9.16091 10.9612C8.94574 10.7861 8.72354 10.4868 8.62228 10.0942C8.62931 10.0999 8.63915 10.0999 8.64197 10.1126L9.19185 10.7974C9.36905 11.0148 9.62782 11.2732 9.86971 11.4116C10.7557 11.9213 10.9456 11.077 11.1157 10.3893C11.2184 10.1422 11.2648 9.96151 11.4856 9.87114C11.795 9.62828 12.0467 10.1437 12.7373 9.48426C12.9327 9.29788 13.0213 9.09879 13.1142 8.83898C13.259 7.69528 12.0847 8.16829 11.5025 8.29961C11.1228 8.60318 11.1509 8.63001 10.902 9.0409C10.6685 9.42637 10.5799 9.78219 10.2058 9.7243C10.1847 9.67911 10.1904 9.69464 10.1482 9.63393C9.933 9.32329 9.32405 7.66281 9.32405 7.65575C9.39999 7.79836 9.49281 7.9212 9.57438 8.09205C9.64188 8.23325 9.68548 8.45351 9.78252 8.56788C10.2846 8.40833 11.0665 7.61903 11.3323 7.08389C11.4715 6.80432 11.968 5.00687 11.9581 4.64682C11.9638 4.54657 11.982 4.47314 11.9919 4.36583C11.9947 4.33618 12.0003 4.22322 11.9975 4.19781C11.9975 3.92953 11.937 3.3958 11.4139 3.50453C11.0356 3.63019 10.7318 3.99448 10.8246 4.53951C10.8837 4.88827 10.9639 4.82896 10.9217 5.27656C10.7262 7.31122 8.83604 6.73372 8.43945 6.39626C8.1835 6.17882 7.94723 5.8936 7.5633 5.56884C7.41141 5.44035 7.2539 5.31468 7.09217 5.18761C6.90935 5.04217 6.8109 4.94192 6.62386 4.80637C6.25821 4.54092 5.95162 4.33759 5.61832 4.10744C5.44252 3.98601 5.29205 3.87164 5.12891 3.74598C4.85045 3.52994 4.84061 3.4424 4.96718 3.23625C5.52691 3.1826 5.86443 3.31532 5.91928 2.96515L5.79974 2.89596C5.62957 2.82819 5.52128 2.86349 5.52409 2.66299L5.7688 2.68417C5.98116 2.72935 6.28633 2.735 6.46775 2.64604C6.82637 2.47096 7.1428 1.93582 6.56198 1.78897C6.08804 1.66895 5.55644 1.19453 5.06281 0.97426C4.94327 0.920605 4.6395 0.850006 4.572 0.755404C4.48621 0.635385 4.49746 0.364285 4.38073 0.204732C4.13462 0.20332 4.09102 0.408057 4.04743 0.633973L3.9518 0.525251C3.81397 0.328986 3.60161 0.0437661 3.25425 0.129897C3.19096 0.145429 3.21487 0.138369 3.17549 0.163784C3.11642 0.200496 3.15861 0.169432 3.11783 0.220263C2.71421 0.314866 2.81406 1.27219 2.74093 1.36114L2.71702 0.907897C2.37528 1.02086 2.05322 1.51787 1.94353 1.89487C1.69742 2.73923 2.04619 3.50311 2.51873 4.18087C2.74796 4.50986 3.40473 5.12407 3.77178 5.54907C4.21197 6.0588 4.63387 6.67583 4.96718 7.31687C5.35533 8.0624 5.57894 8.64837 5.54941 9.69323C5.52409 10.5701 5.26814 11.3848 4.97984 12.0767C4.84342 12.4042 3.71412 14.6973 3.50176 15.0291C3.30066 15.3454 3.1558 15.6744 3.05736 16.0895C2.85625 16.9437 2.99267 17.8728 2.93079 18.1806C2.90125 18.3289 2.79859 18.5675 2.75077 18.7525C2.50888 19.6957 2.83094 19.9964 2.82531 20.7504C2.81828 21.664 2.43153 21.6739 1.82258 22.1539C1.39927 22.4872 1.44428 22.7682 1.44709 23.4134C1.45131 24.2832 1.35708 24.8508 1.70445 25.5723C1.75086 25.6684 1.79446 25.7474 1.85493 25.835C2.0026 26.0482 2.16292 26.2557 2.43435 26.3136H2.44419ZM5.34689 1.82004C5.02062 1.96688 4.4848 1.66189 4.69153 1.40209C4.81389 1.24818 5.47487 1.40633 5.34689 1.82004ZM6.45088 1.84686C7.01482 1.95841 6.77012 2.30717 6.67871 2.36365L6.6337 2.1462C6.51979 2.08266 6.57323 2.09396 6.45228 2.15044V1.84686H6.45088ZM3.34425 0.622678C3.5538 0.614206 3.62693 0.704572 3.67053 0.883894C3.49473 1.03074 3.42582 0.818943 3.33581 1.30184C3.20081 1.33432 3.09533 0.927665 3.34425 0.622678Z" fill="#1E1F1D"/>
<path fill-rule="evenodd" clip-rule="evenodd" d="M9.56461 24.3496C10.002 24.8664 10.3325 25.0485 11.0033 25.088C11.9976 25.0316 12.0932 24.399 12.1017 24.1688C12.0918 24.0785 12.0834 24.0121 12.0623 23.9556C11.9681 23.5447 11.5012 23.5066 11.0427 23.5052C10.4773 23.5052 10.4394 23.5885 10.1145 23.2511C9.91901 23.0491 9.74603 22.8232 9.61243 22.5606C9.40429 22.1511 9.43382 22.0537 9.50977 21.6033H9.51399L9.51117 21.6019C9.66306 21.1246 9.81635 20.0699 9.84026 19.522C9.90776 17.9674 9.30725 17.1682 7.96981 16.499C7.50713 16.2674 7.13726 16.2745 7.18367 15.4583C7.19914 15.2 7.28774 15.1025 7.18648 14.9627C7.11616 15.1322 6.84474 15.5007 6.66191 15.9045C6.20907 16.9056 6.00936 18.648 6.60425 19.5404C7.0149 20.156 7.76871 20.2393 8.19905 20.8747C8.49016 21.3039 8.32984 21.592 8.24546 22.065C8.18921 22.3799 8.26796 22.3502 8.4325 22.5507C8.87691 23.0915 9.1413 23.8483 9.56602 24.3496H9.56461Z" fill="#1E1F1D"/>
<path fill-rule="evenodd" clip-rule="evenodd" d="M5.98682 2.80561C6.85313 3.58502 6.68296 2.98916 7.10064 2.96798C7.36363 2.95528 7.41426 3.17978 7.7785 3.17413C8.07665 3.1699 8.20744 2.9934 8.23838 2.70535C8.02321 2.72936 7.79397 2.81831 7.60412 2.73359C7.42551 2.65452 7.37207 2.53592 7.10064 2.55569C6.88547 2.57263 6.80812 2.70112 6.63514 2.76466C6.43966 2.83667 6.19918 2.7929 5.98822 2.80419L5.98682 2.80561Z" fill="#1E1F1D"/>
<path fill-rule="evenodd" clip-rule="evenodd" d="M5.82646 4.34889C5.69848 4.27406 4.89124 3.70644 4.83498 3.49888L4.78576 3.25461C4.43417 3.29979 4.40323 3.71209 4.94187 3.93801C5.25407 4.06932 5.54941 4.22887 5.82786 4.3503L5.82646 4.34889Z" fill="#1E1F1D"/>
<path fill-rule="evenodd" clip-rule="evenodd" d="M6.45209 2.15044C6.57304 2.09396 6.521 2.08408 6.63351 2.1462L6.67851 2.36365C6.76993 2.30576 7.01322 1.957 6.45068 1.84686V2.15044H6.45209Z" fill="#1E1F1D"/>
<path fill-rule="evenodd" clip-rule="evenodd" d="M11.9917 24.4541C11.9622 24.3496 11.9566 24.3157 12.017 24.2084C12.2913 24.2126 12.1802 24.6066 12.0508 24.735L11.9917 24.4541Z" fill="#1E1F1D"/>
<path fill-rule="evenodd" clip-rule="evenodd" d="M11.9709 24.3326L11.916 24.3284C11.9132 24.3722 11.923 24.4103 11.9385 24.4668L11.9976 24.7449L12.051 24.7336L11.9919 24.4527C11.9779 24.4004 11.968 24.3665 11.9709 24.3312V24.3326ZM12.051 24.7351C12.1804 24.6066 12.2915 24.2126 12.0173 24.2084V24.1533C12.0679 24.1533 12.1101 24.166 12.1424 24.1858C12.1973 24.2197 12.2268 24.2733 12.2367 24.3355C12.2465 24.3919 12.2409 24.4555 12.224 24.5162C12.1987 24.6165 12.1452 24.7167 12.089 24.7718L12.051 24.7322V24.7351ZM12.0173 24.2084C11.9863 24.262 11.9723 24.2973 11.9709 24.3326L11.916 24.3284C11.9188 24.2846 11.9343 24.2423 11.9694 24.1816L12.0173 24.2084Z" fill="#1E1F1D"/>
<path fill-rule="evenodd" clip-rule="evenodd" d="M11.732 24.752C11.7024 24.6475 11.6968 24.6136 11.7573 24.5063C12.0315 24.5106 11.9204 24.9045 11.791 25.033L11.732 24.752Z" fill="#1E1F1D"/>
<path fill-rule="evenodd" clip-rule="evenodd" d="M11.7106 24.6306L11.6558 24.6263C11.6529 24.6701 11.6628 24.7082 11.6783 24.7647L11.7373 25.0429L11.7908 25.0316L11.7317 24.7506C11.7176 24.6983 11.7078 24.6644 11.7106 24.6291V24.6306ZM11.7908 25.0316C11.9201 24.9031 12.0312 24.5091 11.757 24.5049V24.4498C11.8076 24.4498 11.8498 24.4625 11.8822 24.4823C11.937 24.5162 11.9666 24.5698 11.9764 24.632C11.9862 24.6885 11.9806 24.752 11.9637 24.8127C11.9384 24.913 11.885 25.0132 11.8287 25.0683L11.7908 25.0287V25.0316ZM11.757 24.5063C11.7261 24.56 11.712 24.5953 11.7106 24.6306L11.6558 24.6263C11.6586 24.5826 11.6754 24.5402 11.7092 24.4795L11.757 24.5063Z" fill="#1E1F1D"/>
<path fill-rule="evenodd" clip-rule="evenodd" d="M11.3745 24.9765C11.345 24.872 11.3394 24.8381 11.3998 24.7308C11.6741 24.735 11.563 25.129 11.4336 25.2575L11.3745 24.9765Z" fill="#1E1F1D"/>
<path fill-rule="evenodd" clip-rule="evenodd" d="M11.3537 24.8551L11.2988 24.8508C11.296 24.8946 11.3059 24.9327 11.3213 24.9892L11.3804 25.2674L11.4338 25.2561L11.3748 24.9751C11.3607 24.9228 11.3509 24.889 11.3537 24.8537V24.8551ZM11.4338 25.2575C11.5632 25.129 11.6743 24.7351 11.4001 24.7308V24.6758C11.4507 24.6758 11.4929 24.6885 11.5252 24.7082C11.5801 24.7421 11.6096 24.7958 11.6195 24.8579C11.6293 24.9144 11.6237 24.9779 11.6068 25.0386C11.5815 25.1389 11.5281 25.2391 11.4718 25.2942L11.4338 25.2547V25.2575ZM11.4001 24.7308C11.3691 24.7845 11.3551 24.8198 11.3537 24.8551L11.2988 24.8508C11.3016 24.8071 11.3185 24.7647 11.3523 24.704L11.4001 24.7308Z" fill="#1E1F1D"/>
<path fill-rule="evenodd" clip-rule="evenodd" d="M11.0059 25.0429C10.9763 24.9384 10.9707 24.9045 11.0312 24.7972C11.3054 24.8014 11.1943 25.1954 11.0649 25.3238L11.0059 25.0429Z" fill="#1E1F1D"/>
<path fill-rule="evenodd" clip-rule="evenodd" d="M10.9302 24.9186C10.9274 24.9624 10.9372 25.0005 10.9527 25.057L11.0117 25.3351L11.0652 25.3238L11.0061 25.0428C10.9766 24.9384 10.971 24.9045 11.0314 24.7972L10.9836 24.7703C10.9484 24.8311 10.933 24.8734 10.9302 24.9186ZM11.0652 25.3238C11.1946 25.1953 11.3057 24.8014 11.0314 24.7972V24.7421C11.0821 24.7421 11.1242 24.7548 11.1566 24.7746C11.2114 24.8085 11.241 24.8621 11.2508 24.9242C11.2607 24.9807 11.255 25.0443 11.2382 25.105C11.2128 25.2052 11.1594 25.3055 11.1031 25.3605L11.0652 25.321V25.3238Z" fill="#1E1F1D"/>
<path fill-rule="evenodd" clip-rule="evenodd" d="M4.14429 25.65C4.10491 25.5639 4.09507 25.5356 4.13444 25.434C4.37212 25.4029 4.32571 25.7573 4.23148 25.8858L4.14429 25.65Z" fill="#1E1F1D"/>
<path fill-rule="evenodd" clip-rule="evenodd" d="M4.0557 25.5512C4.05851 25.5907 4.07257 25.6232 4.09367 25.6712L4.17946 25.9042L4.23149 25.8858L4.1443 25.65C4.10492 25.5639 4.09508 25.5356 4.13445 25.434L4.08382 25.4142C4.06132 25.4735 4.05289 25.5116 4.0557 25.5526V25.5512ZM4.23149 25.8844C4.24415 25.8674 4.25681 25.8463 4.26665 25.8223C4.28634 25.7771 4.3004 25.7234 4.30603 25.6698C4.32009 25.5399 4.28071 25.4142 4.13445 25.434L4.12742 25.3789C4.17242 25.3733 4.2104 25.3789 4.24274 25.3916C4.29618 25.4142 4.32994 25.458 4.34822 25.513C4.36369 25.561 4.3665 25.6175 4.36088 25.674C4.35103 25.7658 4.31728 25.8604 4.27509 25.9169L4.23149 25.8844Z" fill="#1E1F1D"/>
<path fill-rule="evenodd" clip-rule="evenodd" d="M3.86027 25.9804C3.80964 25.8999 3.79558 25.8731 3.82089 25.7672C4.05154 25.7023 4.05575 26.0609 3.97981 26.2007L3.86027 25.9804Z" fill="#1E1F1D"/>
<path fill-rule="evenodd" clip-rule="evenodd" d="M3.81258 25.883L3.75914 25.8957C3.76758 25.9338 3.78586 25.9649 3.81399 26.0087L3.93212 26.2275L3.97994 26.2021L3.8604 25.9818C3.83508 25.9423 3.81961 25.9155 3.81258 25.8844V25.883ZM3.97853 26.2007C3.98838 26.1823 3.99822 26.1583 4.00525 26.1343C4.05026 25.972 4.02072 25.7107 3.82102 25.7672L3.80555 25.715C3.84915 25.7023 3.88852 25.7023 3.92087 25.7107C3.97712 25.7263 4.0165 25.7644 4.04182 25.8166C4.06432 25.8618 4.07557 25.9183 4.07698 25.9748C4.07979 26.0666 4.0601 26.1654 4.02635 26.2275L3.97853 26.2007ZM3.82102 25.7672C3.80836 25.8195 3.80555 25.8533 3.81258 25.883L3.75914 25.8943C3.7507 25.8548 3.75352 25.8152 3.76758 25.7545L3.82102 25.7672Z" fill="#1E1F1D"/>
<path fill-rule="evenodd" clip-rule="evenodd" d="M3.55221 26.1752C3.50721 26.0919 3.49596 26.0637 3.5283 25.9606C3.76316 25.9126 3.74066 26.2713 3.65487 26.4054L3.55221 26.1767V26.1752Z" fill="#1E1F1D"/>
<path fill-rule="evenodd" clip-rule="evenodd" d="M3.45843 26.0835C3.46406 26.1216 3.47953 26.1541 3.50484 26.2007L3.6061 26.428L3.65673 26.4054L3.55407 26.1767C3.50906 26.0934 3.49781 26.0651 3.53016 25.9621L3.47812 25.9451C3.45984 26.0058 3.45281 26.0454 3.45843 26.0849V26.0835ZM3.65532 26.404C3.66657 26.3857 3.67782 26.3645 3.68626 26.3391C3.74392 26.1809 3.73267 25.9183 3.52875 25.9592L3.5175 25.9056C3.5625 25.8971 3.60048 25.8985 3.63282 25.9112C3.68767 25.931 3.72423 25.9719 3.74533 26.0256C3.76361 26.0722 3.77064 26.1287 3.76924 26.1851C3.76642 26.2769 3.7383 26.3729 3.70033 26.4337L3.65392 26.404H3.65532Z" fill="#1E1F1D"/>
<path fill-rule="evenodd" clip-rule="evenodd" d="M3.19535 26.2925C3.14613 26.2106 3.13347 26.1837 3.1602 26.0792C3.39224 26.0199 3.38943 26.3772 3.30927 26.517L3.19535 26.2939V26.2925Z" fill="#1E1F1D"/>
<path fill-rule="evenodd" clip-rule="evenodd" d="M3.35857 26.2925C3.35857 26.3758 3.34029 26.4619 3.30935 26.5156L3.35716 26.5424C3.39232 26.4803 3.41482 26.3828 3.41342 26.2911C3.41342 26.2346 3.40217 26.1781 3.38107 26.1329C3.35716 26.0807 3.31778 26.0397 3.26294 26.0242C3.22918 26.0143 3.19121 26.0143 3.14762 26.0242L3.16168 26.0779C3.30372 26.0411 3.35716 26.1612 3.35997 26.2925H3.35857ZM3.09558 26.2049C3.08714 26.1654 3.09136 26.1259 3.10683 26.0651L3.16027 26.0793C3.14621 26.1315 3.1434 26.1654 3.14902 26.195C3.15465 26.2247 3.17012 26.2515 3.19543 26.2925L3.30935 26.5156L3.26012 26.541L3.14621 26.3193C3.11949 26.2741 3.10261 26.2445 3.09417 26.2049H3.09558Z" fill="#1E1F1D"/>
<path fill-rule="evenodd" clip-rule="evenodd" d="M12.8273 8.62013C12.7668 8.70344 12.7499 8.73026 12.7682 8.84605C13.0115 8.93359 13.0439 8.54812 12.9721 8.39139L12.8273 8.62013Z" fill="#1E1F1D"/>
<path fill-rule="evenodd" clip-rule="evenodd" d="M12.8275 8.62012C12.767 8.70342 12.7502 8.73025 12.7685 8.84603C13.0117 8.93358 13.0441 8.54811 12.9724 8.39138L12.8275 8.62012ZM12.7192 8.70484C12.7305 8.6653 12.753 8.63424 12.7853 8.58905L12.9288 8.36314L12.9794 8.28265L13.0188 8.36878C13.0497 8.43797 13.0638 8.54387 13.0539 8.6413C13.0469 8.70201 13.0314 8.7599 13.0047 8.80509C12.9738 8.85733 12.9302 8.89545 12.8711 8.90675C12.836 8.91381 12.7952 8.90957 12.7502 8.89404L12.7206 8.88416L12.7164 8.85451C12.7066 8.78814 12.7052 8.74578 12.7164 8.70625L12.7192 8.70484Z" fill="#1E1F1D"/>
<path fill-rule="evenodd" clip-rule="evenodd" d="M12.9777 8.71614C12.9172 8.79944 12.9003 8.82627 12.9186 8.94205C13.1619 9.0296 13.1943 8.64413 13.1225 8.4874L12.9777 8.71614Z" fill="#1E1F1D"/>
<path fill-rule="evenodd" clip-rule="evenodd" d="M12.978 8.71616C12.9175 8.79946 12.9006 8.82629 12.9189 8.94207C13.1622 9.02962 13.1945 8.64414 13.1228 8.48742L12.978 8.71616ZM12.8683 8.80229C12.8795 8.76275 12.9006 8.73169 12.9344 8.6865L13.0792 8.45918L13.1299 8.37869L13.1692 8.46482C13.2002 8.53401 13.2142 8.63991 13.2044 8.73734C13.1974 8.79664 13.1819 8.85594 13.1552 8.90113C13.1242 8.95337 13.0806 8.99149 13.0216 9.00279C12.9864 9.00985 12.9456 9.00561 12.9006 8.99008L12.8725 8.9802L12.8683 8.95054C12.8584 8.88418 12.857 8.84182 12.8683 8.80229Z" fill="#1E1F1D"/>
<path fill-rule="evenodd" clip-rule="evenodd" d="M11.881 4.13427C11.7825 3.98742 12.0708 3.91118 12.1946 3.95495C12.0357 4.0086 11.9724 4.14274 11.881 4.13427Z" fill="#1E1F1D"/>
<path fill-rule="evenodd" clip-rule="evenodd" d="M11.8247 4.07073C11.8247 4.09755 11.8317 4.12579 11.8514 4.15403L11.881 4.13427C11.7994 4.01284 11.9822 3.93941 12.1172 3.94224L12.1819 3.92106C12.1622 3.92812 12.1454 3.93518 12.1285 3.94365C12.1524 3.94365 12.1749 3.9493 12.1932 3.95494L12.2044 3.92106C12.1439 3.89988 12.0511 3.90411 11.9738 3.92812C11.9358 3.93941 11.9006 3.95636 11.8753 3.97895C11.8458 4.00436 11.8261 4.03543 11.8247 4.07214V4.07073ZM11.881 4.13427C11.9724 4.14274 12.0357 4.00719 12.1946 3.95494L12.2058 3.98883C12.1341 4.01283 12.0821 4.05661 12.0371 4.09332C11.9836 4.1385 11.9386 4.17521 11.8781 4.16956L11.881 4.13427Z" fill="#1E1F1D"/>
<path fill-rule="evenodd" clip-rule="evenodd" d="M11.8585 3.92107C11.7601 3.77423 12.0484 3.69798 12.1721 3.74175C12.0132 3.79541 11.9499 3.92955 11.8585 3.92107Z" fill="#1E1F1D"/>
<path fill-rule="evenodd" clip-rule="evenodd" d="M11.8022 3.85753C11.8022 3.88436 11.8092 3.91119 11.8289 3.94084L11.8584 3.92107C11.7769 3.79964 11.9597 3.72622 12.0947 3.72904L12.1552 3.70927C12.1369 3.71492 12.1214 3.72198 12.1046 3.73045C12.1285 3.73045 12.151 3.7361 12.1692 3.74175L12.1805 3.70786C12.12 3.68668 12.0272 3.69092 11.9499 3.71492C11.9119 3.72622 11.8767 3.74316 11.8514 3.76575C11.8219 3.79117 11.8022 3.82223 11.8008 3.85894L11.8022 3.85753ZM11.8584 3.92107C11.9484 3.92954 12.0131 3.79399 12.1721 3.74175L12.1833 3.77564C12.1116 3.79964 12.0595 3.84341 12.0145 3.88012C11.9611 3.92531 11.9161 3.96202 11.8556 3.95637L11.8584 3.92107Z" fill="#1E1F1D"/>
<path fill-rule="evenodd" clip-rule="evenodd" d="M11.778 3.71774C11.6627 3.54548 12.0002 3.45653 12.1436 3.50736C11.958 3.56948 11.8835 3.72762 11.778 3.71774Z" fill="#1E1F1D"/>
<path fill-rule="evenodd" clip-rule="evenodd" d="M11.7135 3.64292C11.7121 3.67398 11.7206 3.70646 11.7445 3.74034L11.7782 3.71775C11.736 3.65563 11.7543 3.60479 11.7993 3.56667L11.7726 3.5342C11.7374 3.56385 11.7149 3.59915 11.7135 3.64292ZM11.7782 3.71775C11.8837 3.72764 11.9582 3.56949 12.1439 3.50737L12.1565 3.5469C12.0721 3.57514 12.0117 3.62597 11.9596 3.66975C11.8964 3.72199 11.8457 3.76576 11.774 3.7587L11.7782 3.71775ZM12.1453 3.50737C12.1242 3.50031 12.0975 3.49466 12.0693 3.49325C12.089 3.48336 12.1101 3.47489 12.1326 3.46783L12.0567 3.49325C11.9667 3.49184 11.8598 3.51725 11.8007 3.56667L11.774 3.5342C11.8049 3.50878 11.8457 3.48901 11.8893 3.47489C11.9793 3.44665 12.089 3.44242 12.1579 3.46783L12.1439 3.50737H12.1453Z" fill="#1E1F1D"/>
<path fill-rule="evenodd" clip-rule="evenodd" d="M11.5587 3.58642C11.4462 3.4198 11.7739 3.33367 11.9131 3.38168C11.7331 3.4424 11.6614 3.59489 11.5587 3.58642Z" fill="#1E1F1D"/>
<path fill-rule="evenodd" clip-rule="evenodd" d="M11.4953 3.51299C11.4939 3.54264 11.5023 3.57512 11.5248 3.6076L11.5586 3.585C11.5178 3.52429 11.5346 3.47487 11.5796 3.43816L11.5543 3.40709C11.5206 3.43533 11.4981 3.47063 11.4967 3.51158L11.4953 3.51299ZM11.5586 3.58642C11.6612 3.59489 11.7343 3.44239 11.913 3.38168L11.9256 3.4198C11.844 3.44663 11.785 3.49746 11.7343 3.53841C11.6725 3.58924 11.6232 3.6316 11.5543 3.62595L11.5571 3.58642H11.5586ZM11.913 3.38168C11.8919 3.37462 11.8665 3.37038 11.8398 3.36897C11.8581 3.35909 11.8792 3.35062 11.9003 3.34356L11.8272 3.36756C11.74 3.36615 11.6359 3.39156 11.5796 3.43957L11.5543 3.40851C11.5839 3.3845 11.6232 3.36474 11.6668 3.35062C11.754 3.32379 11.8595 3.31955 11.9284 3.34356L11.9158 3.38168H11.913Z" fill="#1E1F1D"/>
<path fill-rule="evenodd" clip-rule="evenodd" d="M43.3917 4.20487C43.5365 3.96625 44.3719 3.63302 44.137 3.25602C44.5364 3.15153 44.5519 3.64855 44.1848 3.85611C44.0358 3.93942 43.559 4.15263 43.3903 4.20487H43.3917ZM35.8958 8.83757C35.9788 9.24846 36.343 9.62263 36.6749 9.75536C36.7368 9.77089 36.914 9.82878 36.9647 9.82172C37.0729 9.80619 37.2459 9.76807 37.3894 9.79348C37.4175 9.79913 37.4498 9.78642 37.5455 9.85985C37.6439 9.92762 37.665 9.94456 37.7227 10.0335C37.7564 10.0844 37.7578 10.0985 37.7817 10.1437C37.966 10.4345 37.9533 10.8878 38.1755 11.2535C38.3654 11.5655 38.6748 11.6361 39.077 11.4201C39.527 11.1772 39.8828 10.6746 40.2007 10.2623L40.3343 10.1126C40.3371 10.0999 40.3483 10.0999 40.3554 10.0942C40.2879 10.4599 40.0417 10.748 39.8336 10.9527C39.8575 11.5232 40.3596 12.6584 40.6183 13.1032C40.7857 13.3912 41.029 13.7089 41.2203 13.9659C41.4312 14.2497 41.6225 14.5377 41.8109 14.8413C42.1681 15.416 42.5929 16.0373 42.7672 16.8153C43.0007 17.8559 42.8235 18.4263 42.7462 19.4302C42.6829 20.2605 42.8727 21.2701 43.3059 21.7699C44.3944 23.028 45.954 22.233 46.4055 23.028C46.5869 23.3485 46.6516 23.8596 46.6052 24.2987C46.525 25.0499 46.2986 24.7958 45.6826 24.8311C45.1946 24.8593 44.9513 25.0132 44.7811 25.3563C44.7193 26.2995 46.3858 26.5156 46.8414 26.1428C47.6248 25.5046 47.5263 24.2889 47.5305 23.4445C47.5376 22.3869 47.5235 22.37 46.8077 21.904C46.2592 21.5468 46.0637 21.1529 46.1776 20.3311C46.2845 19.5503 46.4603 19.378 46.1354 18.4164C46.0018 18.0225 46.0412 17.8093 46.044 17.3688C46.0525 16.009 45.8471 15.7436 45.3296 14.7213C44.3494 12.7826 42.7307 10.2383 43.732 7.90002C44.7136 5.60838 45.8936 5.02241 46.5799 4.00296C46.8724 3.56666 47.1635 2.9708 47.1171 2.28034C47.0791 1.71273 46.6699 0.996855 46.2634 0.885308C46.2592 1.03074 46.3042 1.15641 46.2142 1.27078C46.2058 0.756818 46.2072 0.787882 46.0539 0.334636C45.9203 0.273921 45.8218 -0.0240062 45.4168 0.136959C45.1398 0.247094 45.1046 0.403823 44.9668 0.631152C44.8374 0.440535 44.9161 0.152491 44.5828 0.190615C44.3635 0.64386 44.6278 0.691867 44.1637 0.858481C43.2004 1.20583 42.9782 1.64354 42.4128 1.7918C42.1935 1.84969 42.2202 1.90617 42.1217 1.97112C42.1006 2.19562 42.1091 2.30717 42.2441 2.41872C42.7813 2.8649 42.8193 2.63616 43.476 2.64605C43.4465 2.89173 43.251 2.81125 43.0752 2.92562C43.0823 3.42546 43.9725 3.02163 44.1033 3.31109C44.213 3.55536 43.455 4.03685 43.2946 4.14698C42.6533 4.59458 42.0106 5.05912 41.4059 5.56178C41.0599 5.84983 40.8082 6.18588 40.5157 6.3059C39.1136 6.8834 38.243 6.4245 38.0883 5.05629C38.0419 4.63976 38.1207 4.68636 38.1671 4.35736C38.2416 3.82928 37.9646 3.47911 37.5905 3.34215C37.0237 3.28285 37.0237 3.44946 36.9815 4.11592C36.997 4.24017 37.0111 4.25711 37.0223 4.3616C37.0012 4.66376 37.5483 6.52334 37.6763 6.8015C37.9519 7.40442 38.8745 8.20924 39.3245 8.22054C39.4412 7.95932 39.4736 7.78989 39.6226 7.52867C39.738 7.32535 39.8997 7.08672 40.0432 6.98365C39.9813 7.15873 39.7816 7.45666 39.6747 7.68116C39.4173 8.22054 39.2893 8.57495 39.0812 9.13268C38.6396 10.3117 38.3808 9.39389 38.198 9.24281C38.0827 8.91382 37.8 8.5693 37.5989 8.35327C37.3303 8.2163 37.1404 8.26431 36.8085 8.26431C35.9619 8.26431 35.7861 8.02569 35.8944 8.83334L35.8958 8.83757ZM42.2919 2.37636C42.1119 2.12503 42.1625 1.88781 42.5479 1.85534L42.5239 2.10808C42.4311 2.16739 42.5057 2.10526 42.3608 2.12644L42.2919 2.37636ZM43.6364 1.81015C43.5295 1.39503 44.1511 1.23971 44.2875 1.36538C44.535 1.59271 44.0386 1.94006 43.6364 1.81015ZM45.3212 0.883896C45.3535 0.662216 45.5729 0.474422 45.7276 0.704575C45.8415 0.874012 45.8162 1.16347 45.684 1.30043L45.6264 1.14088C45.6123 1.09005 45.6039 1.04204 45.5701 0.998267C45.4688 0.869777 45.4323 0.965791 45.3212 0.883896Z" fill="#1E1F1D"/>
<path fill-rule="evenodd" clip-rule="evenodd" d="M37.0515 23.7509C36.9938 23.854 37.0008 23.7947 36.9432 23.9232C36.908 24.0008 36.8953 24.0757 36.8869 24.1632C36.8714 25.0739 37.7912 25.0386 38.0162 25.0499L38.3326 25.0429C39.4226 24.9115 39.8937 23.4148 40.4675 22.6467C40.5701 22.5098 40.6714 22.4279 40.7656 22.2839C40.7628 21.8716 40.5406 21.4776 40.6742 21.0794C40.9681 20.2012 42.2423 20.2266 42.6107 19.0659C42.7936 18.4913 42.7542 17.26 42.6107 16.6642C42.4954 16.1841 42.0341 15.1477 41.7388 14.9048C41.7683 15.416 41.9709 15.8622 41.5729 16.2109C41.4899 16.2829 40.8697 16.554 40.549 16.7531C38.7545 17.8615 39.0386 19.4966 39.431 21.3576C39.5562 21.952 39.6237 22.1031 39.3325 22.6312C39.1314 22.9969 38.8867 23.2341 38.6139 23.4741C38.0373 23.5123 37.3876 23.381 37.0515 23.7495V23.7509Z" fill="#1E1F1D"/>
<path fill-rule="evenodd" clip-rule="evenodd" d="M40.7474 2.69122C40.7728 2.95668 40.9162 3.12753 41.1342 3.15859C41.5041 3.20942 41.5631 2.99198 41.8106 2.9595C42.1749 2.91008 42.1003 3.24896 42.4744 3.16424C42.6404 3.12611 42.8668 2.9002 42.9892 2.80418C42.7557 2.77171 42.5771 2.8296 42.3619 2.75053C42.21 2.69405 42.0877 2.55567 41.8739 2.54438C41.5856 2.53026 41.5308 2.66298 41.3662 2.73076C41.182 2.80701 40.957 2.70393 40.7446 2.69264L40.7474 2.69122Z" fill="#1E1F1D"/>
<path fill-rule="evenodd" clip-rule="evenodd" d="M43.3916 4.20487C43.5604 4.15122 44.0371 3.93942 44.1862 3.85611C44.5532 3.64855 44.5364 3.15154 44.1384 3.25602C44.3718 3.63302 43.5365 3.96625 43.393 4.20487H43.3916Z" fill="#1E1F1D"/>
<path fill-rule="evenodd" clip-rule="evenodd" d="M42.2918 2.37637L42.3607 2.12645C42.5055 2.10668 42.431 2.16881 42.5238 2.10809L42.5477 1.85535C42.1624 1.88641 42.1118 2.12362 42.2918 2.37637Z" fill="#1E1F1D"/>
<path fill-rule="evenodd" clip-rule="evenodd" d="M48.8483 13.4039C48.9242 14.0633 48.9946 14.6832 48.9988 15.3567C49.0016 15.7012 48.9946 16.033 48.9566 16.3733C48.9313 16.6119 48.8103 17.0991 48.8174 17.277C48.6486 17.4634 48.5431 18.7384 47.0046 18.4574C46.1706 18.3049 46.12 17.7232 46.1087 17.0624L46.1172 16.3818C46.2986 16.5286 46.7739 17.308 47.2788 16.9325C47.6318 16.6684 47.5193 15.8791 47.3759 15.4583C46.795 13.7484 45.2973 12.544 45.158 10.306C45.068 8.86582 45.7839 7.27875 46.6558 6.30731C47.3745 5.50813 47.0791 5.67898 47.4181 5.22997C47.7795 4.75131 48.1986 4.80779 48.5206 5.33163C49.1183 6.30307 48.1015 7.8506 48.3842 10.2241C48.5066 11.2521 48.6852 12.352 48.8483 13.4053V13.4039Z" fill="#1E1F1D"/>
<path fill-rule="evenodd" clip-rule="evenodd" d="M36.9981 24.4639C37.0277 24.3595 37.0333 24.3256 36.9728 24.2183C36.6986 24.2225 36.8097 24.6164 36.9391 24.7449L36.9981 24.4639Z" fill="#1E1F1D"/>
<path fill-rule="evenodd" clip-rule="evenodd" d="M36.9714 24.2197C36.6971 24.2239 36.8082 24.6178 36.9376 24.7463L36.9967 24.4654C37.0262 24.3609 37.0318 24.327 36.9714 24.2197ZM37.074 24.3397C37.0768 24.3835 37.067 24.4216 37.0515 24.4781L36.9925 24.7562L36.9714 24.8551L36.8996 24.7845C36.8434 24.728 36.7899 24.6291 36.7646 24.5289C36.7492 24.4668 36.7435 24.4032 36.752 24.3482C36.7632 24.2846 36.7928 24.231 36.8462 24.1985C36.8785 24.1787 36.9193 24.166 36.97 24.166H37.0023L37.0178 24.1943C37.0529 24.255 37.0684 24.2973 37.0712 24.3425L37.074 24.3397Z" fill="#1E1F1D"/>
<path fill-rule="evenodd" clip-rule="evenodd" d="M37.2584 24.7619C37.2879 24.6574 37.2935 24.6235 37.2331 24.5162C36.9588 24.5204 37.0699 24.9144 37.1993 25.0429L37.2584 24.7619Z" fill="#1E1F1D"/>
<path fill-rule="evenodd" clip-rule="evenodd" d="M37.2316 24.5162C36.9574 24.5204 37.0685 24.9144 37.1979 25.0429L37.2569 24.7619C37.2865 24.6574 37.2921 24.6235 37.2316 24.5162ZM37.3343 24.6376C37.3371 24.6814 37.3272 24.7195 37.3118 24.776L37.2527 25.0542L37.2316 25.153L37.1599 25.0824C37.1036 25.0259 37.0502 24.9271 37.0249 24.8268C37.0094 24.7647 37.0038 24.7012 37.0122 24.6461C37.0235 24.5826 37.053 24.5289 37.1064 24.4964C37.1388 24.4767 37.1796 24.464 37.2302 24.464H37.2626L37.278 24.4922C37.3132 24.5529 37.3287 24.5953 37.3315 24.6405L37.3343 24.6376Z" fill="#1E1F1D"/>
<path fill-rule="evenodd" clip-rule="evenodd" d="M37.6158 24.9878C37.6453 24.8833 37.651 24.8494 37.5905 24.7421C37.3162 24.7463 37.4273 25.1403 37.5567 25.2688L37.6158 24.9878Z" fill="#1E1F1D"/>
<path fill-rule="evenodd" clip-rule="evenodd" d="M37.589 24.7421C37.3148 24.7463 37.4259 25.1403 37.5553 25.2688L37.6143 24.9878C37.6439 24.8833 37.6495 24.8494 37.589 24.7421ZM37.6917 24.8621C37.6945 24.9059 37.6847 24.944 37.6692 25.0005L37.6101 25.2787L37.589 25.3775L37.5173 25.3069C37.4611 25.2504 37.4076 25.1516 37.3823 25.0513C37.3668 24.9892 37.3612 24.9257 37.3696 24.8706C37.3809 24.8071 37.4104 24.7534 37.4639 24.7209C37.4962 24.7012 37.537 24.6884 37.5876 24.6884H37.62L37.6354 24.7167C37.6706 24.7774 37.6861 24.8198 37.6889 24.8649L37.6917 24.8621Z" fill="#1E1F1D"/>
<path fill-rule="evenodd" clip-rule="evenodd" d="M37.984 25.0542C38.0135 24.9497 38.0191 24.9158 37.9586 24.8085C37.6844 24.8127 37.7955 25.2066 37.9249 25.3351L37.984 25.0542Z" fill="#1E1F1D"/>
<path fill-rule="evenodd" clip-rule="evenodd" d="M37.9586 24.8085C37.6844 24.8127 37.7955 25.2067 37.9249 25.3351L37.9839 25.0542C38.0135 24.9497 38.0191 24.9158 37.9586 24.8085ZM38.0599 24.9285C38.0627 24.9723 38.0528 25.0104 38.0374 25.0669L37.9783 25.345L37.9572 25.4439L37.8855 25.3733C37.8292 25.3168 37.7758 25.2179 37.7505 25.1177C37.735 25.0556 37.7294 24.992 37.7378 24.937C37.7491 24.8734 37.7786 24.8198 37.832 24.7873C37.8644 24.7675 37.9052 24.7548 37.9558 24.7548H37.9881L38.0036 24.7831C38.0388 24.8438 38.0542 24.8861 38.057 24.9313L38.0599 24.9285Z" fill="#1E1F1D"/>
<path fill-rule="evenodd" clip-rule="evenodd" d="M44.844 25.6599C44.8834 25.5738 44.8933 25.5455 44.8539 25.4439C44.6162 25.4128 44.6626 25.7672 44.7569 25.8957L44.844 25.6599Z" fill="#1E1F1D"/>
<path fill-rule="evenodd" clip-rule="evenodd" d="M44.8443 25.6599C44.8836 25.5738 44.8935 25.5455 44.8541 25.4439C44.6164 25.4128 44.6628 25.7672 44.7571 25.8957L44.8443 25.6599ZM44.9329 25.5611C44.93 25.6006 44.916 25.6331 44.8949 25.6811L44.8091 25.9141L44.7739 26.0087L44.7135 25.9282C44.6713 25.8717 44.6375 25.7771 44.6277 25.6853C44.622 25.6288 44.6249 25.5724 44.6403 25.5243C44.6586 25.4693 44.6924 25.4255 44.7458 25.4029C44.7782 25.3888 44.8161 25.3846 44.8611 25.3902L44.8935 25.3944L44.9047 25.4241C44.9272 25.4834 44.9357 25.5215 44.9329 25.5625V25.5611Z" fill="#1E1F1D"/>
<path fill-rule="evenodd" clip-rule="evenodd" d="M45.1299 25.9903C45.1805 25.9098 45.1946 25.883 45.1693 25.7771C44.9386 25.7121 44.9344 26.0708 45.0103 26.2106L45.1299 25.9903Z" fill="#1E1F1D"/>
<path fill-rule="evenodd" clip-rule="evenodd" d="M45.1297 25.9903C45.1803 25.9098 45.1943 25.883 45.169 25.7771C44.9384 25.7122 44.9342 26.0708 45.0101 26.2106L45.1297 25.9903ZM45.2309 25.9056C45.2225 25.9437 45.2042 25.9748 45.1761 26.0186L45.0579 26.2374L45.0101 26.3264L44.9623 26.2374C44.9285 26.1753 44.9074 26.0764 44.9117 25.9847C44.9131 25.9282 44.9243 25.8717 44.9468 25.8265C44.9721 25.7743 45.0115 25.7362 45.0678 25.7206C45.1015 25.7122 45.1395 25.7122 45.1831 25.7249L45.214 25.7333L45.2211 25.7644C45.2351 25.8265 45.2379 25.8661 45.2295 25.9042L45.2309 25.9056Z" fill="#1E1F1D"/>
<path fill-rule="evenodd" clip-rule="evenodd" d="M45.4363 26.1866C45.4813 26.1033 45.4926 26.075 45.4602 25.972C45.2254 25.9239 45.2479 26.2826 45.3337 26.4167L45.4363 26.188V26.1866Z" fill="#1E1F1D"/>
<path fill-rule="evenodd" clip-rule="evenodd" d="M45.4365 26.1866C45.4815 26.1033 45.4927 26.075 45.4604 25.972C45.2255 25.9239 45.248 26.2826 45.3338 26.4167L45.4365 26.188V26.1866ZM45.5321 26.0934C45.5265 26.1315 45.511 26.164 45.4857 26.2106L45.3844 26.4379L45.3437 26.5297L45.2888 26.445C45.2494 26.3857 45.2227 26.2882 45.2199 26.1965C45.2185 26.14 45.2255 26.0835 45.2438 26.0369C45.2649 25.9832 45.3015 25.9409 45.3563 25.9225C45.3887 25.9112 45.428 25.9084 45.4716 25.9169L45.5026 25.9239L45.5124 25.955C45.5307 26.0157 45.5377 26.0553 45.5321 26.0948V26.0934Z" fill="#1E1F1D"/>
<path fill-rule="evenodd" clip-rule="evenodd" d="M45.795 26.3037C45.8442 26.2218 45.8569 26.195 45.8302 26.0905C45.5981 26.0312 45.6009 26.3885 45.6811 26.5283L45.795 26.3052V26.3037Z" fill="#1E1F1D"/>
<path fill-rule="evenodd" clip-rule="evenodd" d="M45.8288 26.0891C45.5968 26.0298 45.5996 26.3871 45.6798 26.5268L45.7937 26.3038C45.8429 26.2219 45.8556 26.195 45.8288 26.0905V26.0891ZM45.8935 26.2162C45.8865 26.2543 45.8682 26.2854 45.8415 26.3306L45.7276 26.5523L45.6812 26.6426L45.6305 26.5551C45.5954 26.493 45.5729 26.3955 45.5743 26.3038C45.5743 26.2473 45.5855 26.1908 45.6066 26.1456C45.6305 26.0934 45.6699 26.0524 45.7248 26.0369C45.7585 26.027 45.7965 26.027 45.8401 26.0369L45.871 26.0454L45.8795 26.0764C45.8949 26.1371 45.8991 26.1781 45.8907 26.2162H45.8935Z" fill="#1E1F1D"/>
<path fill-rule="evenodd" clip-rule="evenodd" d="M36.1208 8.62153C36.1813 8.70484 36.1982 8.73167 36.1799 8.84745C35.9366 8.93499 35.9042 8.54952 35.9759 8.39279L36.1208 8.62153Z" fill="#1E1F1D"/>
<path fill-rule="evenodd" clip-rule="evenodd" d="M36.2291 8.70767C36.2179 8.66813 36.1954 8.63707 36.163 8.59188L36.0196 8.36597L35.976 8.39421L36.1208 8.62295C36.1813 8.70625 36.1982 8.73308 36.1799 8.84886L36.2305 8.85734C36.2418 8.79097 36.2418 8.74861 36.2305 8.70908L36.2291 8.70767ZM35.976 8.39279C35.9675 8.41115 35.9605 8.43233 35.9549 8.45633C35.9422 8.50999 35.938 8.57494 35.945 8.63707C35.9605 8.77685 36.0308 8.90111 36.1799 8.84745L36.1968 8.89687C36.1518 8.9124 36.1124 8.91664 36.0758 8.90958C36.0167 8.89828 35.9732 8.86016 35.9422 8.80792C35.9155 8.76132 35.9 8.70343 35.893 8.64413C35.8817 8.5467 35.8958 8.4408 35.9282 8.37161L35.9746 8.39279H35.976Z" fill="#1E1F1D"/>
<path fill-rule="evenodd" clip-rule="evenodd" d="M35.9704 8.71897C36.0309 8.80228 36.0478 8.82911 36.0295 8.94489C35.7862 9.03243 35.7538 8.64696 35.8256 8.49023L35.9704 8.71897Z" fill="#1E1F1D"/>
<path fill-rule="evenodd" clip-rule="evenodd" d="M36.0797 8.80368C36.0684 8.76415 36.0473 8.73308 36.0136 8.6879L35.8687 8.46057L35.8251 8.48881L35.97 8.71755C36.0305 8.80086 36.0473 8.82769 36.0291 8.94347L36.0797 8.95194C36.0909 8.88558 36.0909 8.84322 36.0797 8.80368ZM35.8251 8.49022C35.7534 8.64695 35.7858 9.03242 36.0291 8.94488L36.0473 8.9943C36.0023 9.00983 35.9616 9.01407 35.9264 9.00701C35.8673 8.99571 35.8237 8.95759 35.7928 8.90534C35.7661 8.85875 35.7506 8.80086 35.7436 8.74156C35.7323 8.64413 35.7464 8.53823 35.7787 8.46904L35.8251 8.49022Z" fill="#1E1F1D"/>
<path fill-rule="evenodd" clip-rule="evenodd" d="M37.0924 3.97613C37.1909 3.82928 36.9026 3.75303 36.7788 3.79681C36.9377 3.85046 37.001 3.9846 37.0924 3.97613Z" fill="#1E1F1D"/>
<path fill-rule="evenodd" clip-rule="evenodd" d="M37.0927 3.97615C37.1911 3.8293 36.9028 3.75305 36.7791 3.79682C36.938 3.85048 37.0013 3.98462 37.0927 3.97615ZM37.1475 3.91261C37.1475 3.93943 37.1405 3.96767 37.1208 3.99591L37.111 4.01003H37.0941C37.0336 4.01709 36.99 3.98038 36.9352 3.9352C36.8916 3.89849 36.8381 3.85472 36.7664 3.83071L36.668 3.79824L36.7664 3.76435C36.8269 3.74317 36.9197 3.7474 36.9971 3.77141C37.035 3.7827 37.0702 3.79965 37.0955 3.82224C37.125 3.84766 37.1447 3.87872 37.1461 3.91543L37.1475 3.91261Z" fill="#1E1F1D"/>
<path fill-rule="evenodd" clip-rule="evenodd" d="M37.1149 3.76293C37.2133 3.61609 36.925 3.53984 36.8013 3.58361C36.9602 3.63727 37.0235 3.7714 37.1149 3.76293Z" fill="#1E1F1D"/>
<path fill-rule="evenodd" clip-rule="evenodd" d="M37.1151 3.76292C37.2136 3.61607 36.9253 3.53983 36.8015 3.5836C36.9604 3.63725 37.0237 3.77139 37.1151 3.76292ZM37.17 3.69938C37.17 3.72621 37.163 3.75304 37.1433 3.78269L37.1334 3.79681H37.1166C37.0561 3.80387 37.0125 3.76716 36.9576 3.72197C36.9126 3.68526 36.8606 3.64149 36.7889 3.61749L36.6904 3.58501L36.7889 3.55112C36.8493 3.52994 36.9422 3.53418 37.0195 3.55818C37.0575 3.56948 37.0926 3.58642 37.118 3.60901C37.1475 3.63443 37.1672 3.66549 37.1686 3.7022L37.17 3.69938Z" fill="#1E1F1D"/>
<path fill-rule="evenodd" clip-rule="evenodd" d="M37.1938 3.5596C37.3091 3.38734 36.9716 3.29838 36.8281 3.34921C37.0138 3.41134 37.0883 3.56948 37.1938 3.5596Z" fill="#1E1F1D"/>
<path fill-rule="evenodd" clip-rule="evenodd" d="M37.1938 3.55959C37.3091 3.38733 36.9716 3.29838 36.8281 3.34921C37.0138 3.41134 37.0883 3.56948 37.1938 3.55959ZM37.2585 3.48476C37.2599 3.51582 37.2514 3.5483 37.2275 3.58218L37.2163 3.59913H37.1966C37.1263 3.6076 37.0742 3.56383 37.0109 3.51159C36.9589 3.46781 36.897 3.41698 36.814 3.38874L36.6987 3.35062L36.8126 3.31108C36.883 3.28708 36.9913 3.29132 37.0813 3.31956C37.1249 3.33368 37.1656 3.35344 37.1966 3.37886C37.2317 3.40851 37.2542 3.44381 37.2556 3.48758L37.2585 3.48476Z" fill="#1E1F1D"/>
<path fill-rule="evenodd" clip-rule="evenodd" d="M37.4145 3.42687C37.527 3.26026 37.1993 3.17413 37.0601 3.22213C37.2401 3.28285 37.3118 3.43534 37.4145 3.42687Z" fill="#1E1F1D"/>
<path fill-rule="evenodd" clip-rule="evenodd" d="M37.4146 3.42686C37.5271 3.26025 37.1994 3.17412 37.0602 3.22212C37.2402 3.28284 37.312 3.43533 37.4146 3.42686ZM37.4779 3.35485C37.4793 3.3845 37.4709 3.41698 37.4484 3.44945L37.4371 3.46499H37.4174C37.3485 3.47205 37.2993 3.4311 37.2374 3.38027C37.1868 3.33791 37.1277 3.28849 37.0462 3.26166L36.9351 3.22495L37.0462 3.18541C37.1137 3.16141 37.2205 3.16565 37.3077 3.19247C37.3513 3.20659 37.3907 3.22495 37.4202 3.25036C37.454 3.2786 37.4765 3.3139 37.4779 3.35485Z" fill="#1E1F1D"/>
<path d="M35.6821 1.93723L14.5024 22.8486" stroke="#1D1D1B" stroke-miterlimit="10"/>
<path d="M18.1642 2.79996L21.1359 3.79823L21.3567 3.40852C21.4368 3.26732 21.4931 3.18119 21.5268 3.1473C21.5606 3.11342 21.5985 3.09788 21.6436 3.09788C21.6886 3.09788 21.7251 3.11342 21.7532 3.14448C21.7814 3.17554 21.7968 3.20943 21.7968 3.24897C21.7968 3.31109 21.742 3.43394 21.6337 3.61749L20.1978 6.06445L21.3384 5.98821C21.6815 5.9755 22.0795 6.02351 22.5338 6.13364C22.988 6.24377 23.379 6.41462 23.7067 6.64619C24.0343 6.87775 24.2903 7.15168 24.4773 7.46655C24.6644 7.78142 24.7572 8.12877 24.7572 8.50859C24.7572 9.20611 24.4661 9.8895 23.8853 10.563C23.303 11.2351 22.2694 11.9439 20.7815 12.6895C20.2583 12.4946 19.6494 12.2913 18.956 12.0767C17.7198 12.6443 16.7031 12.9281 15.9085 12.9281C15.3417 12.9281 14.9057 12.8038 14.6006 12.5539C14.2954 12.3054 14.1421 12.0174 14.1421 11.6912C14.1421 11.3424 14.3263 11.0247 14.6962 10.7353C15.0647 10.4458 15.6117 10.3018 16.3374 10.3018C16.6229 10.3018 16.9759 10.3371 17.3978 10.4077L17.935 9.45885L16.9703 9.53368C16.7424 9.53792 16.4344 9.50686 16.0477 9.43767C15.6609 9.36989 15.3431 9.25835 15.0956 9.10303C14.8467 8.94913 14.6624 8.75851 14.5387 8.534C14.4163 8.3095 14.3544 8.0737 14.3544 7.8266C14.3544 7.43407 14.4923 7.08531 14.7693 6.78174C14.9451 6.5883 15.2348 6.41321 15.6384 6.25931L15.6314 6.18024C15.6314 5.77076 15.8128 5.29916 16.1757 4.76826C16.5385 4.23735 17.2009 3.58078 18.1642 2.79996ZM18.4961 11.9228C17.4034 11.5556 16.5076 11.3721 15.8086 11.3735C15.4486 11.3735 15.1631 11.4526 14.9521 11.6121C14.8073 11.718 14.7342 11.8479 14.7342 12.0018C14.7342 12.1656 14.8073 12.2955 14.9521 12.3915C15.18 12.5497 15.5119 12.6302 15.9464 12.6302C16.6145 12.6302 17.4639 12.3944 18.4961 11.9228ZM19.1571 7.29429C18.5847 7.37618 18.0306 7.41713 17.4948 7.41713C16.8971 7.41713 16.4738 7.34653 16.2235 7.20533C15.9732 7.06413 15.7861 6.84387 15.6638 6.54311C15.3473 6.74644 15.1898 6.99777 15.1898 7.29711C15.1898 7.57103 15.3122 7.79554 15.5583 7.97204C15.8831 8.20078 16.4387 8.31656 17.2248 8.31656C17.5947 8.31656 18.0644 8.28267 18.6354 8.21631L19.1571 7.29429ZM20.5382 4.8558C19.8505 4.51269 19.3132 4.28254 18.9265 4.16534C18.5411 4.04815 18.2008 3.99026 17.9069 3.99026C17.4948 3.99026 17.1601 4.10745 16.9013 4.34043C16.6426 4.57481 16.5132 4.84733 16.5132 5.16079C16.5132 5.47425 16.6243 5.72275 16.8465 5.92184C17.0687 6.12093 17.4034 6.21977 17.8506 6.21977C18.146 6.21977 18.8084 6.176 19.8392 6.08704L20.5368 4.85439L20.5382 4.8558ZM17.6959 10.4656C18.1108 10.5574 18.4483 10.6421 18.7099 10.7197C18.9715 10.7974 19.437 10.9527 20.1064 11.1857C21.1696 10.7 21.7012 10.2284 21.6998 9.77372C21.6998 9.63252 21.6379 9.50403 21.5142 9.38966C21.3904 9.27529 21.2315 9.2174 21.0402 9.2174C20.8054 9.2174 20.5157 9.23717 20.1711 9.27812C19.2134 9.37978 18.5833 9.43202 18.2838 9.43202L17.6959 10.467V10.4656ZM18.987 8.19089C20.0361 8.08641 20.7632 8.03558 21.171 8.03558C21.7293 8.03558 22.1555 8.16265 22.4494 8.41681C22.7433 8.67097 22.891 8.97454 22.891 9.32754C22.891 9.63676 22.7475 9.93751 22.4592 10.2284C22.1709 10.5192 21.5535 10.8835 20.6057 11.3184L21.9459 11.6728C22.5225 11.3156 22.9669 10.9301 23.2791 10.515C23.5913 10.0999 23.7475 9.64382 23.7475 9.14539C23.7475 8.81922 23.649 8.49729 23.4535 8.18242C23.258 7.86755 22.9571 7.61481 22.5521 7.42842C22.147 7.24063 21.6801 7.14744 21.1513 7.14744C20.7238 7.14744 20.1781 7.18839 19.5129 7.26887L18.9884 8.19231L18.987 8.19089Z" fill="#1D1D1B"/>
<path d="M27.4757 14.196L27.6374 14.381C26.9835 14.8272 26.4955 15.303 26.1748 15.8099C25.7613 16.4623 25.556 17.1725 25.556 17.9406C25.556 18.8711 25.8612 19.731 26.4715 20.5203C26.7345 20.3043 26.8935 20.1221 26.9455 19.9739C26.9975 19.8256 27.0242 19.4218 27.0242 18.7595V15.7958L29.8482 13.4336C30.505 13.6934 31.0225 13.8628 31.3994 13.9391C31.7763 14.0167 32.2193 14.0548 32.727 14.0548H32.8789L32.9872 14.2963L31.9001 15.3383C31.1702 15.2593 30.346 14.9896 29.4291 14.5307L29.4952 22.0848L29.7455 22.0918C30.377 22.0918 30.9508 21.9831 31.4697 21.7657C31.9887 21.5482 32.5259 21.1966 33.0828 20.7081L33.2839 20.9029C32.8761 21.4677 32.4738 21.9083 32.0815 22.2217C31.6877 22.5352 31.2152 22.7865 30.6611 22.9729C30.107 23.1607 29.5585 23.2539 29.0142 23.2539C28.2056 23.2539 27.4447 23.0576 26.7317 22.6651C26.0173 22.2726 25.459 21.7106 25.0554 20.9778C24.6517 20.2464 24.4492 19.491 24.4492 18.7158C24.4492 17.7585 24.7347 16.8717 25.3043 16.057C25.7515 15.4174 26.4758 14.7961 27.4757 14.1918V14.196ZM29.1253 14.4855L28.3546 15.1562V18.1764C28.3546 18.552 28.335 18.8005 28.2956 18.9247C28.252 19.0885 28.1507 19.2622 27.9918 19.4472C27.6698 19.8228 27.2211 20.2506 26.6431 20.7321C26.9947 21.1246 27.373 21.4254 27.7752 21.6343C28.1774 21.8433 28.65 21.9831 29.1914 22.0537L29.1253 14.4855Z" fill="#1D1D1B"/>
</g>
<defs>
<clipPath id="clip0_73_2102">
<rect width="49" height="31" fill="white"/>
</clipPath>
</defs>
</svg>
