<svg width="21" height="21" viewBox="0 0 21 21" fill="none" xmlns="http://www.w3.org/2000/svg">
<g clip-path="url(#clip0_73_2185)">
<mask id="mask0_73_2185" style="mask-type:luminance" maskUnits="userSpaceOnUse" x="0" y="0" width="21" height="21">
<path d="M20.9778 0.0221252H0V21H20.9778V0.0221252Z" fill="white"/>
</mask>
<g mask="url(#mask0_73_2185)">
<path d="M10.4978 0C4.70268 0 0 4.68387 0 10.4558C0 16.2277 4.70268 20.9115 10.4978 20.9115C16.2929 20.9115 20.9956 16.2277 20.9956 10.4558C20.9956 4.68387 16.2973 0 10.4978 0ZM14.7653 15.1396V15.865C14.7653 16.2631 14.4411 16.5904 14.037 16.5904H6.77649C5.97272 16.5904 5.32438 15.9446 5.32438 15.1441V6.03728C5.32438 5.23673 5.97272 4.59099 6.77649 4.59099H14.037C14.4367 4.59099 14.7653 4.91386 14.7653 5.31634V15.1396ZM16.2174 6.03728V15.8606C16.2174 16.2586 15.8932 16.5859 15.4935 16.5859H15.2982C15.4225 16.3736 15.4935 16.1259 15.4935 15.8606V5.31192C15.4935 5.04655 15.4225 4.80329 15.2982 4.59099H15.4935C15.8932 4.59099 16.2174 4.91386 16.2174 5.31192V6.03728Z" fill="white"/>
</g>
<path d="M12.2917 11.5394C12.2917 11.5394 12.0164 11.2121 11.7144 11.4377C11.488 11.6057 11.0839 11.9817 10.9862 12.0701C10.9862 12.0701 10.3067 11.7119 9.90708 11.3802C9.31203 10.8936 8.91681 10.2921 8.7081 9.95156L8.55267 9.65965C8.60596 9.60215 9.02339 9.15986 9.20101 8.9166C9.42749 8.61584 9.09888 8.34162 9.09888 8.34162C9.09888 8.34162 8.17521 7.42165 7.9665 7.24031C7.75779 7.05898 7.51355 7.1607 7.51355 7.1607C7.07392 7.44377 6.61209 7.69145 6.58545 8.88122C6.58545 9.99579 7.43362 11.1413 8.3484 12.0303C9.26762 13.0343 10.5288 14.0428 11.75 14.0383C12.9445 14.0118 13.1932 13.5562 13.4774 13.1139C13.4774 13.1139 13.5795 12.8751 13.3975 12.6628C13.2154 12.4549 12.2917 11.535 12.2917 11.535V11.5394Z" fill="white"/>
</g>
<defs>
<clipPath id="clip0_73_2185">
<rect width="21" height="21" fill="white"/>
</clipPath>
</defs>
</svg>
