<svg width="21" height="21" viewBox="0 0 21 21" fill="none" xmlns="http://www.w3.org/2000/svg">
<circle cx="10.5" cy="10.5" r="10.5" fill="white"/>
<path d="M15.2415 4.31805C13.7367 4.9779 3.77709 10.0642 3.32908 10.4079C2.6628 10.9303 2.98445 11.3564 4.51228 11.9338C6.13201 12.5524 6.48812 12.5937 7.10844 12.2775C7.38414 12.1263 8.86602 10.999 10.4053 9.77556C11.9332 8.55209 13.2657 7.50732 13.3576 7.46608C13.438 7.42484 13.5529 7.49358 13.5874 7.6173C13.6448 7.78226 13.1968 8.37338 11.9561 9.80305C9.07279 13.0886 9.15321 12.9786 9.15321 13.4322C9.15321 13.6934 9.26808 13.9546 9.46337 14.1883C9.94584 14.7244 13.9435 17.8587 14.2766 17.9549C15.0233 18.1886 15.3679 17.5425 15.701 15.3293C16.195 12.0988 16.9991 5.78897 16.9991 5.10162C17.0221 3.91939 16.5971 3.74068 15.2415 4.31805Z" fill="#97191D"/>
</svg>
