<svg width="21" height="21" viewBox="0 0 21 21" fill="none" xmlns="http://www.w3.org/2000/svg">
<circle cx="10.5" cy="10.5" r="10.5" fill="white"/>
<path d="M4.96573 7H3.50403C3.09073 7 3 7.19153 3 7.41331C3 7.79637 3.49395 9.71169 5.29839 12.252C6.50806 13.9859 8.20161 14.9234 9.74395 14.9234C10.6714 14.9234 10.7823 14.7117 10.7823 14.3589V13.0484C10.7823 12.6351 10.873 12.5444 11.1653 12.5444C11.377 12.5444 11.75 12.6552 12.6169 13.4819C13.6048 14.4698 13.7661 14.9133 14.3206 14.9133H15.7823C16.1956 14.9133 16.4073 14.7016 16.2863 14.2984C16.1552 13.8851 15.6815 13.2903 15.0565 12.5847C14.7137 12.1815 14.2097 11.748 14.0484 11.5363C13.8367 11.254 13.8972 11.1331 14.0484 10.8911C14.0484 10.8911 15.8226 8.39113 16.0141 7.53427C16.1048 7.22177 16.0141 7 15.5706 7H14.1089C13.7359 7 13.5645 7.19153 13.4738 7.41331C13.4738 7.41331 12.7278 9.21774 11.6794 10.3972C11.3367 10.7399 11.1855 10.8407 11.004 10.8407C10.9133 10.8407 10.7722 10.7298 10.7722 10.4274V7.53427C10.7722 7.16129 10.6613 7 10.3589 7H8.07056C7.83871 7 7.69758 7.17137 7.69758 7.33266C7.69758 7.68548 8.22177 7.76613 8.27218 8.75403V10.9012C8.27218 11.375 8.19153 11.4556 8 11.4556C7.50605 11.4556 6.30645 9.64113 5.59073 7.56452C5.4496 7.16129 5.30847 7 4.93548 7H4.96573Z" fill="#9B191F"/>
</svg>
