<?xml version="1.0" standalone="no"?>
  <!DOCTYPE svg PUBLIC "-//W3C//DTD SVG 1.1//EN" "http://www.w3.org/Graphics/SVG/1.1/DTD/svg11.dtd" >
  <svg>
  <metadata>
  Created by font-carrier
  </metadata>
  <defs>
  <font id="PaladinRus" horiz-adv-x="5587" vert-adv-y="5587" >
    <font-face
      
      font-family="PaladinRus"
      
      font-weight="400"
      
      font-stretch="normal"
      
      units-per-em="4167"
      
      ascent="3332"
      
      descent="-835"
      
    />
      <missing-glyph />

      

      
      <glyph glyph-name="uni21" unicode="&#x21;" d="M713 938L135 741L135 2265Q135 2349 120 2424L106 2494Q106 2541 341 2606Q557 2666 647 2666Q668 2666 692 2582Q713 2509 713 2474L713 938M713 213Q713-6 152-6Q143-5 135 0L135 414L713 618L713 213Z"  horiz-adv-x="1135" vert-adv-y="4167"  />

      
      <glyph glyph-name="uni22" unicode="&#x22;" d="M991 2662Q991 2646 936 2400L807 1823L678 2400Q623 2646 623 2662Q623 2701 696 2784Q769 2867 807 2867Q845 2867 918 2784Q991 2701 991 2662M369 2662Q369 2636 300 2333L184 1823L55 2400Q0 2646 0 2662Q0 2701 73 2784Q146 2867 184 2867Q222 2867 295.50 2784Q369 2701 369 2662Z"  horiz-adv-x="1413" vert-adv-y="4167"  />

      
      <glyph glyph-name="uni23" unicode="&#x23;" d="M1901 1487Q1899 1458 1761 1378Q1552 1257 1348 1257Q1332 1257 1300.50 1259.50Q1269 1262 1253 1262Q1250 1228 1233 1051Q1220 916 1181 849Q1137 773 1024 709L1065 1257L614 1266Q598 1092 569 905Q556 821 356 709L442 1262Q202 1262 125 1258Q106 1257 63 1253Q20 1249 0 1249L0 1251Q0 1288 167 1385Q340 1486 427 1486Q441 1486 451 1483L520 1876Q411 1888 279 1888Q137 1888 0 1867L0 1864L-7 1865L0 1867Q6 1879 116 1962Q235 2053 322 2079Q395 2101 549 2101Q567 2280 598 2462Q616 2568 782 2662L713 2101L1188 2097Q1210 2171 1245 2462Q1269 2510 1324 2578Q1391 2660 1421 2662L1352 2097L1351 2097L1349 2097L1355 2096L1386 2094Q1464 2089 1528 2089L1568 2089Q1662 2089 1753 2098Q1865 2109 1846 2109Q1881 2109 1901 2101Q1899 2067 1741 1984Q1602 1911 1536 1892Q1480 1876 1327 1876L1278 1479Q1314 1475 1397 1475Q1609 1475 1709 1482Q1716 1482 1776 1490Q1816 1495 1843 1495Q1880 1495 1901 1487M1163 1872L684 1876L635 1495L1106 1491L1163 1872Z"  horiz-adv-x="2253" vert-adv-y="4167"  />

      
      <glyph glyph-name="uni24" unicode="&#x24;" d="M2707 1171Q2707 936 2491 729Q2458 698 2154 446Q2085 387 1903 236Q1616 0 1397 0Q1365 0 1303 16L1270-313L1167-404L1208 49L1118 94L1077-313L975-404L1024 135Q517 385 344 385Q241 385 160 327L0 213Q4 231 68 316Q399 758 758 758Q927 758 1077 684L1151 1425Q889 1118 856 1118Q804 1118 676 1195Q340 1397 340 1741Q340 1959 514 2199Q653 2391 863 2576Q1094 2779 1286 2859L1315 3187L1421 3277L1380 2859Q1431 2843 1475 2822L1507 3187L1614 3277L1565 2785Q1982 2609 2232 2609Q2341 2609 2418 2649Q2464 2674 2585 2740Q2582 2685 2294.50 2485.50Q2007 2286 1937 2286Q1687 2286 1520 2310L1458 1671Q1780 1933 1823 1933Q1865 1933 2007 1897Q2308 1821 2491 1653Q2707 1455 2707 1171M1237 2372Q1155 2374 909 2515Q786 2469 786 2191Q786 1790 1159 1548L1237 2372M2261 791Q2261 1063 2081 1245Q1820 1509 1450 1597L1352 545Q1687 348 1913 348Q1929 348 2020 410Q2261 575 2261 791M1425 2331L1331 2351L1167 639L1262 594L1425 2331Z"  horiz-adv-x="2834" vert-adv-y="4167"  />

      
      <glyph glyph-name="uni25" unicode="&#x25;" d="M930 2462Q930 2348 861 2265Q816 2212 668 2111Q520 2010 454 1987Q416 1974 377 1974Q210 1974 108 2098Q12 2213 12 2384Q12 2546 83 2626Q129 2678 297 2766Q475 2859 549 2859Q716 2859 824 2743Q930 2631 930 2462M1925 2544Q1925 2433 1901 2351Q1866 2230 522 585Q266 271 25 0Q12 6 12 111Q12 346 49 459Q104 627 1407 2293Q1636 2586 1884 2867Q1925 2731 1925 2544M1954 455Q1954 341 1885 258Q1839 203 1692 102.50Q1545 2 1478-19Q1440-31 1401-31Q1236-31 1133 92Q1036 208 1036 377Q1036 539 1107 619Q1153 671 1321 759Q1499 852 1573 852Q1740 852 1848 736Q1954 624 1954 455M692 2314Q692 2613 471 2712Q391 2748 348 2748Q290 2748 257 2647Q233 2573 233 2499Q233 2228 438 2131Q518 2093 565 2093Q625 2093 662 2177Q692 2245 692 2314M1716 307Q1716 606 1495 705Q1415 741 1372 741Q1314 741 1281 640Q1257 566 1257 492Q1257 221 1462 124Q1542 86 1589 86Q1649 86 1686 170Q1716 238 1716 307Z"  horiz-adv-x="2359" vert-adv-y="4167"  />

      
      <glyph glyph-name="uni26" unicode="&#x26;" d="M4354-59Q4345-84 3963-279Q3576-477 3523-477Q3438-477 2257 545Q2175 467 1630 215Q1081-39 987-39Q872-39 703 51Q413 206 215 480Q0 778 0 1085Q0 1287 406 1491Q681 1630 1004 1716Q780 1928 724 1999Q582 2179 582 2359Q582 2488 880 2625Q1063 2709 1293 2771Q1649 2867 1909 2867Q1939 2867 2048 2782Q2335 2559 2335 2335Q2335 2210 2140 1998Q1964 1807 1827 1737Q2116 1478 2687 954Q2793 1086 2793 1421Q2793 1543 2777 1655Q2639 1671 2519 1671Q2413 1671 2376 1655Q2339 1655 2339 1667Q2339 1755 2457 1903Q2579 2056 2662 2056Q2672 2056 2934 2025Q3187 1995 3359 1995Q3584 1995 3686 2044Q3736 2044 3736 2032Q3736 1981 3639 1860Q3523 1715 3429 1682Q3378 1664 3154 1651Q3154 1422 3046 1225Q2927 1008 2728 934Q3987-133 4104-133Q4137-133 4224-98Q4315-62 4354-59M1905 2085Q1905 2278 1711 2498Q1512 2724 1323 2724Q1159 2724 1159 2597Q1159 2314 1774 1774Q1905 1772 1905 2085M2224 582Q1796 976 1057 1667Q832 1610 755 1576Q565 1492 565 1364Q565 1126 760 872Q882 712 1099 546Q1357 348 1511 348Q1644 348 1875 429Q2075 499 2224 582Z"  horiz-adv-x="4465" vert-adv-y="4167"  />

      
      <glyph glyph-name="uni27" unicode="&#x27;" d="M369 2662Q369 2636 300 2333L184 1823L55 2400Q0 2646 0 2662Q0 2701 73 2784Q146 2867 184 2867Q222 2867 295.50 2784Q369 2701 369 2662Z"  horiz-adv-x="782" vert-adv-y="4167"  />

      
      <glyph glyph-name="uni28" unicode="&#x28;" d="M1081 188Q1073 137 807 66Q560 0 467 0Q445 0 364 107Q205 317 102 610Q-2 909-2 1167Q-2 2125 503 2651Q806 2967 1081 3056Q939 2957 784 2701Q520 2265 520 1581Q520 772 983 290L1081 188Z"  horiz-adv-x="1499" vert-adv-y="4167"  />

      
      <glyph glyph-name="uni29" unicode="&#x29;" d="M1085 1888Q1085 931 578 404Q276 90 0 0Q252 176 436 663Q561 994 561 1475Q561 2306 116 2751L0 2867Q8 2919 275 2991Q516 3056 614 3056Q636 3056 718 2950Q875 2747 980 2445Q1085 2143 1085 1888Z"  horiz-adv-x="1470" vert-adv-y="4167"  />

      
      <glyph glyph-name="uni2a" unicode="&#x2a;" d="M1188 2216L631 1917L1176 1618Q1071 1577 987 1577L614 1860L653 1561Q676 1385 676 1372Q676 1351 594.50 1304Q513 1257 487 1257L557 1860L180 1577Q-9 1577-10 1618L545 1917L0 2216Q96 2257 188 2257L561 1974L500 2462Q498 2482 580 2529Q662 2576 688 2576L618 1974L995 2257Q1026 2257 1103 2244Q1187 2230 1188 2216Z"  horiz-adv-x="1458" vert-adv-y="4167"  />

      
      <glyph glyph-name="uni2b" unicode="&#x2b;" d="M1843 1679Q1672 1320 1532 1249Q1493 1229 1126 1229L1126 889Q1126 805 932 652Q749 507 676 504L672 508Q717 549 717 754L717 1229L276 1229Q60 1229 0 1188Q2 1211 46 1297Q169 1536 307 1618Q341 1638 717 1638L717 1978Q717 2113 1027 2295Q1089 2331 1171 2363Q1168 2358 1163 2351Q1126 2301 1126 2113L1126 1638L1622 1638Q1779 1638 1843 1679Z"  horiz-adv-x="2310" vert-adv-y="4167"  />

      
      <glyph glyph-name="uni2c" unicode="&#x2c;" d="M770 283Q770 265 532-153Q410-367 266-571Q311-380 311-211Q311 10 258 43L110 113Q0 165 0 205Q0 235 218 363.50Q436 492 487 492Q525 492 647.50 403.50Q770 315 770 283Z"  horiz-adv-x="1143" vert-adv-y="4167"  />

      
      <glyph glyph-name="uni2d" unicode="&#x2d;" d="M1929 1679Q1792 1392 1792 1275Q1792 1248 1800 1229L381 1229Q146 1229 86 1188Q88 1210 132 1297Q256 1541 393 1618Q429 1638 532 1638L1708 1638Q1865 1638 1929 1679Z"  horiz-adv-x="2310" vert-adv-y="4167"  />

      
      <glyph glyph-name="uni2010" unicode="&#x2010;" d="M1929 1679Q1792 1392 1792 1275Q1792 1248 1800 1229L381 1229Q146 1229 86 1188Q88 1210 132 1297Q256 1541 393 1618Q429 1638 532 1638L1708 1638Q1865 1638 1929 1679Z"  horiz-adv-x="2310" vert-adv-y="4167"  />

      
      <glyph glyph-name="uni2e" unicode="&#x2e;" d="M770 283Q755 262 530 130Q309 0 295 0Q235 0 120 74Q0 151 0 205Q0 235 218 363.50Q436 492 487 492Q525 492 647 404Q769 316 770 283Z"  horiz-adv-x="1167" vert-adv-y="4167"  />

      
      <glyph glyph-name="uni2f" unicode="&#x2f;" d="M1925 2544Q1925 2433 1901 2351Q1866 2230 522 585Q266 271 25 0Q12 6 12 111Q12 346 49 459Q104 627 1407 2293Q1636 2586 1884 2867Q1925 2731 1925 2544Z"  horiz-adv-x="2343" vert-adv-y="4167"  />

      
      <glyph glyph-name="uni30" unicode="&#x30;" d="M2560 1659Q2560 889 1990 398Q1847 275 1643 151Q1385-6 1257-6Q1123-6 883 114Q691 210 543 320Q0 724 0 1389Q0 1719 416 2153Q748 2500 1129 2721Q1380 2867 1487 2867Q1663 2867 1849 2798Q2200 2667 2387 2347Q2560 2052 2560 1659M2093 1167Q2093 1547 1878 1869Q1668 2183 1318 2345Q1136 2429 1020 2429Q805 2429 686 2198Q590 2012 590 1774Q590 1403 846 1036Q1085 693 1432 506Q1641 393 1790 393Q1928 393 2045 827Q2093 1005 2093 1167Z"  horiz-adv-x="2757" vert-adv-y="4167"  />

      
      <glyph glyph-name="uni31" unicode="&#x31;" d="M807 369Q807 329 648 269Q602 252 520 205Q252-14 188-14Q172-14 172 0L172 2437Q106 2392 0 2347Q592 2875 758 2875Q803 2875 803 2826L807 369Z"  horiz-adv-x="1200" vert-adv-y="4167"  />

      
      <glyph glyph-name="uni32" unicode="&#x32;" d="M1892 446Q1858 420 1581 203L1319 0L66 0Q433 401 729 794Q1184 1400 1184 1642Q1184 2103 839 2349Q704 2445 639 2445Q561 2445 561 2195Q561 1700 852 1483Q847 1428 635.50 1199.50Q424 971 377 971Q311 971 216 1070Q0 1296 0 1634Q0 1972 307 2308Q557 2581 917 2768Q1108 2867 1151 2867Q1409 2867 1611 2620Q1802 2386 1802 2122Q1802 1836 1330 1239Q1016 842 614 446L1892 446Z"  horiz-adv-x="2167" vert-adv-y="4167"  />

      
      <glyph glyph-name="uni33" unicode="&#x33;" d="M1839 1147Q1839 918 1546 664Q1344 489 1043 277Q650 0 532 0Q228 0 67 235Q0 333 0 397Q0 477 203 628Q347 735 483 807Q483 680 704 542Q909 414 1049 414Q1262 414 1262 717Q1262 968 1121 1109Q916 1314 627 1335Q757 1413 924 1572Q1102 1741 1102 1929Q1102 2143 935 2291Q774 2433 557 2433Q420 2433 254 2328Q265 2354 403 2487Q801 2871 1004 2871Q1263 2871 1470 2725Q1700 2563 1700 2314Q1700 2078 1225 1712Q1491 1705 1659 1561Q1839 1407 1839 1147Z"  horiz-adv-x="2023" vert-adv-y="4167"  />

      
      <glyph glyph-name="uni34" unicode="&#x34;" d="M2503 1569Q2342 1430 2028 1004Q2027 1065 1720 1065L1720 434Q1720 372 1761 332Q1280 0 1262 0Q1204 0 1147 61L1147 1065L0 1065Q8 1088 186 1314Q1125 2505 1729 2867L1724 1544L2503 1569M1147 1544L1147 2195Q1097 2191 804.50 1895.50Q512 1600 504 1544L1147 1544Z"  horiz-adv-x="2736" vert-adv-y="4167"  />

      
      <glyph glyph-name="uni35" unicode="&#x35;" d="M1876 2843L1368 2421L848 2396L811 1647Q1007 1778 1204 1778Q1472 1778 1639 1616.50Q1806 1455 1806 1188Q1806 925 1467 610Q1224 384 892 198Q539 0 414 0Q272 0 144 83Q0 177 0 311L455 717L702 555Q830 471 979 471Q1129 471 1190 524Q1257 582 1257 729Q1257 970 1124 1167Q974 1389 745 1389Q614 1389 242 1081L311 2413L909 2822L1876 2843Z"  horiz-adv-x="2019" vert-adv-y="4167"  />

      
      <glyph glyph-name="uni36" unicode="&#x36;" d="M1810 1348Q1810 1070 1455 670Q1176 356 854 138Q650 0 582 0Q555 0 459 52Q228 177 108 435Q0 665 0 950Q0 1268 180 1695Q333 2057 556 2373Q671 2536 705 2556L1217 2859Q854 2405 590 1602Q1050 1974 1180 1974Q1447 1974 1692 1632Q1810 1467 1810 1348M1257 934Q1257 1079 1140 1240Q1057 1354 930 1451Q775 1569 664 1569Q618 1569 569 1520Q549 1417 549 1327Q549 916 883 573Q1015 438 1077 438Q1105 438 1150 499Q1257 643 1257 934Z"  horiz-adv-x="2052" vert-adv-y="4167"  />

      
      <glyph glyph-name="uni37" unicode="&#x37;" d="M1884 2855Q1881 2823 1623 2346Q1334 1811 1303 1745Q1758 1745 1864 1708L1343 1335Q1332 1327 1303 1327Q1245 1327 1130 1348Q1081 1260 997 1022Q877 682 762 295L127-18Q111-21 111-6Q111 96 733 1335L258 1311Q265 1331 329 1391Q655 1696 938 1708Q1065 1924 1133 2044Q1297 2336 1298 2376Q1284 2388 1221 2388Q1058 2388 534 2333L0 2277Q6 2306 232 2541Q320 2632 372 2681Q477 2779 520 2793Q575 2811 1043 2840Q1477 2867 1737 2867Q1853 2867 1880 2859L1884 2855Z"  horiz-adv-x="2003" vert-adv-y="4167"  />

      
      <glyph glyph-name="uni38" unicode="&#x38;" d="M1913 1094Q1913 731 1008 200Q667 0 614 0Q403 0 200 213Q0 423 0 635Q0 868 209 1083Q401 1280 557 1384Q448 1439 317 1559Q172 1692 172 1864Q172 2118 635 2497Q1087 2867 1352 2867Q1561 2867 1712 2763Q1884 2645 1884 2445Q1884 2243 1249 1761Q1496 1666 1679 1509Q1913 1308 1913 1094M1311 2028Q1311 2263 1013 2415Q897 2474 844 2474Q750 2474 750 2322Q750 2071 1039 1879Q1149 1806 1176 1806Q1236 1806 1277 1890Q1311 1960 1311 2028M1352 614Q1352 842 1167 1034Q1013 1194 773 1292Q658 1339 639 1339Q592 1339 563 1231Q541 1149 541 1081Q541 908 776.50 667Q1012 426 1184 426Q1352 426 1352 614Z"  horiz-adv-x="2064" vert-adv-y="4167"  />

      
      <glyph glyph-name="uni39" unicode="&#x39;" d="M1909 2130Q1909 1753 1508 1147Q1216 706 819 287L213-10Q474 255 611 407Q927 757 930 856Q751 799 700 799Q631 799 509 860Q274 978 136 1191Q-6 1409-6 1667Q-6 1987 419 2427Q844 2867 1163 2867Q1269 2867 1452 2772Q1909 2535 1909 2130M1335 1737Q1335 2155 914 2348Q746 2425 635 2425Q504 2425 504 2200Q504 1657 924 1364Q1089 1249 1180 1249Q1191 1249 1232 1316Q1335 1485 1335 1737Z"  horiz-adv-x="2150" vert-adv-y="4167"  />

      
      <glyph glyph-name="uni3a" unicode="&#x3a;" d="M795 1307Q781 1287 559 1155.50Q337 1024 319 1024Q257 1024 144 1097Q25 1174 25 1229Q25 1259 243 1387.50Q461 1516 512 1516Q550 1516 672 1428Q794 1340 795 1307M795 283Q781 263 559 131.50Q337 0 319 0Q257 0 144 73Q25 150 25 205Q25 235 243 363.50Q461 492 512 492Q550 492 672 404Q794 316 795 283Z"  horiz-adv-x="1192" vert-adv-y="4167"  />

      
      <glyph glyph-name="uni3b" unicode="&#x3b;" d="M795 1450Q781 1430 559 1298.50Q337 1167 319 1167Q257 1167 144 1240Q25 1317 25 1372Q25 1402 243 1530.50Q461 1659 512 1659Q550 1659 672 1571Q794 1483 795 1450M795 303Q795 285 557-133Q435-347 291-551Q332-385 332-174Q332 0 319 20Q301 47 156 118Q25 182 25 225Q25 257 242.50 384.50Q460 512 512 512Q550 512 672.50 423.50Q795 335 795 303Z"  horiz-adv-x="1192" vert-adv-y="4167"  />

      
      <glyph glyph-name="uni3c" unicode="&#x3c;" d="M1413 500Q896 205 877 205Q863 205 651 494Q0 1380 0 1434Q0 1459 334 1768Q662 2071 863 2246Q1294 2620 1413 2662Q463 1778 463 1745Q463 1729 894 1176Q1363 574 1413 500Z"  horiz-adv-x="1810" vert-adv-y="4167"  />

      
      <glyph glyph-name="uni3d" unicode="&#x3d;" d="M1843 2089Q1671 1730 1532 1659Q1491 1638 1376 1638L295 1638Q60 1638 0 1597Q2 1642 100 1800Q207 1972 307 2028Q343 2048 446 2048L1622 2048Q1780 2048 1843 2089M1843 1311Q1671 952 1532 881Q1491 860 1376 860L295 860Q60 860 0 819Q2 842 46 928Q170 1170 307 1249Q343 1270 446 1270L1622 1270Q1780 1270 1843 1311Z"  horiz-adv-x="2077" vert-adv-y="4167"  />

      
      <glyph glyph-name="uni3e" unicode="&#x3e;" d="M1413 1434Q1413 1415 1068 1096Q749 801 543 621Q113 246 0 205L502 676Q950 1096 950 1122Q950 1135 519 1694L0 2367Q250 2512 537 2662Q615 2595 1016 2029Q1413 1469 1413 1434Z"  horiz-adv-x="1786" vert-adv-y="4167"  />

      
      <glyph glyph-name="uni3f" unicode="&#x3f;" d="M1147 2425Q1147 2267 1099 2172Q1065 2105 940 1936Q713 1629 713 1229Q713 1197 464.50 1012Q216 827 164 823Q164 1099 240 1303Q300 1463 439 1713Q561 1932 561 2011Q561 2470 0 2470L-6 2478Q-2 2510 88 2608Q337 2879 492 2879Q721 2879 916 2768Q1147 2636 1147 2425M913 393Q905 362 663.50 181Q422 0 389 0Q365 0 285 167Q205 334 205 377Q205 399 433.50 592.50Q662 786 696 786Q744 786 913 393Z"  horiz-adv-x="1569" vert-adv-y="4167"  />

      
      <glyph glyph-name="uni40" unicode="&#x40;" d="M2662 1331Q2662 557 1835 557Q1527 557 1380 860Q1356 855 1208 780Q834 590 762 590Q680 590 621 765Q573 907 573 1016Q573 1227 890 1355Q1014 1402 1368 1536Q1368 1650 1263 1801Q1151 1962 1044 1962Q987 1962 872 1806Q887 1955 1212 2111Q1387 2195 1430 2195Q1480 2195 1581 2142Q1835 2009 1835 1851L1835 1098Q1835 976 1898 897Q1966 811 2085 811Q2267 811 2371 988Q2458 1136 2458 1331Q2458 1798 2143 2126Q1825 2458 1360 2458Q873 2458 541 2139Q205 1816 205 1331Q205 856 530.50 530.50Q856 205 1331 205Q1746 205 2232 369Q2226 333 2096 241Q1754 0 1331 0Q770 0 385 385Q0 770 0 1331Q0 1892 385 2277Q770 2662 1331 2662Q1892 2662 2277 2277Q2662 1892 2662 1331M1368 930L1368 1425Q1237 1425 1129 1387Q979 1334 979 1229Q979 868 1171 868Q1207 868 1282 887Q1368 909 1368 930Z"  horiz-adv-x="3097" vert-adv-y="4167"  />

      
      <glyph glyph-name="uni41" unicode="&#x41;" d="M1561 2535Q1561 2502 1390.50 2348Q1220 2194 1180 2191Q1180 2313 994 2425Q825 2527 692 2527Q547 2527 493 2513Q377 2483 377 2380Q377 2121 420 2029Q490 1880 717 1880Q714 1845 551 1684.50Q388 1524 356 1524Q168 1524 87 1594Q0 1670 0 1855Q0 2057 120 2234Q178 2319 389 2535Q433 2582 551 2701Q715 2863 983 2863Q1319 2863 1486 2687Q1561 2608 1561 2535M2773 385Q2647 269 2298-6Q2227-6 2145 103Q1954 356 1954 1233Q1917 1222 1724 1077Q1539 938 1503 938Q1465 938 1376 993Q1282 1051 1249 1057Q934 695 684 553Q693 508 1384 311Q1049 0 938 0Q885 0 734 52Q502 132 223 205Q224 204 224 203Q203 189 41 135Q127 254 491 483Q590 545 647 586Q781 682 887 900Q975 1081 975 1282Q975 1336 1009 1501Q1108 1981 1437 2314Q1617 2496 1933 2597Q1975 2610 2152 2708Q2315 2798 2339 2798Q2396 2798 2396 2605L2396 1544Q2396 743 2558 496Q2636 377 2720 377Q2754 377 2773 385M1950 1286L1950 2515Q1607 2515 1418 1679Q1348 1369 1348 1253Q1374 1259 1476 1338Q1575 1414 1597 1442Q1623 1417 1768.50 1353Q1914 1289 1950 1286Z"  horiz-adv-x="2867" vert-adv-y="4167"  />

      
      <glyph glyph-name="uni42" unicode="&#x42;" d="M3191 1298Q3191 1153 3131 1033Q3062 895 2935 772Q2868 709 2696 546Q2411 275 2313 199Q2049-6 1864-6Q1667-6 1205 197.50Q743 401 532 401Q365 401 238 319Q811 773 811 1069L811 2138Q792 2132 303 1655Q188 1836 0 1946Q7 2004 377 2331Q439 2330 672 2118Q893 2339 984 2417Q1168 2575 1343 2654Q1208 2479 1208 2343L1208 1225Q1208 1126 823 758Q913 779 1008 779Q1054 779 1102 774Q1483 1168 1483 1401L1483 2380Q1483 2447 1703 2657Q1786 2736 1840 2780Q1946 2866 1995 2867Q2099 2799 2372 2625Q2559 2508 2802 2494L2150 1847Q2301 1933 2507 1933Q3191 1933 3191 1298M2331 2109Q2154 2109 1876 2261L1876 1655L2331 2109M2748 831Q2748 1293 2407 1477Q2261 1556 2114 1556Q1879 1556 1810 1475Q1773 1429 1664 1300Q1580 1201 1171 758Q2199 352 2339 352Q2358 352 2466 424Q2748 612 2748 831Z"  horiz-adv-x="3351" vert-adv-y="4167"  />

      
      <glyph glyph-name="uni43" unicode="&#x43;" d="M2298 2601Q2262 2596 2133 2445Q2034 2329 2002 2266.50Q1970 2204 1933 2056Q1914 2210 1870 2260Q1838 2296 1684 2369Q1505 2454 1450 2454Q1431 2454 1407.50 2419Q1384 2384 1384 2363L1384 1499Q1384 1401 803 856Q1332 373 1614 373Q1801 373 1998 522Q2182 661 2281 770Q2276 737 2177 611Q1989 373 1755 199Q1462-18 1225-18Q924-18 622 221Q363 426 190 725Q0 1053 0 1376Q0 2037 650 2478Q1027 2734 1384 2834L1384 2466Q1761 2867 1823 2867Q1867 2867 2075.50 2751Q2284 2635 2298 2601M922 1237L922 2560Q873 2556 746 2460Q397 2197 397 1765Q397 1446 540 1212Q676 989 778 893Q922 1077 922 1237Z"  horiz-adv-x="2417" vert-adv-y="4167"  />

      
      <glyph glyph-name="uni44" unicode="&#x44;" d="M2671 1556Q2671 711 2186 298Q1836 0 1597 0Q1506 0 1057 235.50Q608 471 504 471Q446 471 184 348Q474 532 713 730Q1085 1038 1085 1196L1085 2118Q1085 2307 1397 2499Q892 2597 360 2597Q256 2597 143 2642Q0 2699 0 2789Q0 2919 471 3195Q410 3117 410 3043Q410 2789 1057 2789Q1554 2789 1735 2776Q2111 2749 2283 2670Q2538 2553 2614 2254Q2671 2030 2671 1556M1057 2449Q840 2371 840 2032L840 1184Q840 983 622 824Q417 674 258 606Q406 696 406 1012L406 2060Q406 2223 659 2337Q836 2417 1057 2449M2175 1446Q2169 1577 2144 1838Q2134 1948 2099 2115Q2003 2381 1520 2478L1520 1446Q1520 1272 1368 1159L2175 1446M2187 1257L2179 1384L1294 1069Q1290 1050 1053 852L2187 1257M2191 1196L963 762Q1293 602 1999 279Q2191 279 2191 1196Z"  horiz-adv-x="2839" vert-adv-y="4167"  />

      
      <glyph glyph-name="uni45" unicode="&#x45;" d="M2736 2621Q2381 2290 2261 2290Q2200 2290 2003.50 2361.50Q1807 2433 1720 2433Q1683 2433 1683 2417L1683 1491Q2007 1823 2073 1823Q2119 1823 2341.50 1714Q2564 1605 2630 1602Q2233 1233 2126 1233Q2110 1233 1688 1430Q1688 1269 1428 1051Q1252 904 1020 774Q1249 1018 1249 1286L1249 2171Q1249 2437 1826 2735Q2043 2847 2085 2847Q2151 2847 2736 2621M2916 516Q2908 495 2758 366Q2339 4 2114 4Q2064 4 1786 120Q1198 365 1012 365Q786 365 393-27Q393 164 0 393Q569 772 569 1032L569 2245Q569 2465 855 2643Q1065 2774 1343 2843Q1246 2804 1131 2711Q1004 2608 1004 2458L1004 1311Q1004 1108 496 696Q599 696 712 589Q808 499 860 389Q1170 659 1430 659Q1575 659 1915 546Q2054 499 2416 377Q2515 344 2580 344Q2646 344 2916 516Z"  horiz-adv-x="3084" vert-adv-y="4167"  />

      
      <glyph glyph-name="uni46" unicode="&#x46;" d="M2740 1651Q2662 1631 2439 1438Q2245 1270 2040 1270Q2089 1036 2089 913Q2089 671 1687 204Q1412-115 1074-411Q867-592 840-592Q838-592 637.50-491.50Q437-391 340-391Q285-391 152-469Q159-447 259-329Q542 4 729 4Q934 4 1098-133Q1139-26 1139 41Q1139 233 741 1257Q160 1257 0 1151Q5 1175 111 1288Q402 1597 651 1597Q610 1841 610 1933Q610 2130 872 2357Q1072 2530 1311 2642Q1307 2617 1249 2576Q1180 2527 1147 2469Q1094 2374 1094 2212Q1094 1947 1240 1511L1474 812Q1528 651 1528 483Q1528 306 1163-170L1204-195Q1377-30 1506 160Q1675 409 1675 578Q1675 813 1515.50 1268Q1356 1723 1356 1958Q1356 2174 1563 2427Q1726 2626 1954 2783Q2076 2867 2093 2867Q2136 2867 2416 2723Q2696 2579 2707 2552L2269 2175Q1913 2425 1782 2425Q1757 2425 1757 2359Q1757 2174 1913 1651L2740 1651Z"  horiz-adv-x="2810" vert-adv-y="4167"  />

      
      <glyph glyph-name="uni47" unicode="&#x47;" d="M2650 1290Q2650 1051 2260 646Q1629-10 1225-10Q736-10 358 454Q0 893 0 1393Q0 1914 462 2323Q841 2659 1409 2834Q1378 2761 1376 2642Q1377 2737 1378 2746Q1380 2703 1380 2445Q1778 2867 1823 2867Q1829 2867 2020.50 2750.50Q2212 2634 2257 2634Q2286 2634 2310 2642Q2318 2634 2318 2621Q2318 2547 1720 1868Q1944 1954 2052 1954Q2349 1954 2505 1767Q2650 1593 2650 1290M1925 2200Q1925 2215 1724 2332Q1518 2452 1466 2458Q1438 2445 1380 2392L1380 1585Q1925 2139 1925 2200M2269 950Q2269 1218 2075 1405Q1883 1589 1614 1589Q1458 1589 1360 1475Q1207 1297 807 860Q982 670 1204 539Q1465 385 1683 385Q1901 385 2085 559Q2269 733 2269 950M922 1401L922 2560Q669 2447 524 2202Q385 1968 385 1683Q385 1497 506 1267Q611 1068 762 909Q922 1000 922 1401Z"  horiz-adv-x="2728" vert-adv-y="4167"  />

      
      <glyph glyph-name="uni48" unicode="&#x48;" d="M2626 1270Q2626 1037 2373 795Q2215 649 1904 351Q1651 102 1651-174Q1651-463 1723-539Q1753-565 1810-616Q1812-625 1798-625Q1761-626 1679-576Q1475-452 1475-256Q1475-66 1583 92Q1652 193 1828.50 355.50Q2005 518 2073 614Q2154 729 2154 893Q2154 1123 1980 1317Q1826 1489 1592 1579Q1460 1630 1372 1630Q1309 1630 1212 1536L1212 188L782 0L782 2183Q782 2491 1271 2777Q1454 2884 1491 2884Q1652 2884 1930 2843Q2269 2793 2269 2736Q2269 2707 2087.50 2545.50Q1906 2384 1872 2384Q1862 2386 1724 2418Q1357 2503 1249 2503Q1212 2503 1212 2490L1212 1602Q1661 2056 1753 2056Q1793 2056 1930 2017Q2229 1932 2412 1758Q2626 1554 2626 1270M451 184L0 0L0 2253L451 2621L451 184Z"  horiz-adv-x="2757" vert-adv-y="4167"  />

      
      <glyph glyph-name="uni49" unicode="&#x49;" d="M2163 2871Q2015 2766 2015 2359L2015 889Q2015 841 1531 422Q1045 0 979 0Q969 0 551.50 219Q134 438 0 438Q8 484 229 668Q450 852 496 852Q512 852 541 844L942 1200Q655 1473 557 1475Q563 1511 1114.50 1977.50Q1666 2444 1675 2470L606 2449Q395 2445 285 2413Q143 2372 4 2253Q142 2429 316 2600Q563 2843 668 2843L1835 2843Q1967 2843 2163 2871M1602 2314L1049 1843Q1094 1843 1258.50 1714Q1423 1585 1446 1585Q1476 1585 1516 1634Q1548 1936 1548 2122Q1548 2173 1602 2314M1520 827L1520 1565Q1432 1559 610 819Q684 815 1033 610Q1379 406 1421 406Q1520 406 1520 827Z"  horiz-adv-x="2228" vert-adv-y="4167"  />

      
      <glyph glyph-name="uni4a" unicode="&#x4a;" d="M2367 2867Q2118 2594 2118 2376L2118 1090Q2118 790 1442 205Q1010-169 475-526Q-266-178-449-178Q-522-178-622-298Q-731-428-743-432Q-739-391-604-213Q-238 270 12 270Q176 270 555 81L934-109Q955-109 1017-51Q1171 94 1171 299Q1171 489 1062 651Q957 807 782 893Q788 914 979 1130Q1164 1339 1167 1393Q1117 1431 1013 1512Q930 1577 930 1683Q930 1831 1049 2028Q1098 2109 1266 2331Q1267 2343 1249 2343L319 2367Q169 2371 0 2056L-6 2064Q-5 2123 121 2326Q457 2867 717 2867L1864 2867Q1996 2867 2060 2892Q2055 2830 1783.50 2594.50Q1512 2359 1448 2359Q1384 2359 1384 2126Q1384 2008 1475 1911.50Q1566 1815 1683 1815L1683 2101Q1683 2300 1935 2545Q2122 2726 2367 2867M1683 778L1683 1774Q1654 1768 1159 1225Q1191 1241 1274 1241Q1397 1241 1513 1086Q1622 940 1622 811Q1622 436 1454 295Q1683 442 1683 778Z"  horiz-adv-x="2331" vert-adv-y="4167"  />

      
      <glyph glyph-name="uni4b" unicode="&#x4b;" d="M2765 553Q2756 503 2505.50 253Q2255 3 2212 0Q2212 197 2024 488Q1861 740 1677 899Q1627 943 1596 964Q1539 1004 1503 1004L1495 1012Q1498 1062 1946 1450Q1877 1502 1569 1679L1569 1425Q1569 1275 1279 1005Q1067 807 852 668Q865 683 903 726Q1130 980 1130 1286L1130 2269Q1130 2354 1497 2614Q1854 2867 1937 2867Q2022 2837 2299 2736Q2491 2666 2699 2605Q2695 2578 2511 2401Q2327 2224 2306 2224Q2235 2224 1716 2404Q1644 2429 1597 2429Q1573 2429 1573 2417L1573 1778Q1887 2068 1909 2068Q1956 2068 2174 1945.50Q2392 1823 2392 1802Q2392 1766 1921 1331Q2045 1331 2267 1081Q2443 883 2541 709Q2621 567 2621 492Q2621 479 2630 479Q2644 479 2694 512Q2749 548 2765 553M1683 340L1237 0Q1235 65 1075 178Q920 287 848 287Q805 287 483-2Q476 48 267.50 193.50Q59 339 0 340Q227 539 386 730Q492 857 492 1008L492 2154Q492 2382 761 2562Q957 2693 1237 2769Q885 2582 885 2376L885 1163Q885 920 389 631Q466 631 642 528Q824 422 827 360Q1122 631 1323 631Q1575 631 1683 340Z"  horiz-adv-x="2863" vert-adv-y="4167"  />

      
      <glyph glyph-name="uni4c" unicode="&#x4c;" d="M2544 2654Q2541 2637 2318 2479Q2091 2318 2081 2318Q2042 2318 1899 2386Q1756 2454 1716 2454Q1679 2454 1679 2417L1679 1372Q1679 1181 1421 977Q1224 821 987 729Q1245 913 1245 1188L1245 2302Q1245 2358 1608 2600Q1966 2839 2028 2839Q2071 2839 2295.50 2759Q2520 2679 2544 2654M2929 520Q2926 471 2691 308Q2247 0 2089 0Q2039 0 1948 39L1482 238Q1152 377 1036 377Q930 377 707 223Q681 205 393-2Q391 82 235.50 218.50Q80 355-6 356Q145 451 350 639Q565 836 565 1032L565 2302Q565 2563 1026 2780Q1211 2867 1319 2867Q1144 2740 1115 2713Q999 2605 999 2499L999 1311Q999 1059 492 692Q707 692 856 389L1143 554Q1305 647 1450 647Q1592 647 1903 542Q2032 497 2369 382Q2469 348 2535 348Q2640 348 2741 408L2929 520Z"  horiz-adv-x="3043" vert-adv-y="4167"  />

      
      <glyph glyph-name="uni4d" unicode="&#x4d;" d="M5456 1864Q5456 1542 5278 1260Q5012 839 4653 614Q5010 502 5216 421Q5366 362 5366 344Q5366 300 4882 0Q4871 18 4747 74Q4396 233 4125 233Q4160 233 4018 221Q4028 234 4178 327Q4919 786 4919 1536Q4919 2437 3961 2437Q3699 2437 3508 2318Q3437 2274 3437 2265L3437 1561Q3672 1528 3883 1528Q4171 1528 4211 1577Q4180 1456 4083 1298Q3980 1130 3801 1130Q3622 1130 3437 1143L3437 213L2982 0L2982 1151Q2982 1167 2736 1167Q2404 1167 2224 1057Q2311 1285 2360 1361Q2462 1519 2619 1544Q2645 1548 2982 1561L2982 2142Q2982 2327 2812 2387Q2659 2441 2265 2441Q2115 2441 1966 2433L1966 811Q1966 571 1748 390Q1565 238 1303 176Q1483 88 1483 70Q1483 32 1277-110Q1071-252 1020-252Q998-252 850-181Q682-100 656-91Q542-51 406-51Q280-51 0-150Q8-129 153-1Q554 352 696 352Q723 352 770 344Q819 399 819 590L819 2159Q819 2317 1189 2535Q1459 2694 1708 2781Q1506 2581 1365 2409Q1270 2293 1270 2195L1270 852Q1270 588 864 319Q1031 283 1208 217Q1516 395 1516 659L1516 2101Q1516 2240 1844 2553.50Q2172 2867 2314 2867Q2786 2867 3017 2801Q3437 2681 3437 2331Q3471 2342 3816 2608Q4142 2859 4235 2859Q4891 2859 5236 2510Q5456 2287 5456 1864Z"  horiz-adv-x="5587" vert-adv-y="4167"  />

      
      <glyph glyph-name="uni4e" unicode="&#x4e;" d="M3379 1905Q3379 1568 3111 1199Q2882 884 2556 664Q2916 544 3127 459Q3293 392 3293 373Q3293 327 2810 29Q2804 48 2675 104Q2320 258 2048 258Q1979 258 1942 246Q1971 269 2190 441Q2867 971 2867 1638Q2867 1836 2814 1974L1364 885L1364 459Q1364 234 1499 172Q1493 150 1275 92Q928 0 901 0Q819 0 819 442L819 2277Q805 2296 394 2336Q8 2374 8 2478Q8 2539 230 2700Q445 2856 520 2863Q492 2839 492 2810Q492 2725 766 2646Q995 2580 1126 2580Q1165 2580 1230 2600Q1301 2623 1331 2626Q1364 2510 1364 2298Q1981 2888 2146 2888Q3379 2888 3379 1905M2630 2228Q2470 2392 1999 2392Q1829 2392 1638 2360Q1364 2314 1364 2228L1364 1270L2630 2228M2785 2032Q2785 2069 2683 2187L1364 1192L1364 958L2785 2032Z"  horiz-adv-x="3510" vert-adv-y="4167"  />

      
      <glyph glyph-name="uni4f" unicode="&#x4f;" d="M2937 1507Q2937 997 2607 609Q2301 249 1794 82Q1527-6 1343-6Q967-6 660 183Q359 368 174 701Q0 1015 0 1360Q0 1779 222 2127Q441 2470 820 2658Q986 2740 1229 2826Q1254 2793 1311 2540Q1686 2839 1872 2839Q2168 2839 2523 2505Q2937 2116 2937 1507M2171 2077Q2067 2197 1860 2356Q1643 2523 1417 2523Q1315 2523 1315 2458L1315 1544L2171 2077M2298 1892Q2295 1916 2212 2032L1315 1470Q1315 1393 1130 1163L2298 1892M2486 1102Q2486 1532 2322 1835L729 831Q890 680 1206 477Q1547 258 1884 258Q2181 258 2347 544Q2486 783 2486 1102M807 1241L807 2544Q615 2541 487 2217Q406 2012 406 1602Q406 1173 688 881Q807 997 807 1241Z"  horiz-adv-x="3097" vert-adv-y="4167"  />

      
      <glyph glyph-name="uni50" unicode="&#x50;" d="M3863 1602Q3863 1246 3685 983Q3544 774 3133 430Q3040 351 2771 129Q2611 0 2380 0Q2227 0 2030 98Q1938 145 1700 266Q1706 23 1736-366Q1741-425 1774-498Q1314-678 1225-678Q1213-678 1208-670L1208 1664Q1208 2112 1287 2189L635 1692Q624 1714 553 1794Q337 2036 180 2036Q140 2036 87 1999Q27 1957 0 1950Q7 1974 104 2082Q378 2388 500 2388Q634 2388 796 2279Q869 2227 1061 2093Q1095 2096 1365 2301Q1695 2551 1909 2675Q2255 2875 2482 2875Q2996 2875 3422 2499Q3863 2109 3863 1602M3125 1970Q3028 2110 2817 2269Q2470 2531 2023 2531Q1704 2531 1704 2384L1704 815L3125 1970M3391 1270Q3391 1490 3293 1704L2122 754Q2503 328 2834 328Q3086 328 3253 686Q3391 981 3391 1270M3265 1765L3166 1921L1700 733L1700 496L3265 1765Z"  horiz-adv-x="3998" vert-adv-y="4167"  />

      
      <glyph glyph-name="uni51" unicode="&#x51;" d="M4174-59Q4174-91 3863-246Q3609-373 3473-428Q2963-152 1982 348Q1456 0 1130 0Q845 0 568 223Q330 414 175 698Q0 1018 0 1380Q0 1806 299 2182Q560 2510 979 2725Q1176 2826 1212 2826Q1234 2826 1271 2697Q1306 2575 1307 2531Q1716 2859 1827 2859Q1854 2859 2032 2787Q2390 2642 2621 2416Q2908 2136 2908 1806Q2908 1331 2329 903Q2289 873 2204 807Q2237 757 3023 316Q3826-135 3928-137Q4127-47 4157-47Q4174-47 4174-59M2400 1442Q2400 1776 2169 2059Q1961 2313 1631 2455Q1463 2527 1393 2527Q1307 2527 1307 2470L1307 1401Q1307 1199 745 868Q917 643 1158 496Q1427 332 1683 332Q1845 332 1901 393Q1873 404 1783.50 468Q1694 532 1679 553Q1911 688 2183 852Q2400 983 2400 1442M831 1319L831 2040Q831 2138 815 2318Q797 2519 770 2519Q746 2519 685 2476Q406 2280 406 1630Q406 1235 721 905Q831 917 831 1319Z"  horiz-adv-x="3215" vert-adv-y="4167"  />

      
      <glyph glyph-name="uni52" unicode="&#x52;" d="M3559 381Q3551 347 3283.50 175.50Q3016 4 2966 0Q2958 23 2847 200Q2274 1114 2085 1114Q2064 1114 1962 1053Q2326 1389 2552 1389Q2598 1389 2658 1364Q2844 1429 2951 1585Q3056 1738 3056 1937Q3056 2173 2751 2347Q2485 2499 2228 2499Q2171 2499 2171 2474L2171 1556Q2171 1383 1902 1113Q1690 900 1479 770Q1737 1052 1737 1266L1737 2335Q1737 2407 2039 2570Q2255 2686 2434 2759Q2700 2867 2814 2867Q3047 2867 3292 2661Q3547 2447 3547 2220Q3547 1989 3224 1705Q2996 1504 2691 1339Q2783 1336 3067 901Q3166 746 3424 344Q3468 358 3551 389L3559 381M1854 2679Q1727 2604 1624 2496Q1491 2357 1491 2249L1491 1229Q1491 1033 1118 696Q1168 695 1433.50 491Q1699 287 1757 287Q1792 287 1839 303Q1831 275 1568.50 137.50Q1306 0 1257 0Q1180 0 1011 126L772 304Q666 365 501 365Q698 438 852 555Q1057 711 1057 868L1057 2077Q1057 2197 1102 2253Q897 2087 643 1913Q516 2273 303 2273Q230 2273 0 2097Q2 2157 195 2302Q560 2576 721 2576Q798 2576 904 2455Q918 2439 1053 2273Q1534 2677 1854 2679Z"  horiz-adv-x="3510" vert-adv-y="4167"  />

      
      <glyph glyph-name="uni53" unicode="&#x53;" d="M2707 1171Q2707 937 2491 729Q2453 693 2154 446Q2085 387 1903 236Q1617 0 1397 0Q1302 0 903 192.50Q504 385 344 385Q257 385 160 327Q137 310 0 213Q4 231 68 316Q399 758 758 758Q930 758 1090 680L1151 1430Q887 1118 856 1118Q804 1118 676 1195Q340 1397 340 1741Q340 2007 613 2327Q832 2584 1118 2766Q1283 2871 1339 2871Q1353 2871 1538 2795Q1990 2609 2232 2609Q2338 2609 2418 2649Q2428 2654 2585 2740Q2582 2685 2295 2485.50Q2008 2286 1937 2286Q1687 2286 1532 2310L1479 1688Q1784 1933 1823 1933Q1865 1933 2007 1897Q2308 1821 2491 1653Q2707 1455 2707 1171M1233 2376Q1152 2376 909 2515Q786 2469 786 2191Q786 1791 1163 1544L1233 2376M2261 791Q2261 1063 2086 1243Q1831 1506 1470 1589L1376 532Q1683 348 1913 348Q1929 348 2020 410Q2261 575 2261 791M1475 2322L1294 2359L1147 651L1319 561L1475 2322Z"  horiz-adv-x="2810" vert-adv-y="4167"  />

      
      <glyph glyph-name="uni54" unicode="&#x54;" d="M3396 2912Q3392 2879 3253 2733Q3105 2578 3015 2523Q2815 2402 2389 2402Q2290 2402 2179 2408L2179 1282Q2179 1093 1606 676Q1790 891 1790 1229L1790 2408Q1502 2408 1487 2392Q1454 2356 1454 2290L1454 1360Q1454 1117 1077 647Q1291 647 1521 581Q1641 545 1953 451Q2309 344 2408 344Q2505 344 2585 397Q2628 427 2740 504Q2576 327 2385 187Q2130 0 1970 0Q1805 0 1417 118Q996 246 721 246Q455 246 369 141Q371 169 412 213Q439 242 555 328Q750 472 901 614Q985 693 1005 1294Q1028 1997 1043 2063Q1081 2233 1262 2408L578 2408Q451 2408 451 2122Q451 2010 480 1864Q519 1667 582 1667Q571 1639 355 1441Q143 1245 131 1245Q65 1245 27 1421Q0 1546 0 1651Q0 1890 112 2062Q118 2071 200 2167L389 2388Q456 2471 655 2701Q802 2867 1012 2867L2753 2867Q3299 2867 3396 2912Z"  horiz-adv-x="2966" vert-adv-y="4167"  />

      
      <glyph glyph-name="uni55" unicode="&#x55;" d="M3101 389Q3094 339 2869.50 168.50Q2645-2 2589-2Q2555-2 2476 62Q2277 224 2277 418Q2170 308 1942 157Q1705 0 1434 0Q862 0 557 440Q291 823 291 1421Q291 1668 576 1932Q793 2133 1085 2277L1085 2454L426 2454Q156 2454 0 2331Q5 2353 128 2490Q467 2867 717 2867L1577 2867L1577 1458L2281 2028L2281 2417Q2281 2455 2143 2511Q2015 2563 1962 2564Q1973 2610 2200 2738.50Q2427 2867 2486 2867Q2553 2867 2656 2811Q2769 2749 2769 2691L2769 651Q2769 599 2876.50 484Q2984 369 3035 369Q3056 369 3101 389M2281 1737L2281 1950L1020 926L1118 795L2281 1737M2281 471L2281 1655L1159 750Q1431 385 1962 385Q2156 385 2281 471M1085 1307L1085 2216Q782 1993 782 1749Q782 1533 835 1352Q875 1217 987 983Q1085 1024 1085 1307Z"  horiz-adv-x="3195" vert-adv-y="4167"  />

      
      <glyph glyph-name="uni56" unicode="&#x56;" d="M3826 1901Q3826 1352 3232 770Q2776 323 2146 0Q1894 239 1800 305Q1586 455 1372 455Q1286 455 1085 340L3211 1942Q3208 1994 3097 2150L950 532Q1307 878 1307 1176Q1307 1448 1116 1753Q937 2038 695 2200Q542 2302 434 2302Q359 2302 212 2206Q172 2180 0 2064Q12 2089 181 2240Q666 2675 836 2675Q1060 2675 1257 2519Q1436 2377 1532 2257Q2294 2871 2613 2871Q3290 2871 3628 2499Q3826 2281 3826 1901M3047 2200Q3021 2232 2942 2289Q2697 2466 2216 2466Q1781 2466 1561 2216Q1700 1954 1700 1638Q1700 1401 1511 1040L3047 2200M3252 1708Q3252 1809 3232 1876L1835 823Q2034 823 2206 689Q2306 611 2438 441Q2542 307 2576 307Q2612 307 2725 428Q2956 675 3102 1022Q3252 1380 3252 1708Z"  horiz-adv-x="3932" vert-adv-y="4167"  />

      
      <glyph glyph-name="uni57" unicode="&#x57;" d="M4219 1561Q4219 1223 3895 782Q3635 428 3292 155Q3095-2 3043-2Q3026-2 2732 169Q2438 340 2294 340Q2219 340 2040 246Q2044 286 2219 466Q2375 627 2449 684L3658 1626Q3653 1651 3592 1774L1667 270Q1618 232 1454 121Q1275 0 1262 0Q1449 0 1035 184.50Q621 369 516 369Q485 369 422 364.50Q359 360 328 360Q371 394 481 485Q582 572 582 647L582 2269Q582 2279 493 2322Q263 2433 86 2433Q36 2433 0 2421Q7 2438 115 2537Q420 2818 561 2818Q752 2818 1010 2665Q1110 2606 1110 2593L1110 2322Q1678 2839 1831 2839Q1882 2839 2092 2735.50Q2302 2632 2302 2609L2302 2384Q3057 2966 3162 2966Q3211 2966 3387 2853Q3734 2630 3962 2302Q4219 1932 4219 1561M3551 1827Q3546 1848 3447 1960Q3271 2159 3077 2315Q2803 2535 2642 2535Q2609 2535 2302 2331L2302 1028Q2302 874 2191 766L3551 1827M3727 1327Q3727 1449 3682 1565L2535 668Q2646 700 2707 700Q2864 700 3173 555L3486 410Q3593 410 3669 812Q3727 1120 3727 1327M1790 565L1790 2253Q1790 2283 1603 2365Q1420 2445 1368 2445Q1261 2445 1110 2253L1110 1163Q1110 1079 1056 994Q1051 986 848 745Q1152 745 1405 588Q1415 582 1559 480Q1682 393 1692 393Q1732 393 1763 460Q1790 518 1790 565Z"  horiz-adv-x="4338" vert-adv-y="4167"  />

      
      <glyph glyph-name="uni58" unicode="&#x58;" d="M2478 147Q2468 135 2377 101Q2107 0 1696 0Q1664 0 1505 179Q1085 652 1085 1044Q830 528 610 324Q371 102 172-25Q-155-234-285-236Q791 542 791 1298Q778 1311 487 1311Q99 1311 25 1254Q262 1671 467 1671Q512 1671 725 1663Q647 1946 521 2165Q339 2482 139 2482Q73 2482 0 2449Q29 2494 325 2660Q621 2826 672 2826Q720 2826 838 2702Q995 2537 1063 2345Q1114 2201 1143 1929Q1265 2252 1403 2515Q1629 2945 1774 2945Q1820 2945 2014 2775Q2208 2605 2208 2564Q2208 2548 2023 2412Q1835 2273 1802 2273Q1787 2273 1659.50 2367.50Q1532 2462 1499 2462Q1474 2462 1414 2347Q1266 2065 1266 1663Q1395 1655 1528 1655Q1739 1655 1974 1708L1982 1700Q1980 1656 1936 1565Q1817 1319 1724 1319Q1710 1319 1550 1311L1290 1298Q1308 1043 1573 747Q1781 515 2060 334Q2349 147 2478 147Z"  horiz-adv-x="2503" vert-adv-y="4167"  />

      
      <glyph glyph-name="uni59" unicode="&#x59;" d="M2798 2863Q2789 2853 2710 2812Q2614 2762 2531 2679Q2302 2449 2302 1847Q2302 1230 2443 883Q2470 819 2540 650Q2593 519 2593 406Q2593 203 2166-136Q1897-349 1542-559Q1394-646 1312-691Q1128-791 1077-793Q390-485 74-485Q-29-485-170-539Q-161-480 737 229Q464 356 176 356Q269 438 350 516Q455 617 455 713L455 2277Q455 2326 289 2408Q132 2486 66 2486Q21 2486 2 2472Q385 2855 512 2855Q580 2855 780 2748Q987 2637 987 2585L987 2470Q1456 2884 1532 2884Q1549 2884 1674 2853Q1981 2777 2294 2777Q2575 2777 2798 2863M2171 2449L1606 2449Q1465 2449 1372 2462Q1347 2465 1261 2488Q1188 2507 1155 2507Q1125 2507 1058 2467Q987 2426 987 2400L987 1315L1884 1946Q1963 2294 2171 2449M1860 1851L979 1233Q979 1090 881 963L1823 1622Q1826 1641 1860 1851M1929 508Q1806 843 1806 1266Q1806 1456 1819 1548L664 733Q813 733 1172 595Q1318 538 1696 389Q1763 392 1929 508M2068-14Q2068 206 1946 451Q1357 53 1221 53Q1137 53 786 213Q575 43 369-145Q464-121 524-121Q825-121 1316-329Q1503-408 1520-412Q1647-412 1852-275Q2068-130 2068-14Z"  horiz-adv-x="2769" vert-adv-y="4167"  />

      
      <glyph glyph-name="uni5a" unicode="&#x5a;" d="M3183 754Q3183 743 3048 618Q2382 0 1880 0Q1772 0 1649 36L1105 196Q750 299 573 299Q458 299 295 184Q380 283 438 336Q500 383 614 487Q677 566 803 721L1166 1167Q1599 1700 2260 2487Q2538 2818 2576 2818Q2588 2818 2593 2810Q2589 2690 1679 1655Q1738 1654 1851 1606Q1978 1552 1978 1507Q1978 1491 1783 1332Q1610 1191 1544 1143Q1537 1165 1480 1193Q1423 1221 1397 1221Q1367 1221 1307 1217L848 643Q966 692 1241 692Q1287 692 1645 578Q2406 336 2568 336Q2666 336 2666 389Q2666 468 2530 610Q2516 624 2331 811Q2340 849 2560.50 981.50Q2781 1114 2830 1114Q2878 1114 3030.50 958Q3183 802 3183 754M2425 2904Q2419 2892 2290 2736Q1270 1503 502 634Q343 454 172 295Q276 516 1068 1424Q1027 1409 967 1409Q795 1409 668 1556Q681 1591 912 1739.50Q1143 1888 1184 1888Q1184 1888 1259.50 1832.50Q1335 1777 1368 1774L2007 2544Q1892 2425 1368 2425Q1227 2425 946 2439.50Q665 2454 524 2454Q426 2454 426 2413Q426 2320 598 2040Q584 1993 377.50 1834Q171 1675 123 1675Q57 1675 23 1844Q0 1958 0 2056Q0 2185 379 2524Q750 2855 860 2855Q882 2855 1217 2833L1734 2799Q1947 2785 2003 2785Q2086 2785 2417 2908L2425 2904Z"  horiz-adv-x="3305" vert-adv-y="4167"  />

      
      <glyph glyph-name="uni5b" unicode="&#x5b;" d="M1294 578Q920 0 852 0L0 0L0 2556Q0 2773 315 2988Q438 3072 492 3072L1294 3072Q920 2503 852 2503Q826 2503 774 2505Q722 2507 696 2507Q592 2507 578 2494L578 578L1294 578Z"  horiz-adv-x="1704" vert-adv-y="4167"  />

      
      <glyph glyph-name="uni5c" unicode="&#x5c;" d="M1921 111Q1921 21 1909 0Q1872 17 1414 581L688 1474Q66 2239 33 2351Q8 2436 8 2544Q8 2747 49 2867Q106 2846 965 1734Q1837 605 1884 459Q1921 344 1921 111Z"  horiz-adv-x="2343" vert-adv-y="4167"  />

      
      <glyph glyph-name="uni5d" unicode="&#x5d;" d="M1294 516Q1294 302 979 85Q856 0 803 0L0 0Q374 569 442 569Q468 569 520 567Q572 565 598 565Q703 565 717 578L717 2494L0 2494Q371 3072 442 3072L1294 3072L1294 516Z"  horiz-adv-x="1704" vert-adv-y="4167"  />

      
      <glyph glyph-name="uni5e" unicode="&#x5e;" d="M2171 2417Q2171 2375 1988.50 2211.50Q1806 2048 1761 2048Q1965 2048 1495 2273.50Q1025 2499 942 2499Q880 2499 483.50 2277.50Q87 2056 33 2056Q20 2056 20 2068Q20 2090 326 2288Q1222 2867 1311 2867Q1406 2867 1975 2547Q2171 2437 2171 2417Z"  horiz-adv-x="2589" vert-adv-y="4167"  />

      
      <glyph glyph-name="uni5f" unicode="&#x5f;" d="M2335-64L1884-289L0-289L451-64L2335-64Z"  horiz-adv-x="1884" vert-adv-y="4167"  />

      
      <glyph glyph-name="uni60" unicode="&#x60;" d="M1233 2195L0 2347Q0 2468 45 2572Q57 2472 1233 2195Z"  horiz-adv-x="1245" vert-adv-y="4167"  />

      
      <glyph glyph-name="uni61" unicode="&#x61;" d="M1573 295L995 0L995 348Q454-2 315-2Q183-2 90 187Q12 346 12 496Q12 672 416 903Q672 1049 995 1171Q995 1327 860 1534Q714 1757 569 1757Q478 1757 319 1548Q319 1698 615 1879Q892 2048 1061 2048Q1226 2048 1399.50 1867Q1573 1686 1573 1520L1573 295M995 406L995 1110Q483 946 483 750Q483 603 554 484Q637 344 774 344Q815 344 898 362Q995 383 995 406Z"  horiz-adv-x="1901" vert-adv-y="4167"  />

      
      <glyph glyph-name="uni62" unicode="&#x62;" d="M2114 1155Q2114 851 1895 633Q1764 503 1413 303Q880 0 741 0Q692 0 536 83Q131 298 131 573L131 2265Q131 2329 102 2515Q411 2666 643 2666Q709 2666 709 2474L709 1753Q1125 2085 1229 2085Q1267 2085 1525 1949Q1731 1840 1918 1640Q2114 1430 2114 1155M1552 782Q1552 1073 1383 1313Q1221 1545 949 1667Q822 1724 770 1724Q746 1724 709 1712L709 848Q709 815 784 668Q983 279 1217 279Q1552 279 1552 782Z"  horiz-adv-x="2404" vert-adv-y="4167"  />

      
      <glyph glyph-name="uni63" unicode="&#x63;" d="M1679 1712Q1679 1692 1443 1546Q1203 1397 1159 1397Q1134 1397 659 1778Q610 1777 579 1591Q557 1458 557 1352Q557 1086 667 849Q782 600 989 450Q1163 324 1269 324Q1260 324 1339 336Q1325 305 1043 152.50Q761 0 717 0Q652 0 528 78Q294 225 149 472Q-2 726-2 995Q-2 1350 294 1625Q533 1847 917 1983Q1101 2048 1126 2048Q1175 2048 1429 1890Q1679 1734 1679 1712Z"  horiz-adv-x="1810" vert-adv-y="4167"  />

      
      <glyph glyph-name="uni64" unicode="&#x64;" d="M2097 1237Q2097 996 1895 780Q1752 627 1356 331Q905-6 778-6Q728-6 596 71Q334 224 171 484Q0 756 0 1049Q0 1586 795 1917Q426 2239 426 2335Q426 2396 791 2638.50Q1156 2881 1245 2884L1253 2875Q950 2676 950 2638Q950 2564 1247 2328Q1651 2007 1800 1846Q2097 1524 2097 1237M1548 811Q1548 1408 852 1876Q537 1800 537 1335Q537 819 1270 340Q1548 519 1548 811Z"  horiz-adv-x="2372" vert-adv-y="4167"  />

      
      <glyph glyph-name="uni65" unicode="&#x65;" d="M1573 1606Q1573 1570 1151 1247Q785 966 627 860Q647 820 758 687Q1065 319 1298 319Q1316 319 1355 337L1358 339L1359 339L1359 340L1360 340L1359 339L1359 339L1355 337L1188 232Q1063 153 933 80Q788-2 766-2Q721-2 593 65Q337 199 176 417Q-2 658-2 926Q-2 1384 406 1696Q466 1742 758 1893Q1057 2048 1098 2048Q1143 2048 1358 1847.50Q1573 1647 1573 1606M1069 1270Q1069 1344 614 1700Q500 1593 500 1286Q500 1050 602 901Q1069 1249 1069 1270M1359 339L1358 339L1355 337L1359 339Z"  horiz-adv-x="1831" vert-adv-y="4167"  />

      
      <glyph glyph-name="uni66" unicode="&#x66;" d="M1663 2433Q1650 2415 1430 2284.50Q1210 2154 1196 2154Q1163 2154 987 2331.50Q811 2509 799 2511L799 1802Q856 1794 958 1794Q1156 1794 1419 1802L1425 1794Q1422 1764 1252 1616Q1095 1479 1044 1468L799 1462L799 373Q799 175 897 119Q842 82 754 82Q683 82 631 123Q300 0 221 0L221 1458Q106 1445-117 1425Q-113 1446 43.50 1563Q200 1680 229 1683Q235 2206 342 2346Q460 2501 1013 2767Q1221 2867 1249 2867Q1283 2867 1472.50 2669Q1662 2471 1663 2433Z"  horiz-adv-x="1720" vert-adv-y="4167"  />

      
      <glyph glyph-name="uni67" unicode="&#x67;" d="M2159 2048Q2016 2006 1913 1696Q1843 1486 1843 1094Q1843 899 1874 804L2002 514Q2085 326 2085 217Q2085 20 1812-207Q1711-291 1368-510Q1167-639 990-739Q846-821 651-821Q264-821-29-513Q-141-395-141-367Q-141-281 516 25Q289 163 150 389Q4 625 4 881Q4 1220 266 1530Q495 1801 837 1959Q1029 2048 1135 2048L2159 2048M1585 1720L651 1720Q549 1547 549 1167Q549 971 650 780Q736 617 867 499Q1026 356 1180 356Q1290 356 1360 426Q1270 620 1270 987Q1270 1359 1585 1720M1683-137Q1683-25 1631 50Q1595 91 1503 197Q1479 225 1384 373L442-76Q442-137 568-233Q877-469 1212-469Q1362-469 1512-379Q1683-276 1683-137Z"  horiz-adv-x="2380" vert-adv-y="4167"  />

      
      <glyph glyph-name="uni68" unicode="&#x68;" d="M2060 1114Q2060 940 1962 771Q1902 667 1781 533Q1683 424 1683 401Q1683 373 1712 373Q1761 389 1884 434Q1874 395 1106 12Q1552 313 1552 737Q1552 1169 1085 1508Q906 1638 840 1638Q783 1638 709 1593L709 221L131-2L131 2265Q131 2303 123 2379.50Q115 2456 115 2494Q115 2532 349 2601Q569 2666 643 2666Q709 2666 709 2474L709 1659Q1218 2023 1298 2023Q1354 2023 1548 1895Q2060 1556 2060 1114Z"  horiz-adv-x="2331" vert-adv-y="4167"  />

      
      <glyph glyph-name="uni69" unicode="&#x69;" d="M815 2470Q785 2441 572.50 2314Q360 2187 340 2187Q286 2187 168 2264Q45 2344 45 2392Q120 2463 281 2564Q464 2679 532 2679Q565 2679 689.50 2588Q814 2497 815 2470M918 344Q374 0 274 0Q207 0 163 88Q127 160 127 233L127 1446Q127 1700-43 1745Q370 2052 500 2052Q519 2052 571 2010Q705 1902 705 1786L705 492Q705 324 831 324Q849 324 918 344Z"  horiz-adv-x="1081" vert-adv-y="4167"  />

      
      <glyph glyph-name="uni6a" unicode="&#x6a;" d="M778 2478Q778 2453 559 2313Q337 2171 291 2171Q260 2171 134 2252Q8 2333 8 2355Q8 2418 221 2554Q429 2687 504 2687Q539 2687 658.50 2597.50Q778 2508 778 2478M672-2Q672-205 458-382Q292-519 57-603Q127-550 127-90L127 1446Q127 1495 36 1559.50Q-55 1624-55 1655Q-55 1696 180.50 1864Q416 2032 471 2032Q508 2032 590 1937Q672 1842 672 1802L672-2Z"  horiz-adv-x="1077" vert-adv-y="4167"  />

      
      <glyph glyph-name="uni6b" unicode="&#x6b;" d="M2036 295Q2023 266 1772.50 133Q1522 0 1479 0Q1401 0 1068 372Q732 747 709 750L709 180L131 0L131 2265Q131 2300 116.50 2367.50Q102 2435 102 2470Q102 2521 340 2597Q557 2666 643 2666Q709 2666 709 2474L709 1749Q1267 2109 1368 2109Q1435 2109 1547 1965Q1630 1859 1684 1754Q1757 1613 1757 1520Q1757 1378 1555 1246Q1543 1238 1233 1057Q1239 1048 1249 1044Q1284 1041 1634 669Q1984 297 2036 295M1221 1180Q1221 1441 1011 1677Q925 1774 881 1774Q843 1774 709 1700L709 803Q1221 1075 1221 1180Z"  horiz-adv-x="2208" vert-adv-y="4167"  />

      
      <glyph glyph-name="uni6c" unicode="&#x6c;" d="M1020 242Q1019 210 750 105Q481 0 410 0Q382 0 312 71Q135 251 135 492L135 2265Q135 2304 120.50 2379.50Q106 2455 106 2494Q106 2509 198 2557Q438 2683 610 2683Q652 2683 685 2598Q713 2526 713 2474L713 733Q713 619 797 443Q891 246 991 246Q1010 246 1020 242Z"  horiz-adv-x="1221" vert-adv-y="4167"  />

      
      <glyph glyph-name="uni6d" unicode="&#x6d;" d="M3191 246Q3188 209 2946 103Q2709 0 2646 0Q2634 0 2556 54Q2347 198 2347 369L2347 1438Q2347 1510 2145 1642Q2068 1692 2040 1692Q1998 1692 1913 1660Q1819 1625 1819 1593L1819 184L1237 0L1237 1417Q1237 1475 1120.50 1585.50Q1004 1696 946 1696Q906 1696 810 1664Q705 1629 705 1606L705 184L127-18L127 1495Q127 1579 67.50 1639.50Q8 1700-76 1700Q-73 1724 24 1812Q283 2048 434 2048Q491 2048 586 1901Q674 1765 688 1692Q1211 2048 1307 2048Q1364 2048 1568 1893Q1766 1743 1806 1679Q1940 1789 2125 1902Q2364 2048 2462 2048Q2519 2048 2633 1973Q2925 1782 2925 1647L2925 524Q2925 359 3191 246Z"  horiz-adv-x="3346" vert-adv-y="4167"  />

      
      <glyph glyph-name="uni6e" unicode="&#x6e;" d="M2146 340Q2143 313 1917 169Q1724 46 1634-2Q1567-1 1449 102Q1331 205 1331 270L1331 1438Q1331 1540 1203 1639Q1081 1733 975 1733Q925 1733 814 1680Q696 1624 696 1585L696 188L119-23L119 1483Q119 1601-35 1753Q-27 1786 187.50 1915Q402 2044 446 2044Q539 2044 621 1912Q696 1792 696 1692Q1244 2048 1483 2048Q1540 2048 1643 1999Q1909 1872 1909 1671L1909 618Q1909 428 2146 340Z"  horiz-adv-x="2298" vert-adv-y="4167"  />

      
      <glyph glyph-name="uni6f" unicode="&#x6f;" d="M2130 1135Q2130 946 2058 804Q1978 646 1755 476Q1357 172 1025 30Q955 0 844 0Q285 0 80 544Q-2 761-2 946Q-2 1301 176 1528Q230 1597 511 1751Q744 1879 894 1944Q1133 2048 1245 2048Q1630 2048 1882 1783Q2130 1522 2130 1135M1581 791Q1581 1094 1459 1332Q1323 1597 1065 1713Q876 1798 778 1798Q642 1798 569 1563Q516 1393 516 1212Q516 901 654 673Q802 427 1082 325Q1208 279 1282 279Q1422 279 1510 473Q1581 630 1581 791Z"  horiz-adv-x="2404" vert-adv-y="4167"  />

      
      <glyph glyph-name="uni70" unicode="&#x70;" d="M2060 1012Q2060 673 1088 115Q973 49 877 0Q839 14 770 45L770-571L238-821L238 291Q149 335 4 381Q10 413 105 478Q193 538 238 553L238 1556Q99 1480-76 1397Q-70 1432 161 1588Q347 1714 455 1775Q640 1880 721 1880Q770 1880 770 1704Q1237 2048 1298 2048Q1318 2048 1442 1982Q1725 1831 1889 1583Q2060 1322 2060 1012M1597 741Q1597 971 1411 1225Q1247 1449 1025 1586Q894 1667 823 1667Q770 1667 770 1630L770 672Q832 669 1331 352Q1597 476 1597 741Z"  horiz-adv-x="2281" vert-adv-y="4167"  />

      
      <glyph glyph-name="uni71" unicode="&#x71;" d="M2118-432L1569-662L1569 324Q1178 0 868 0Q504 0 250 268Q0 531 0 897Q0 1415 672 1790Q755 1840 973 1965Q1121 2048 1311 2048Q1630 2048 1860 1884Q2118 1700 2118 1393L2118-432M1569 365L1569 1171Q1569 1298 1452 1435Q1354 1550 1222 1624Q1059 1716 893 1716Q745 1716 677 1668Q604 1617 565 1477Q520 1317 520 1192Q520 842 795 583Q1065 328 1417 328Q1475 328 1569 365Z"  horiz-adv-x="2499" vert-adv-y="4167"  />

      
      <glyph glyph-name="uni72" unicode="&#x72;" d="M1573 1634Q1496 1607 1335 1483Q1163 1351 1151 1294L1106 1073L1069 1286Q1057 1357 909 1527Q757 1702 696 1704L696 233L119 0L119 1331Q119 1636-68 1737Q-65 1774 151 1911Q367 2048 418 2048Q469 2048 582 1932.50Q695 1817 696 1765Q1126 2048 1196 2048Q1245 2048 1407.50 1868Q1570 1688 1573 1634Z"  horiz-adv-x="1630" vert-adv-y="4167"  />

      
      <glyph glyph-name="uni73" unicode="&#x73;" d="M2077 881Q2077 687 1517 337Q977 0 750 0Q591 0 381 95Q196 179 53 295Q134 358 341 498Q576 657 606 659Q1134 332 1327 332Q1385 332 1476 392Q1573 456 1573 508Q1573 602 1435 755Q1163 1057 934 1057L663 837Q391 618 324 618Q267 618 187 695Q0 876 0 1147Q0 1423 324 1672Q559 1852 901 1979Q1087 2048 1118 2048Q1250 2048 1613 1858Q1749 1787 1749 1778Q1749 1764 1514 1597Q1393 1511 1257 1430L915 1617Q666 1753 578 1753Q479 1753 479 1573Q479 1464 576 1248Q682 1012 770 1012Q599 1012 982 1223Q1365 1434 1434 1434Q1534 1434 1709 1328Q2077 1105 2077 881Z"  horiz-adv-x="2314" vert-adv-y="4167"  />

      
      <glyph glyph-name="uni74" unicode="&#x74;" d="M1430 2003Q1427 1975 1299 1822Q1188 1690 1141 1656Q1059 1597 922 1597L926 729Q927 601 1117 456Q1195 397 1237 397Q1233 363 1041.50 181.50Q850 0 819 0Q794 0 671 87Q348 315 348 475L348 1597L-39 1593Q-39 1773 273 1949Q310 1965 369 2003Q437 2070 619 2238Q769 2372 926 2372L926 2003L1430 2003Z"  horiz-adv-x="1487" vert-adv-y="4167"  />

      
      <glyph glyph-name="uni75" unicode="&#x75;" d="M2015 348Q2010 324 1788 164Q1566 4 1536 4Q1495 4 1410 180Q1331 344 1323 410Q1319 355 1005 176Q696 0 614 0Q561 0 434 75Q111 266 111 430L111 1475Q111 1514-76 1712Q-75 1757 142.50 1898.50Q360 2040 418 2040Q440 2040 506 1977Q688 1803 688 1749L688 520Q688 459 787 387Q881 319 946 319Q1014 319 1162 387Q1323 461 1323 512L1323 1421Q1323 1486 1237 1598L1151 1708Q1151 1756 1343.50 1902Q1536 2048 1593 2048Q1620 2048 1696 1981Q1901 1801 1901 1729L1901 537Q1901 492 1937 424Q1976 350 2015 348Z"  horiz-adv-x="2249" vert-adv-y="4167"  />

      
      <glyph glyph-name="uni76" unicode="&#x76;" d="M2294 1495Q2294 1191 1876 746Q1576 427 1190 152Q968-6 946-6Q904-6 790 269Q725 428 555 842Q424 1160 281 1398Q149 1618 49 1618Q24 1618-5 1602Q426 2023 557 2023Q617 2023 721 1887Q812 1768 840 1688Q1272 2146 1642 2146Q1930 2146 2112 1964.50Q2294 1783 2294 1495M1810 1102Q1810 1376 1648 1564Q1478 1761 1208 1761Q1004 1761 856 1651Q1044 1169 1204 786Q1307 540 1401 385Q1626 565 1705 687Q1810 850 1810 1102Z"  horiz-adv-x="2486" vert-adv-y="4167"  />

      
      <glyph glyph-name="uni77" unicode="&#x77;" d="M3428 1483Q3428 1061 2077 0Q2056 14 1982 190L1661 954Q1444 1470 1294 1638Q1184 1761 1040 1761Q957 1761 864 1700Q990 1462 1195 1003Q1442 450 1442 344Q1442 314 1233.50 159Q1025 4 979 0Q948 28 782 428Q544 1002 479 1141Q213 1712 90 1712L-27 1671Q-14 1725 243 1889Q497 2052 561 2052Q713 2052 852 1733Q1407 2105 1602 2105Q1729 2105 1872 1958Q1985 1842 2056 1696Q2193 1866 2374 2000Q2600 2167 2765 2167Q3035 2167 3233 1959Q3428 1754 3428 1483M2933 1139Q2933 1384 2754 1591Q2568 1806 2327 1806Q2221 1806 2085 1626Q2108 1574 2303 1058Q2399 803 2527 451Q2730 631 2812 750Q2933 927 2933 1139Z"  horiz-adv-x="3629" vert-adv-y="4167"  />

      
      <glyph glyph-name="uni78" unicode="&#x78;" d="M2028 1933Q2028 1877 1593 1507Q1502 1556 1344 1602Q1177 1651 1085 1651Q1001 1651 995 1622Q1045 1503 1081 1278Q1187 1278 1398.50 1286Q1610 1294 1716 1294Q1711 1261 1549 1142Q1423 1050 1339 1000Q1200 918 1130 918Q1153 841 1432.50 600Q1712 359 1786 356Q1776 318 1554 159Q1332 0 1290 0Q1217 0 980 196Q747 389 717 467Q260-68-358-387Q-14-134 239 139Q606 534 606 807Q606 857 594 901Q490 901 280 884L82 868Q70 870 66 877Q238 1024 516 1212Q484 1303 288 1503Q85 1710 8 1712Q257 2048 516 2048Q610 2048 776 1904Q930 1770 979 1671Q1440 2101 1487 2101Q1551 2101 1844 1997Q1999 1942 2019 1942Q2028 1942 2028 1933Z"  horiz-adv-x="2253" vert-adv-y="4167"  />

      
      <glyph glyph-name="uni79" unicode="&#x79;" d="M2138 1544Q2138 1172 1729 802Q1602 691 1275 400Q1005 158 877-43Q973-10 1090-10Q1213-10 1401-68Q1657-147 1708-158Q1696-188 1471-367.50Q1246-547 1221-547Q1132-547 909.50-473Q687-399 586-399Q541-399 369-444Q385-421 623-187Q815 2 815 74Q815 119 518 692Q249 1210 148 1386Q59 1540-14 1610Q-7 1665 218 1836Q443 2007 504 2007Q527 2007 622 1824Q815 1452 1298 537Q1626 802 1626 1163Q1626 1393 1473 1590Q1309 1802 1085 1802Q933 1802 827 1712Q833 1736 950 1856Q1277 2191 1573 2191Q1619 2191 1741 2146Q2138 2000 2138 1544Z"  horiz-adv-x="2417" vert-adv-y="4167"  />

      
      <glyph glyph-name="uni7a" unicode="&#x7a;" d="M2101 270Q2101 33 1805-188Q1066-739 979-739Q927-739 488-534.50Q49-330-117-330Q-181-330-350-416L-371-412Q-368-316-112-80Q127 140 242 188Q374 188 643 57Q754 1 1043-143Q1419-330 1479-330Q1525-330 1564-223Q1597-132 1597-68Q1597 190 1426.50 367.50Q1256 545 999 545Q889 545 703 483Q688 483 688 500Q688 543 1462 1434Q1404 1405 1311 1405Q1166 1405 876.50 1440Q587 1475 442 1475Q401 1475 317 1379Q225 1274 197 1262Q202 1352 563 1700Q924 2048 1012 2048Q1132 2048 1518 1984Q1850 1929 1937 1929Q2028 1929 2064 1958Q2054 1916 1163 909Q1308 991 1458 991Q1711 991 1911 754Q2101 528 2101 270Z"  horiz-adv-x="2339" vert-adv-y="4167"  />

      
      <glyph glyph-name="uni7b" unicode="&#x7b;" d="M1729 569Q1729 486 1542 244Q1352 0 1278 0L549 0Q352 0 352 348Q352 463 374 695L397 938Q397 1103 248 1211Q111 1310 0 1352Q131 1410 295 1530Q471 1659 471 1815Q471 1921 401.50 2122Q332 2323 332 2429Q332 2785 670 2988Q810 3072 918 3072L1720 3072Q1718 2997 1567 2748Q1413 2494 1360 2494Q946 2494 946 2437Q946 2394 968.50 2310Q991 2226 991 2183Q991 1978 516 1618Q548 1634 573 1634Q621 1634 703 1576Q905 1433 905 1135Q905 1060 897 911.50Q889 763 889 688Q889 596 905 572Q928 537 1020 537Q1139 537 1550 566L1720 578Q1729 579 1729 569Z"  horiz-adv-x="2130" vert-adv-y="4167"  />

      
      <glyph glyph-name="uni7c" unicode="&#x7c;" d="M332 2867Q332 2688 307 1500L283 360Q282 292 179 145Q72-7 12-10Q0 8 0 2466Q0 2667 332 2867Z"  horiz-adv-x="799" vert-adv-y="4167"  />

      
      <glyph glyph-name="uni7d" unicode="&#x7d;" d="M1720 1720Q1589 1663 1426 1542Q1249 1411 1249 1257Q1249 1151 1319 950Q1389 749 1389 643Q1389 288 1052 85Q911 0 803 0L0 0Q2 77 152 325Q305 578 360 578Q774 578 774 635Q774 678 751.50 762Q729 846 729 889Q729 1094 1204 1454Q1174 1438 1147 1438Q1099 1438 1017 1496Q815 1639 815 1937Q815 2012 823 2160.50Q831 2309 831 2384Q831 2478 813 2503Q790 2535 700 2535Q547 2535 0 2494L-6 2503Q-5 2588 180 2828Q367 3072 442 3072L1171 3072Q1368 3072 1368 2724Q1368 2611 1345 2367L1323 2134Q1323 1971 1472 1863Q1611 1762 1720 1720Z"  horiz-adv-x="2130" vert-adv-y="4167"  />

      
      <glyph glyph-name="uni7e" unicode="&#x7e;" d="M1937 1651Q1816 1424 1668 1251Q1458 1004 1290 1004Q1158 1004 810.50 1204.50Q463 1405 348 1405Q193 1405 0 1188Q165 1423 345 1606Q610 1876 774 1876Q914 1876 1235.50 1677.50Q1557 1479 1642 1479Q1809 1479 1937 1651Z"  horiz-adv-x="2318" vert-adv-y="4167"  />

      
      <glyph glyph-name="unic4" unicode="&#xc4;" d="M2671 1556Q2671 711 2186 298Q1836 0 1597 0Q1506 0 1057 235.50Q608 471 504 471Q446 471 184 348Q474 532 713 730Q1085 1038 1085 1196L1085 2118Q1085 2307 1397 2499Q892 2597 360 2597Q256 2597 143 2642Q0 2699 0 2789Q0 2919 471 3195Q410 3117 410 3043Q410 2789 1057 2789Q1554 2789 1735 2776Q2111 2749 2283 2670Q2538 2553 2614 2254Q2671 2030 2671 1556M1057 2449Q840 2371 840 2032L840 1184Q840 983 622 824Q417 674 258 606Q406 696 406 1012L406 2060Q406 2223 659 2337Q836 2417 1057 2449M2175 1446Q2169 1577 2144 1838Q2134 1948 2099 2115Q2003 2381 1520 2478L1520 1446Q1520 1272 1368 1159L2175 1446M2187 1257L2179 1384L1294 1069Q1290 1050 1053 852L2187 1257M2191 1196L963 762Q1293 602 1999 279Q2191 279 2191 1196Z"  horiz-adv-x="2839" vert-adv-y="4167"  />

      
      <glyph glyph-name="unic5" unicode="&#xc5;" d="M2941 2621Q2586 2290 2466 2290Q2434 2295 2273 2333Q1844 2433 1733 2433Q1683 2433 1683 2417L1683 1491Q2007 1823 2073 1823Q2119 1823 2341.50 1714Q2564 1605 2630 1602Q2233 1233 2126 1233Q2110 1233 1688 1430Q1688 1269 1428 1051Q1252 904 1020 774Q1249 1018 1249 1286L1249 2171Q1249 2375 1729 2621Q2170 2847 2290 2847Q2356 2847 2941 2621M2916 516Q2908 495 2758 366Q2339 4 2114 4Q2064 4 1786 120Q1198 365 1012 365Q786 365 393-27Q393 164 0 393Q569 772 569 1032L569 2245Q569 2465 855 2643Q1065 2774 1343 2843Q1246 2804 1131 2711Q1004 2608 1004 2458L1004 1311Q1004 1108 496 696Q599 696 712 589Q808 499 860 389Q1170 659 1430 659Q1575 659 1915 546Q2054 499 2416 377Q2515 344 2580 344Q2646 344 2916 516Z"  horiz-adv-x="3084" vert-adv-y="4167"  />

      
      <glyph glyph-name="unic7" unicode="&#xc7;" d="M2163 2871Q2163 2629 2015 2359L1597 1597L2015 889Q2011 839 1524.50 419.50Q1038 0 979 0Q969 0 551.50 219Q134 438 0 438Q8 485 228 668.50Q448 852 496 852Q512 852 541 844L942 1200Q655 1472 557 1475Q563 1511 1114.50 1977.50Q1666 2444 1675 2470L606 2449Q396 2445 284 2412Q143 2371 4 2253Q142 2429 316 2600Q563 2843 668 2843L1835 2843Q1966 2843 2163 2871M1602 2314L1049 1843Q1094 1843 1258.50 1714Q1423 1585 1446 1585Q1476 1585 1516 1634Q1548 1936 1548 2122Q1548 2173 1602 2314M1520 827L1520 1565Q1432 1559 610 819Q684 815 1033 610Q1379 406 1421 406Q1520 406 1520 827Z"  horiz-adv-x="2228" vert-adv-y="4167"  />

      
      <glyph glyph-name="unic9" unicode="&#xc9;" d="M2494 3232Q2494 3101 2309 3024Q2157 2961 1978 2961Q1938 2961 1606 3173Q1316 3358 1204 3441Q1252 3439 1486 3311Q1720 3183 1757 3183Q1818 3183 2002 3297Q2019 3308 2249 3453Q2277 3451 2385.50 3353.50Q2494 3256 2494 3232M3101 389Q3094 339 2869.50 168.50Q2645-2 2589-2Q2555-2 2476 62Q2277 224 2277 418Q2170 308 1942 157Q1705 0 1434 0Q862 0 557 440Q291 823 291 1421Q291 1668 576 1932Q793 2133 1085 2277L1085 2454L426 2454Q156 2454 0 2331Q5 2353 128 2490Q467 2867 717 2867L1577 2867L1577 1458L2281 2028L2281 2417Q2281 2455 2143 2511Q2015 2563 1962 2564Q1973 2610 2200 2738.50Q2427 2867 2486 2867Q2553 2867 2656 2811Q2769 2749 2769 2691L2769 651Q2769 599 2876.50 484Q2984 369 3035 369Q3056 369 3101 389M2281 1737L2281 1950L1020 926L1118 795L2281 1737M2281 471L2281 1655L1159 750Q1431 385 1962 385Q2156 385 2281 471M1085 1307L1085 2216Q782 1993 782 1749Q782 1533 835 1352Q875 1217 987 983Q1085 1024 1085 1307Z"  horiz-adv-x="3195" vert-adv-y="4167"  />

      
      <glyph glyph-name="unid1" unicode="&#xd1;" d="M2298 2601Q2262 2596 2133 2445Q2034 2329 2002 2266.50Q1970 2204 1933 2056Q1914 2210 1870 2260Q1838 2296 1684 2369Q1505 2454 1450 2454Q1431 2454 1407.50 2419Q1384 2384 1384 2363L1384 1499Q1384 1401 803 856Q1332 373 1614 373Q1801 373 1998 522Q2182 661 2281 770Q2276 737 2177 611Q1989 373 1755 199Q1462-18 1225-18Q924-18 622 221Q363 426 190 725Q0 1053 0 1376Q0 2037 650 2478Q1027 2734 1384 2834L1384 2466Q1761 2867 1823 2867Q1867 2867 2075.50 2751Q2284 2635 2298 2601M922 1237L922 2560Q873 2556 746 2460Q397 2197 397 1765Q397 1446 540 1212Q676 989 778 893Q922 1077 922 1237Z"  horiz-adv-x="2417" vert-adv-y="4167"  />

      
      <glyph glyph-name="unid6" unicode="&#xd6;" d="M3142-227Q3142-556 3064-567Q3062-587 3004-596Q2914-600 2834-605Q2699-614 2449-641Q2368-607 2155-520Q1997-457 1847-457Q1720-457 1700-488Q1700-466 1888.50-353Q2077-240 2118-240Q2269-240 2424-298Q2505-330 2716-412Q2728-412 2728-387Q2728-337 2671-172Q2612-2 2589-2Q2555-2 2476 62Q2277 224 2277 418Q2170 308 1942 157Q1705 0 1434 0Q862 0 557 440Q291 824 291 1421Q291 1668 576 1932Q793 2133 1085 2277L1085 2454L426 2454Q156 2454 0 2331Q4 2352 128 2490Q468 2867 717 2867L1577 2867L1577 1458L2281 2028L2281 2417Q2281 2454 2143 2511Q2015 2564 1962 2564Q1973 2609 2202 2739Q2428 2867 2486 2867Q2553 2867 2656 2811Q2769 2749 2769 2691L2769 651Q2769 599 2876.50 484Q2984 369 3035 369Q3056 369 3101 389L3101 391Q3103 381 3122 183Q3142-28 3142-227M2281 1737L2281 1950L1020 926L1118 795L2281 1737M2281 471L2281 1655L1159 750Q1431 385 1962 385Q2156 385 2281 471M1085 1307L1085 2216Q782 1993 782 1749Q782 1533 835 1352Q875 1217 987 983Q1085 1024 1085 1307Z"  horiz-adv-x="3195" vert-adv-y="4167"  />

      
      <glyph glyph-name="unidc" unicode="&#xdc;" d="M3396 848Q3396 424 2994 116Q2621-170 2183-170Q1874-170 1153 319Q1050 389 934 455L699 306Q565 221 442 221Q361 221 202 360Q80 467 0 569Q24 564 77 530Q125 500 156 500Q250 500 379 599Q486 681 557 778L1115 390Q1020 492 1020 823L1020 2666Q1020 2675 1036 2675Q1122 2675 1561 2531Q1512 2507 1495 1524Q1785 1630 2023 1711Q2302 1806 2572 1806Q2680 1806 2757 1786Q3396 1620 3396 848M2982 1114Q2982 1475 2494 1475Q2198 1475 1921 1217L2896 766Q2982 939 2982 1114M2875 717L1495 1339L1495 1151L2785 594L2875 717M2748 553L1499 1085L1499 221Q1499 106 1778 106Q2399 106 2748 553Z"  horiz-adv-x="3518" vert-adv-y="4167"  />

      
      <glyph glyph-name="unie1" unicode="&#xe1;" d="M2212 1250Q2212 1015 1972 779Q1809 618 1385 324Q910-6 786-6Q738-6 621 64Q387 204 242 447Q94 696 94 963Q94 1267 314 1512Q502 1721 813 1851L971 1917Q937 1945 521 2181Q156 2388 156 2437Q156 2990 1126 2990Q1702 2990 1921 2875Q1362 2833 957 2794Q709 2770 709 2740Q709 2665 1099 2407Q1621 2062 1822 1883Q2212 1537 2212 1250M1630 897Q1630 1441 1024 1876Q914 1849 800 1727Q663 1580 663 1306Q663 795 1307 340Q1630 531 1630 897Z"  horiz-adv-x="2372" vert-adv-y="4167"  />

      
      <glyph glyph-name="unie0" unicode="&#xe0;" d="M1573 295L995 0L995 348Q454-2 315-2Q183-2 90 187Q12 346 12 496Q12 672 416 903Q672 1049 995 1171Q995 1327 860 1534Q714 1757 569 1757Q478 1757 319 1548Q319 1698 615 1879Q892 2048 1061 2048Q1226 2048 1399.50 1867Q1573 1686 1573 1520L1573 295M995 406L995 1110Q483 946 483 750Q483 603 554 484Q637 344 774 344Q815 344 898 362Q995 383 995 406Z"  horiz-adv-x="1901" vert-adv-y="4167"  />

      
      <glyph glyph-name="unie2" unicode="&#xe2;" d="M1966 983L1442 319Q826-2 766-2Q720-2 593 65Q337 200 176 417Q-2 658-2 926Q-2 1384 406 1696Q466 1742 758 1893Q1057 2048 1098 2048Q1143 2048 1358 1847.50Q1573 1647 1573 1606Q1573 1570 1152 1247Q803 979 627 860Q703 627 758 537Q866 360 1032 360Q1163 424 1283 512Q1454 637 1454 717Q1454 733 1274 882Q1094 1031 1094 1061Q1094 1078 1442 1298L1966 983M1069 1270Q1069 1344 614 1700Q500 1593 500 1286Q500 1050 602 901Q1069 1249 1069 1270Z"  horiz-adv-x="2089" vert-adv-y="4167"  />

      
      <glyph glyph-name="unie4" unicode="&#xe4;" d="M2159 2048Q2016 2006 1913 1696Q1843 1486 1843 1094Q1843 899 1874 804L2002 514Q2085 326 2085 217Q2085 20 1812-207Q1711-291 1368-510Q1167-639 990-739Q846-821 651-821Q264-821-29-513Q-141-395-141-367Q-141-281 516 25Q289 163 150 389Q4 625 4 881Q4 1220 266 1530Q495 1801 837 1959Q1029 2048 1135 2048L2159 2048M1585 1720L651 1720Q549 1547 549 1167Q549 971 650 780Q736 617 867 499Q1026 356 1180 356Q1290 356 1360 426Q1270 620 1270 987Q1270 1359 1585 1720M1683-137Q1683-25 1631 50Q1595 91 1503 197Q1479 225 1384 373L442-76Q442-137 568-233Q877-469 1212-469Q1362-469 1512-379Q1683-276 1683-137Z"  horiz-adv-x="2380" vert-adv-y="4167"  />

      
      <glyph glyph-name="unie3" unicode="&#xe3;" d="M2275 844Q2185 464 2054 347Q1963 266 1542 112Q1207-10 856-10Q636-10 543 57Q433 137 433 347Q433 470 476 646Q527 853 592 905Q657 957 955 1007L1361 1075Q1383 1098 1383 1150Q1383 1306 1280 1512Q1162 1748 1027 1748Q996 1748 971 1733Q923 1704 858 1479Q786 1230 752 1184Q682 1171 445 1095Q241 1030 146 1030Q131 1030 123 1037Q136 1071 152 1121Q179 1209 251 1436Q294 1567 426 1727Q784 1912 1247 1912Q1718 1912 1904 1591Q1997 1431 1997 1262Q1997 1154 1954 1113Q1916 1077 1606 1037Q1482 1021 1212 988Q1072 866 1072 527Q1072 102 1277 102Q1348 102 1447 198Q1558 305 1642 670Q1945 744 2275 844Z"  horiz-adv-x="2314" vert-adv-y="4167"  />

      
      <glyph glyph-name="unie5" unicode="&#xe5;" d="M1573 1606Q1573 1570 1151 1247Q785 966 627 860Q647 820 758 687Q1065 319 1298 319Q1316 319 1355 337L1358 339L1359 339L1359 340L1360 340L1359 339L1359 339L1355 337L1188 232Q1063 153 933 80Q788-2 766-2Q721-2 593 65Q337 199 176 417Q-2 658-2 926Q-2 1384 406 1696Q466 1742 758 1893Q1057 2048 1098 2048Q1143 2048 1358 1847.50Q1573 1647 1573 1606M1069 1270Q1069 1344 614 1700Q500 1593 500 1286Q500 1050 602 901Q1069 1249 1069 1270M1359 339L1358 339L1355 337L1359 339Z"  horiz-adv-x="1831" vert-adv-y="4167"  />

      
      <glyph glyph-name="unie7" unicode="&#xe7;" d="M2101 270Q2101 33 1805-188Q1066-739 979-739Q927-739 488-534.50Q49-330-117-330Q-181-330-350-416L-371-412Q-368-316-112-80Q127 140 242 188Q374 188 643 57Q754 1 1043-143Q1419-330 1479-330Q1525-330 1564-223Q1597-132 1597-68Q1597 190 1426.50 367.50Q1256 545 999 545Q889 545 703 483Q688 483 688 500Q688 543 1462 1434Q1404 1405 1311 1405Q1166 1405 876.50 1440Q587 1475 442 1475Q401 1475 317 1379Q225 1274 197 1262Q202 1352 563 1700Q924 2048 1012 2048Q1132 2048 1518 1984Q1850 1929 1937 1929Q2028 1929 2064 1958Q2054 1916 1163 909Q1308 991 1458 991Q1711 991 1911 754Q2101 528 2101 270Z"  horiz-adv-x="2339" vert-adv-y="4167"  />

      
      <glyph glyph-name="unie9" unicode="&#xe9;" d="M1581 2654Q1306 2355 1130 2355Q1013 2355 796.50 2449.50Q580 2544 463 2544Q370 2544 193 2441Q472 2740 643 2740Q760 2740 977 2646Q1194 2552 1311 2552Q1397 2552 1581 2654M2015 348Q2010 324 1788 164Q1566 4 1536 4Q1495 4 1410 180Q1331 344 1323 410Q1319 355 1005 176Q696 0 614 0Q561 0 434 75Q111 266 111 430L111 1475Q111 1514-76 1712Q-75 1757 142.50 1898.50Q360 2040 418 2040Q440 2040 506 1977Q688 1803 688 1749L688 520Q688 459 787 387Q881 319 946 319Q1014 319 1162 387Q1323 461 1323 512L1323 1421Q1323 1486 1237 1598L1151 1708Q1151 1756 1343.50 1902Q1536 2048 1593 2048Q1620 2048 1696 1981Q1901 1801 1901 1729L1901 537Q1901 492 1937 424Q1976 350 2015 348Z"  horiz-adv-x="2249" vert-adv-y="4167"  />

      
      <glyph glyph-name="unie8" unicode="&#xe8;" d="M2015 348Q2010 324 1788 164Q1566 4 1536 4Q1495 4 1410 180Q1331 344 1323 410Q1319 355 1005 176Q696 0 614 0Q561 0 434 75Q111 266 111 430L111 1475Q111 1514-76 1712Q-75 1757 142.50 1898.50Q360 2040 418 2040Q440 2040 506 1977Q688 1803 688 1749L688 520Q688 459 787 387Q881 319 946 319Q1014 319 1162 387Q1323 461 1323 512L1323 1421Q1323 1486 1237 1598L1151 1708Q1151 1756 1343.50 1902Q1536 2048 1593 2048Q1620 2048 1696 1981Q1901 1801 1901 1729L1901 537Q1901 492 1937 424Q1976 350 2015 348Z"  horiz-adv-x="2249" vert-adv-y="4167"  />

      
      <glyph glyph-name="uniea" unicode="&#xea;" d="M2068 2056Q2068 2011 1947 1834Q1912 1784 1822 1652Q1776 1583 1745 1461Q1717 1349 1525 1230Q1485 1205 1233 1057Q1239 1048 1249 1044Q1283 1042 1633.50 669.50Q1984 297 2036 295Q2026 266 1774.50 133Q1523 0 1479 0Q1400 0 1067 484Q731 972 709 975L709 180L131 0L131 1630Q131 1665 116.50 1732.50Q102 1800 102 1835Q102 1886 339 1962Q558 2032 643 2032Q709 2032 709 1839L709 1028Q1221 1071 1221 1180Q1221 1336 1321 1736Q1350 1850 1368 1966Q1392 1969 1542 2010Q1905 2109 1995 2109Q2044 2109 2040 2077Q2068 2080 2068 2056Z"  horiz-adv-x="2208" vert-adv-y="4167"  />

      
      <glyph glyph-name="unieb" unicode="&#xeb;" d="M2461 409Q2032-10 1896-10Q1835-10 1733 125Q1647 239 1614 324Q1440 772 1249 1230Q1147 1475 1053 1626Q839 1459 752 1321Q643 1148 643 909Q643 838 635 696Q627 554 627 483Q627-6 903-13Q904-13 827-12Q742-11 652-11L401-10Q131-9 131 152Q131 213 145.50 334Q160 455 160 516Q160 825 580 1269Q863 1568 1259 1856Q1483 2019 1507 2019Q1551 2019 1674 1723Q1758 1514 1987 976Q2242 393 2404 393Q2431 393 2461 409Z"  horiz-adv-x="2486" vert-adv-y="4167"  />

      
      <glyph glyph-name="unied" unicode="&#xed;" d="M2146 340Q2143 313 1917 169Q1720 44 1634-2Q1569-2 1450 102Q1331 206 1331 270L1331 1108Q1196 860 1130 860Q1093 860 965.50 954.50Q838 1049 799 1049Q766 1049 696 979L696 188L119-23L119 1483Q119 1601-35 1753Q-31 1783 185 1913.50Q401 2044 446 2044Q539 2044 621 1912Q696 1792 696 1692L696 1010Q822 1245 889 1245Q927 1245 1052.50 1151Q1178 1057 1221 1057Q1252 1057 1331 1132Q1331 1479 1348 1522Q1511 1933 1511 1999Q1511 2043 1483 2048Q1540 2048 1643 1999Q1909 1872 1909 1671L1909 618Q1909 428 2146 340M1355 1158Q1341 1142 1331 1132L1331 1108Q1343 1131 1355 1158M696 979L696 1010Q685 991 664 946Q682 966 696 979Z"  horiz-adv-x="2298" vert-adv-y="4167"  />

      
      <glyph glyph-name="uniec" unicode="&#xec;" d="M3751 429Q3321 8 3187 8Q3127 8 3024 145Q2935 264 2904 344Q2707 858 2496 1384Q2432 1543 2343 1688Q2214 1593 2176 1552Q2056 1420 2056 1114Q2056 1008 2036 1008Q2006 1008 1972 1152Q1942 1280 1942 1335Q1942 1580 2115 1765Q2267 1929 2518 2012Q2725 2081 2798 2081Q2842 2081 2961 1785L3194 1202Q3324 881 3466 636Q3595 414 3695 414Q3720 414 3751 429M2461 409Q2032-10 1896-10Q1835-10 1733 125Q1647 239 1614 324Q1440 772 1249 1230Q1147 1475 1053 1626Q839 1459 752 1321Q643 1148 643 909Q643 838 635 696Q627 554 627 483Q627-6 903-13Q904-13 827-12Q742-11 652-11L401-10Q131-9 131 152Q131 213 145.50 334Q160 455 160 516Q160 825 580 1269Q863 1568 1259 1856Q1483 2019 1507 2019Q1551 2019 1674 1723Q1758 1514 1987 976Q2242 393 2404 393Q2431 393 2461 409Z"  horiz-adv-x="3850" vert-adv-y="4167"  />

      
      <glyph glyph-name="uniee" unicode="&#xee;" d="M2130 1135Q2130 946 2058 804Q1978 646 1755 476Q1357 172 1025 30Q955 0 844 0Q285 0 80 544Q-2 761-2 946Q-2 1301 176 1528Q230 1597 511 1751Q744 1879 894 1944Q1133 2048 1245 2048Q1630 2048 1882 1783Q2130 1522 2130 1135M1581 791Q1581 1094 1459 1332Q1323 1597 1065 1713Q876 1798 778 1798Q642 1798 569 1563Q516 1393 516 1212Q516 901 654 673Q802 427 1082 325Q1208 279 1282 279Q1422 279 1510 473Q1581 630 1581 791Z"  horiz-adv-x="2404" vert-adv-y="4167"  />

      
      <glyph glyph-name="unief" unicode="&#xef;" d="M2146 340Q2143 313 1917 169Q1724 46 1634-2Q1567-1 1449 102Q1331 205 1331 270L1331 1438Q1331 1540 1203 1639Q1081 1733 975 1733Q925 1733 814 1680Q696 1624 696 1585L696 188L119-23L119 1483Q119 1601-35 1753Q-27 1786 187.50 1915Q402 2044 446 2044Q539 2044 621 1912Q696 1792 696 1692Q1244 2048 1483 2048Q1540 2048 1643 1999Q1909 1872 1909 1671L1909 618Q1909 428 2146 340Z"  horiz-adv-x="2298" vert-adv-y="4167"  />

      
      <glyph glyph-name="unif1" unicode="&#xf1;" d="M1679 1712Q1679 1692 1443 1546Q1203 1397 1159 1397Q1134 1397 659 1778Q610 1777 579 1591Q557 1458 557 1352Q557 1086 667 849Q782 600 989 450Q1163 324 1269 324Q1260 324 1339 336Q1325 305 1043 152.50Q761 0 717 0Q652 0 528 78Q294 225 149 472Q-2 726-2 995Q-2 1350 294 1625Q533 1847 917 1983Q1101 2048 1126 2048Q1175 2048 1429 1890Q1679 1734 1679 1712Z"  horiz-adv-x="1810" vert-adv-y="4167"  />

      
      <glyph glyph-name="unif3" unicode="&#xf3;" d="M2138 1544Q2138 1172 1729 802Q1602 691 1275 400Q1005 158 877-43Q973-10 1090-10Q1213-10 1401-68Q1657-147 1708-158Q1696-188 1471-367.50Q1246-547 1221-547Q1132-547 909.50-473Q687-399 586-399Q541-399 369-444Q385-421 623-187Q815 2 815 74Q815 119 518 692Q249 1210 148 1386Q59 1540-14 1610Q-7 1665 218 1836Q443 2007 504 2007Q527 2007 622 1824Q815 1452 1298 537Q1626 802 1626 1163Q1626 1393 1473 1590Q1309 1802 1085 1802Q933 1802 827 1712Q833 1736 950 1856Q1277 2191 1573 2191Q1619 2191 1741 2146Q2138 2000 2138 1544Z"  horiz-adv-x="2417" vert-adv-y="4167"  />

      
      <glyph glyph-name="unif2" unicode="&#xf2;" d="M3191 246Q3188 209 2946 103Q2709 0 2646 0Q2634 0 2556 54Q2347 198 2347 369L2347 1438Q2347 1510 2145 1642Q2068 1692 2040 1692Q1998 1692 1913 1660Q1819 1625 1819 1593L1819 184L1237 0L1237 1417Q1237 1475 1120.50 1585.50Q1004 1696 946 1696Q906 1696 810 1664Q705 1629 705 1606L705 184L127-18L127 1495Q127 1579 67.50 1639.50Q8 1700-76 1700Q-73 1724 24 1812Q283 2048 434 2048Q491 2048 586 1901Q674 1765 688 1692Q1211 2048 1307 2048Q1364 2048 1568 1893Q1766 1743 1806 1679Q1940 1789 2125 1902Q2364 2048 2462 2048Q2519 2048 2633 1973Q2925 1782 2925 1647L2925 524Q2925 359 3191 246Z"  horiz-adv-x="3346" vert-adv-y="4167"  />

      
      <glyph glyph-name="unif4" unicode="&#xf4;" d="M3166 1012Q3166 786 2791 416Q2512 141 2208-59Q2148 8 1876 352L1876-571Q1797-574 1319-797L1319 352Q1218 206 1008-80Q703 122 414 407Q29 787 29 1012Q29 1322 202 1583Q365 1830 649 1982Q772 2048 791 2048Q852 2048 1319 1704Q1319 1880 1368 1880Q1437 1880 1598 1982.50Q1759 2085 1786 2085Q1826 2085 1847 2044Q1876 2040 1876 1759L1876 1704Q2342 2048 2404 2048Q2425 2048 2548 1982Q2831 1831 2994 1582Q3166 1322 3166 1012M2703 741Q2703 971 2517 1225Q2353 1449 2131 1586Q2000 1667 1929 1667Q1876 1667 1876 1630L1876 672Q1938 669 2437 352Q2703 476 2703 741M1319 672L1319 1630Q1319 1667 1266 1667Q1198 1667 1066 1586Q843 1449 678 1225Q492 972 492 741Q492 485 758 352Q1013 514 1319 672Z"  horiz-adv-x="3256" vert-adv-y="4167"  />

      
      <glyph glyph-name="unif6" unicode="&#xf6;" d="M2609-199Q2449-244 2091-324Q1574-440 1487-440Q1442-440 1270-485Q1402-348 1905-14Q1841-12 1585 173Q1329 358 1323 410Q1317 351 1004 175Q696 0 614 0Q561 0 434 75Q111 266 111 430L111 1475Q111 1514-76 1712Q-73 1758 143 1899Q359 2040 418 2040Q440 2040 506 1977Q688 1803 688 1749L688 520Q688 459 787 387Q881 319 946 319Q1014 319 1162 387Q1323 461 1323 512L1323 1421Q1323 1486 1237 1598L1151 1708Q1151 1757 1343.50 1902.50Q1536 2048 1593 2048Q1620 2048 1696 1981Q1901 1801 1901 1729L1901 537Q1901 494 1937 425Q1976 350 2015 348Q2132 201 2300 32Q2530-199 2609-199Z"  horiz-adv-x="2683" vert-adv-y="4167"  />

      
      <glyph glyph-name="unif5" unicode="&#xf5;" d="M2028 1933Q2028 1877 1593 1507Q1502 1556 1344 1602Q1177 1651 1085 1651Q1001 1651 995 1622Q1045 1503 1081 1278Q1187 1278 1398.50 1286Q1610 1294 1716 1294Q1711 1261 1549 1142Q1423 1050 1339 1000Q1200 918 1130 918Q1153 841 1432.50 600Q1712 359 1786 356Q1776 318 1554 159Q1332 0 1290 0Q1217 0 980 196Q747 389 717 467Q260-68-358-387Q-14-134 239 139Q606 534 606 807Q606 857 594 901Q490 901 280 884L82 868Q70 870 66 877Q238 1024 516 1212Q484 1303 288 1503Q85 1710 8 1712Q257 2048 516 2048Q610 2048 776 1904Q930 1770 979 1671Q1440 2101 1487 2101Q1551 2101 1844 1997Q1999 1942 2019 1942Q2028 1942 2028 1933Z"  horiz-adv-x="2253" vert-adv-y="4167"  />

      
      <glyph glyph-name="unifa" unicode="&#xfa;" d="M2736 868Q2736 559 2563 298Q2399 49 2116-101Q1994-166 1974-166Q1916-166 1446 176Q1446 0 1397 0Q1271 0 977 193Q738 350 598 483Q627 480 913 324L913 1061Q868 1077 781 1136Q685 1201 680 1233Q809 1276 913 1323L922 1864L512 1864L41 1536L41 2089L913 2089L1446 1839L1446 1364Q1513 1394 1552 1409Q1593 1408 1770 1377Q2736 1208 2736 868M2273 872Q2273 1008 2182 1070Q2120 1112 1966 1139Q1735 1041 1446 942L1446 250Q1446 213 1499 213Q1615 213 1800 289Q2273 483 2273 872Z"  horiz-adv-x="2826" vert-adv-y="4167"  />

      
      <glyph glyph-name="unif9" unicode="&#xf9;" d="M3592 4Q3588-35 3356.50-301Q3125-567 3105-567Q3001-567 2798-514Q2595-461 2490-461Q2454-461 2383.50-467Q2313-473 2277-473Q2261-473 2253-465Q2267-446 2667-248Q3052-57 3060 0Q2988 1 2721 150Q2450 302 2437 356Q1922 0 1819 0Q1761 0 1559 154Q1364 303 1319 369Q856 0 664 0Q609 0 493 76Q201 267 201 401L201 1524Q201 1690-64 1802Q-60 1839 181 1945Q417 2048 479 2048Q492 2048 569 1995Q778 1852 778 1679L778 610Q778 561 905.50 458.50Q1033 356 1085 356Q1125 356 1212 389Q1307 425 1307 455L1307 1864L1888 2048L1888 631Q1888 573 2004.50 462.50Q2121 352 2179 352Q2217 352 2315 385Q2421 421 2421 442L2421 1864L2998 2068L2998 553Q2998 466 3150 311Q3263 196 3382 110Q3529 4 3592 4Z"  horiz-adv-x="3625" vert-adv-y="4167"  />

      
      <glyph glyph-name="unifb" unicode="&#xfb;" d="M3027 344Q2482 0 2384 0Q2316 0 2272 87Q2236 159 2236 233L2236 1446Q2236 1702 2064 1745Q2482 2052 2609 2052Q2628 2052 2680 2010Q2814 1902 2814 1786L2814 492Q2814 324 2941 324Q2958 324 3027 344M2060 868Q2060 559 1887 298Q1723 49 1440-101Q1318-166 1298-166Q1235-166 770 176Q770 0 721 0Q643 0 455 106Q358 161 162 293Q-69 449-76 483Q-48 479 238 324L238 1061Q189 1078 105 1135Q9 1200 4 1233Q136 1276 238 1323L238 2089L770 1839L770 1364Q867 1409 877 1409Q911 1409 1094 1377Q2060 1208 2060 868M1597 872Q1597 1009 1507 1070Q1445 1112 1290 1139Q1051 1038 770 942L770 250Q770 213 823 213Q898 213 1032 255Q1265 328 1418 477Q1597 651 1597 872Z"  horiz-adv-x="3154" vert-adv-y="4167"  />

      
      <glyph glyph-name="unifc" unicode="&#xfc;" d="M2060 868Q2060 559 1887 298Q1723 49 1440-101Q1318-166 1298-166Q1235-166 770 176Q770 0 721 0Q643 0 455 106Q358 161 162 293Q-69 449-76 483Q-48 479 238 324L238 1061Q189 1078 105 1135Q9 1200 4 1233Q136 1276 238 1323L238 2089L770 1839L770 1364Q867 1409 877 1409Q911 1409 1094 1377Q2060 1208 2060 868M1597 872Q1597 1009 1507 1070Q1445 1112 1290 1139Q1051 1038 770 942L770 250Q770 213 823 213Q898 213 1032 255Q1265 328 1418 477Q1597 651 1597 872Z"  horiz-adv-x="2281" vert-adv-y="4167"  />

      
      <glyph glyph-name="uni2020" unicode="&#x2020;" d="M1106 2314Q985 2192 696 1909L553 1085L418 1909Q285 2034 0 2314L553 2867L688 2732Q672 2647 553 2314L971 2449L1106 2314Z"  horiz-adv-x="1319" vert-adv-y="4167"  />

      
      <glyph glyph-name="unib0" unicode="&#xb0;" d="M930 2462Q930 2348 861 2265Q816 2212 668 2111Q520 2010 454 1987Q416 1974 377 1974Q210 1974 108 2098Q12 2213 12 2384Q12 2546 83 2626Q129 2678 297 2766Q475 2859 549 2859Q716 2859 824 2743Q930 2631 930 2462M692 2314Q692 2613 471 2712Q391 2748 348 2748Q290 2748 257 2647Q233 2573 233 2499Q233 2228 438 2131Q518 2093 565 2093Q625 2093 662 2177Q692 2245 692 2314Z"  horiz-adv-x="1303" vert-adv-y="4167"  />

      
      <glyph glyph-name="unia7" unicode="&#xa7;" d="M1675 811Q1675 624 1363 309Q1051-6 864-6Q748-6 427 171Q161 318 4 438Q7 500 125 598Q243 696 307 696Q367 696 732.50 467Q1098 238 1122 238Q1195 238 1300 350.50Q1405 463 1405 537Q1405 574 710.50 1039.50Q16 1505 16 1618Q16 1791 315 2142Q0 2334 0 2449Q0 2636 312 2952.50Q624 3269 811 3269Q895 3269 1093 3171Q1265 3086 1479 2952Q1671 2832 1671 2822Q1671 2759 1552.50 2661.50Q1434 2564 1368 2564Q1311 2564 944 2793.50Q577 3023 553 3023Q481 3023 375.50 2910Q270 2797 270 2724Q270 2665 772 2341Q1145 2100 1467 1882Q1659 1752 1659 1642Q1659 1469 1356 1114Q1675 927 1675 811M1364 1425Q1364 1532 406 2093Q311 1942 311 1835Q311 1728 1270 1167Q1364 1314 1364 1425Z"  horiz-adv-x="1970" vert-adv-y="4167"  />

      
      <glyph glyph-name="uni2022" unicode="&#x2022;" d="M1229 1434Q1229 1160 1058.50 989.50Q888 819 614 819Q340 819 170 989.50Q0 1160 0 1434Q0 1707 170.50 1877.50Q341 2048 614 2048Q886 2048 1057.50 1877Q1229 1706 1229 1434Z"  horiz-adv-x="1647" vert-adv-y="4167"  />

      
      <glyph glyph-name="unib6" unicode="&#xb6;" d="M2097 0L1917 0L1917 2662L1737 2662L1737 0L1556 0L1556 1253Q1434 1074 1248 956Q1044 827 844 827Q467 827 227 1114Q0 1385 0 1769Q0 2135 176 2355Q216 2405 428 2535Q969 2867 1245 2867L2097 2867L2097 0M1556 1380L1556 2662Q1458 2666 1343 2666Q834 2666 721 2601Q516 2483 516 1995Q516 1679 740 1395Q978 1094 1286 1094Q1377 1094 1466.50 1191Q1556 1288 1556 1380Z"  horiz-adv-x="2503" vert-adv-y="4167"  />

      
      <glyph glyph-name="unidf" unicode="&#xdf;" d="M3224 389Q3222 344 2994 171Q2766-2 2712-2Q2677-2 2599 62Q2399 227 2399 426Q2399 500 2400 644Q2401 828 2401 879L2404 2417Q2404 2454 2266 2511Q2137 2564 2085 2564Q2091 2607 2322 2738Q2550 2867 2609 2867Q2676 2867 2779 2811Q2892 2749 2892 2691L2892 651Q2892 600 3000 484.50Q3108 369 3158 369Q3178 369 3224 389M2159 770Q2122 774 1945 923Q1466 1326 1466 1556L1466 2474Q1466 2499 1409 2499Q1153 2499 887 2346Q582 2171 582 1937Q582 1508 979 1364Q1039 1389 1085 1389Q1311 1389 1675 1053Q1579 1114 1552 1114Q1386 1114 869 319Q924 307 938 307Q998 307 1211.50 450.50Q1425 594 1475 594Q1564 594 2073 365Q1903 365 1823 312Q1814 306 1643 143Q1514 20 1438 20Q1385 20 1152 143Q930 260 865 313Q773 178 672 0Q621 3 353 174.50Q85 346 78 381L86 389Q129 366 213 344L567 893Q853 1336 946 1339Q642 1504 413 1705Q90 1989 90 2220Q90 2447 345 2661Q590 2867 823 2867Q938 2867 1203 2759Q1383 2686 1599 2570Q1901 2408 1901 2335L1901 1266Q1901 1056 2159 770Z"  horiz-adv-x="3318" vert-adv-y="4167"  />

      
      <glyph glyph-name="unia9" unicode="&#xa9;" d="M2228 1753Q2228 1257 1919 948Q1610 639 1114 639Q618 639 309 948Q0 1257 0 1753Q0 2249 309 2558Q618 2867 1114 2867Q1610 2867 1919 2558Q2228 2249 2228 1753M2114 1753Q2114 2199 1837 2478Q1560 2757 1114 2757Q668 2757 391.50 2478.50Q115 2200 115 1753Q115 1306 391 1030Q667 754 1114 754Q1561 754 1837.50 1030Q2114 1306 2114 1753M1610 2253L1524 2163Q1351 2335 1114 2335Q872 2335 706.50 2169Q541 2003 541 1761Q541 1518 706 1353Q871 1188 1114 1188Q1352 1188 1516 1352L1606 1266Q1398 1065 1114 1065Q818 1065 614 1265Q410 1465 410 1761Q410 2056 614 2257Q818 2458 1114 2458Q1405 2458 1610 2253Z"  horiz-adv-x="2507" vert-adv-y="4167"  />

      
      <glyph glyph-name="uni2122" unicode="&#x2122;" d="M2646 1761L2523 1761L2523 2662L1987 1761L1888 1761L1352 2662L1352 1761L1229 1761L1229 2867L1352 2867L1937 1884L2519 2867L2646 2867L2646 1761M1024 2744L573 2744L573 1761L451 1761L451 2744L0 2744L0 2867L1024 2867L1024 2744Z"  horiz-adv-x="2884" vert-adv-y="4167"  />

      
      <glyph glyph-name="unia8" unicode="&#xa8;" d="M2351 3191Q2351 3120 2240 3029Q2133 2941 2060 2941Q2014 2941 1966 3003Q1921 3061 1921 3109Q1921 3146 2013 3216Q2102 3285 2142 3285Q2153 3247 2164 3208Q2180 3166 2224 3166Q2280 3182 2343 3199L2351 3191M1577 3191Q1577 3122 1467.50 3031.50Q1358 2941 1286 2941Q1240 2941 1189.50 3001.50Q1139 3062 1139 3109Q1139 3152 1234 3220Q1325 3285 1372 3285Q1378 3264 1394 3209Q1407 3167 1452 3166L1451 3166L1477 3175Q1490 3180 1569 3199L1577 3191M3023 2642Q2383 2290 2261 2290Q2200 2290 2003.50 2361.50Q1807 2433 1720 2433Q1683 2433 1683 2417L1683 1491Q2007 1823 2073 1823Q2119 1823 2340 1715Q2565 1605 2630 1602Q2233 1233 2126 1233Q2110 1233 1688 1430Q1688 1270 1428 1051Q1249 900 1020 774Q1249 1018 1249 1286L1249 2171Q1249 2437 1826 2735Q2043 2847 2085 2847Q2128 2847 2464 2770L3023 2642M2916 516Q2908 495 2758 366Q2339 4 2114 4Q2064 4 1786 120Q1198 365 1012 365Q786 365 393-27Q393 164 0 393Q569 772 569 1032L569 2245Q569 2465 855 2643Q1065 2774 1343 2843Q1246 2804 1131 2711Q1004 2608 1004 2458L1004 1311Q1004 1108 496 696Q599 696 712 589Q808 499 860 389Q1170 659 1430 659Q1575 659 1915 546Q2054 499 2416 377Q2515 344 2580 344Q2646 344 2916 516Z"  horiz-adv-x="3088" vert-adv-y="4167"  />

      
      <glyph glyph-name="unic6" unicode="&#xc6;" d="M4239 410Q4230 359 3980.50 110.50Q3731-138 3686-141Q3686 55 3498 345Q3337 593 3152 755Q3102 799 3071 820Q3013 860 2978 860L2970 868Q2974 905 3420 1307Q3351 1359 3043 1536L3043 1282Q3043 1132 2754 861Q2539 660 2327 524Q2345 546 2378 583Q2605 838 2605 1143L2605 2126Q2605 2209 2971 2470Q3327 2724 3412 2724Q3894 2544 4174 2462Q4170 2435 3986 2258Q3802 2081 3781 2081Q3710 2081 3191 2261Q3119 2286 3072 2286Q3047 2286 3047 2273L3047 1634Q3362 1925 3383 1925Q3428 1925 3649 1801Q3867 1679 3867 1659Q3867 1623 3396 1188Q3508 1188 3708 974Q4055 602 4096 348Q4098 341 4104 336Q4150 368 4239 410M2712 2626Q2359 2437 2359 2232L2359 1020Q2359 775 1864 487Q1940 487 2116 385Q2299 279 2302 217Q2255 213 1958-145Q1951-93 1743.50 51.50Q1536 196 1475 197L1698 408Q1966 662 1966 864L1966 2011Q1966 2241 2235 2420Q2429 2549 2712 2626M1851 647Q1823 651 1677 769Q1278 1091 1278 1282L1278 1536Q1164 1474 901 1307Q1059 1170 1150 1086Q1349 903 1352 868L1343 860Q1290 859 1172 757Q992 601 826 346Q635 51 635-141L627-150Q587-147 336.50 110Q86 367 82 410Q137 372 217 336Q224 339 225 348Q238 465 360 653Q466 816 614 974Q815 1188 926 1188Q455 1623 455 1659Q455 1679 672.50 1802Q890 1925 938 1925Q960 1925 1274 1634L1274 2273Q1274 2286 1249 2286Q1208 2286 1141 2263L833 2156Q615 2081 541 2081Q520 2081 335.50 2258Q151 2435 147 2462Q192 2463 549 2593L909 2724Q993 2724 1350 2470Q1716 2210 1716 2126L1716 1143Q1716 832 1851 647Z"  horiz-adv-x="4321" vert-adv-y="4167"  />

      
      <glyph glyph-name="unid8" unicode="&#xd8;" d="M4411 389Q4405 341 4179 169.50Q3953-2 3899-2Q3866-2 3787 62Q3588 223 3588 416Q3576 388 3405 284Q2934-2 2589-2Q2558-2 2477 64Q2277 226 2277 418Q1871 0 1434 0Q862 0 557 440Q291 823 291 1421Q291 1668 576 1932Q793 2133 1085 2277L1085 2454L426 2454Q156 2454 0 2331Q4 2352 128 2490Q467 2867 717 2867L1577 2867L1577 1458L2281 2028L2281 2417Q2281 2454 2143 2511Q2017 2563 1962 2564Q1973 2610 2200 2738.50Q2427 2867 2486 2867Q2553 2867 2656 2811Q2769 2749 2769 2691L2769 651Q2769 552 2868.50 456Q2968 360 3068 360Q3077 361 3211 390L3592 471L3592 2417Q3592 2454 3454 2511Q3328 2563 3273 2564Q3279 2607 3510 2738Q3738 2867 3797 2867Q3864 2867 3967 2811Q4080 2749 4080 2691L4080 651Q4080 599 4187.50 484Q4295 369 4346 369Q4366 369 4411 389M2281 1737L2281 1950L1020 926L1118 795L2281 1737M2281 471L2281 1655L1159 750Q1431 385 1962 385Q2156 385 2281 471M1085 1307L1085 2216Q782 1993 782 1749Q782 1533 835 1352Q875 1217 987 983Q1085 1024 1085 1307Z"  horiz-adv-x="4473" vert-adv-y="4167"  />

      
      <glyph glyph-name="unib1" unicode="&#xb1;" d="M1843 1991Q1673 1635 1532 1561Q1492 1540 1126 1540L1126 1184Q1126 1128 931 974Q742 825 680 823L676 827Q717 926 717 1061L717 1540L276 1540Q60 1540 0 1499Q3 1523 46 1608Q166 1845 307 1929Q342 1950 717 1950L717 2290Q717 2424 1026 2606Q1086 2641 1171 2675Q1126 2585 1126 2425L1126 1950L1622 1950Q1780 1950 1843 1991M1843 762Q1671 403 1532 332Q1491 311 1376 311L295 311Q60 311 0 270Q2 293 46 379Q170 621 307 700Q343 721 446 721L1622 721Q1780 721 1843 762Z"  horiz-adv-x="2089" vert-adv-y="4167"  />

      
      <glyph glyph-name="unib5" unicode="&#xb5;" d="M2298 2068Q2298 2030 2179 1950Q2060 1870 2060 1835L2060 356Q2060 293 2166.50 205Q2273 117 2273 86Q2273 0 2122 0L1458 0Q1315 0 1315 66Q1315 113 1425.50 208.50Q1536 304 1536 328L1536 360Q1421 331 1280 225Q1166 134 1051 42Q980 0 807 0Q696 0 606 45Q614-9 671-258Q713-443 713-563Q713-776 455-776Q357-776 291-719Q221-659 221-563Q221-516 242-322Q293 150 295 537L291 537L291 1835Q291 1888 172 1965.50Q53 2043 53 2068Q53 2138 193 2138L692 2138Q815 2138 815 1982L815 713Q815 475 1016 475Q1111 475 1277 532Q1452 592 1536 598L1536 1835Q1536 1862 1423.50 1949.50Q1311 2037 1311 2068Q1311 2138 1450 2138L2154 2138Q2298 2138 2298 2068Z"  horiz-adv-x="2351" vert-adv-y="4167"  />

      
      <glyph glyph-name="uni03BC" unicode="&#x03BC;" d="M2298 2068Q2298 2030 2179 1950Q2060 1870 2060 1835L2060 356Q2060 293 2166.50 205Q2273 117 2273 86Q2273 0 2122 0L1458 0Q1315 0 1315 66Q1315 113 1425.50 208.50Q1536 304 1536 328L1536 360Q1421 331 1280 225Q1166 134 1051 42Q980 0 807 0Q696 0 606 45Q614-9 671-258Q713-443 713-563Q713-776 455-776Q357-776 291-719Q221-659 221-563Q221-516 242-322Q293 150 295 537L291 537L291 1835Q291 1888 172 1965.50Q53 2043 53 2068Q53 2138 193 2138L692 2138Q815 2138 815 1982L815 713Q815 475 1016 475Q1111 475 1277 532Q1452 592 1536 598L1536 1835Q1536 1862 1423.50 1949.50Q1311 2037 1311 2068Q1311 2138 1450 2138L2154 2138Q2298 2138 2298 2068Z"  horiz-adv-x="2351" vert-adv-y="4167"  />

      
      <glyph glyph-name="unie6" unicode="&#xe6;" d="M3301 2052Q3301 2000 3166 1793Q3116 1717 2986 1520Q2913 1408 2830 1336Q2705 1246 2462 1057Q2468 1048 2478 1044Q2511 1041 2861 669Q3211 297 3265 295Q3258 269 3005 134.50Q2752 0 2707 0Q2628 0 2296 484Q1961 972 1937 975L1937 180L1360 0L1360 979Q1336 976 1000 486Q667 0 590 0Q473 0 33 295Q87 297 436.50 669.50Q786 1042 819 1044L829 1049L836 1057Q577 1197 423 1318Q344 1380 322 1466Q294 1573 276 1595Q238 1638 141 1750Q41 1866 41 1905Q41 1930 70 1933Q70 2013 342 2058Q530 2089 680 2089Q681 2055 734 1822Q848 1320 848 1180Q848 1075 1360 979L1360 1630Q1360 1665 1345.50 1732.50Q1331 1800 1331 1835Q1331 1886 1587 1982Q1830 2073 1913 2073Q1942 2073 1942 1995Q1942 1969 1939.50 1917Q1937 1865 1937 1839L1937 1028Q2449 1071 2449 1180Q2449 1342 2551 1744Q2583 1872 2597 1966Q2621 1969 2771 2010Q3133 2109 3224 2109Q3273 2109 3269 2077Q3301 2081 3301 2052Z"  horiz-adv-x="3379" vert-adv-y="4167"  />

      
      <glyph glyph-name="unif8" unicode="&#xf8;" d="M3203 348Q3200 325 3102 236Q2841 0 2691 0Q2636 0 2540 148Q2451 285 2437 356Q1922 0 1819 0Q1760 0 1559 154Q1367 301 1319 369Q857 0 664 0Q609 0 493 76Q201 267 201 401L201 1524Q201 1690-64 1802Q-61 1838 180 1944Q417 2048 479 2048Q492 2048 569 1995Q778 1851 778 1679L778 610Q778 561 905 458.50Q1032 356 1085 356Q1125 356 1212 389Q1307 425 1307 455L1307 1864L1888 2048L1888 631Q1888 573 2004.50 462.50Q2121 352 2179 352Q2217 352 2315 385Q2421 421 2421 442L2421 1864L2998 2068L2998 553Q2998 468 3058 408Q3118 348 3203 348Z"  horiz-adv-x="3346" vert-adv-y="4167"  />

      
      <glyph glyph-name="uniac" unicode="&#xac;" d="M2961 1781Q2789 1420 2649 1351Q2608 1331 2494 1331L395 1329Q160 1329 100 1288Q102 1310 146 1397Q270 1642 407 1718Q443 1738 546 1738L2739 1740Q2897 1740 2961 1781Z"  horiz-adv-x="3093" vert-adv-y="4167"  />

      
      <glyph glyph-name="uniab" unicode="&#xab;" d="M2216 135L1823 45Q1729 202 1464 345Q1253 459 1020 524Q1218 594 1313 638Q1498 725 1562 813Q1614 885 1638 999L2073 1073Q2021 874 1886 763Q1794 687 1561 594Q2047 420 2216 135M1233 135L840 45Q746 202 481 345Q270 459 37 524Q235 594 330 638Q515 725 579 813Q631 885 655 999L1090 1073Q1038 874 903 763Q811 687 578 594Q1064 420 1233 135Z"  horiz-adv-x="2466" vert-adv-y="4167"  />

      
      <glyph glyph-name="unibb" unicode="&#xbb;" d="M2216 594Q2026 527 1923 479Q1736 392 1673 304Q1621 232 1597 119L1163 45Q1214 243 1351 354Q1443 429 1675 524Q1194 694 1020 983L1413 1073Q1524 887 1793 761Q2045 643 2216 594M1233 594Q1040 526 940 479Q754 391 690 305Q638 235 614 119L180 45Q231 243 368 354Q460 429 692 524Q211 694 37 983L430 1073Q541 887 810 761Q1062 643 1233 594Z"  horiz-adv-x="2433" vert-adv-y="4167"  />

      
      <glyph glyph-name="unic0" unicode="&#xc0;" d="M1561 2535Q1561 2502 1390.50 2348Q1220 2194 1180 2191Q1180 2313 994 2425Q825 2527 692 2527Q547 2527 493 2513Q377 2483 377 2380Q377 2121 420 2029Q490 1880 717 1880Q714 1845 551 1684.50Q388 1524 356 1524Q168 1524 87 1594Q0 1670 0 1855Q0 2057 120 2234Q178 2319 389 2535Q433 2582 551 2701Q715 2863 983 2863Q1319 2863 1486 2687Q1561 2608 1561 2535M2773 385Q2647 269 2298-6Q2227-6 2145 103Q1954 356 1954 1233Q1917 1222 1724 1077Q1539 938 1503 938Q1465 938 1376 993Q1282 1051 1249 1057Q934 695 684 553Q693 508 1384 311Q1049 0 938 0Q885 0 734 52Q502 132 223 205Q224 204 224 203Q203 189 41 135Q127 254 491 483Q590 545 647 586Q781 682 887 900Q975 1081 975 1282Q975 1336 1009 1501Q1108 1981 1437 2314Q1617 2496 1933 2597Q1975 2610 2152 2708Q2315 2798 2339 2798Q2396 2798 2396 2605L2396 1544Q2396 743 2558 496Q2636 377 2720 377Q2754 377 2773 385M1950 1286L1950 2515Q1607 2515 1418 1679Q1348 1369 1348 1253Q1374 1259 1476 1338Q1575 1414 1597 1442Q1623 1417 1768.50 1353Q1914 1289 1950 1286Z"  horiz-adv-x="2867" vert-adv-y="4167"  />

      
      <glyph glyph-name="unic3" unicode="&#xc3;" d="M3375 2617Q3030 2336 2892 2335Q2864 2343 2781 2343Q2285 2343 1876 2261L1876 1655L1810 1475Q1794 1432 1171 758Q1507 614 1685 543Q2105 375 2195 373Q2190 345 2120 258Q1923 12 1720 12Q1523 12 1122.50 206.50Q722 401 524 401Q371 401 238 319Q811 773 811 1069L811 2138Q791 2131 303 1655Q188 1836 0 1946Q7 2005 377 2331Q440 2330 672 2118Q893 2339 984 2417Q1168 2575 1343 2654Q1208 2479 1208 2343L1208 1225Q1208 1126 823 758Q913 779 1008 779Q1054 779 1102 774Q1483 1168 1483 1401L1483 2380Q1483 2453 1701.50 2660Q1920 2867 1995 2867Q2202 2867 2472 2843Q2820 2812 2916 2761Q3167 2628 3375 2617Z"  horiz-adv-x="3351" vert-adv-y="4167"  />

      
      <glyph glyph-name="unid5" unicode="&#xd5;" d="M2478 147Q2468 135 2377 101Q2107 0 1696 0Q1664 0 1505 179Q1085 652 1085 1044Q830 528 610 324Q371 102 172-25Q-155-234-285-236Q791 542 791 1298Q778 1311 487 1311Q99 1311 25 1254Q262 1671 467 1671Q512 1671 725 1663Q647 1946 521 2165Q339 2482 139 2482Q73 2482 0 2449Q29 2494 325 2660Q621 2826 672 2826Q720 2826 838 2702Q995 2537 1063 2345Q1114 2201 1143 1929Q1265 2252 1403 2515Q1629 2945 1774 2945Q1820 2945 2014 2775Q2208 2605 2208 2564Q2208 2548 2023 2412Q1835 2273 1802 2273Q1787 2273 1659.50 2367.50Q1532 2462 1499 2462Q1474 2462 1414 2347Q1266 2065 1266 1663Q1395 1655 1528 1655Q1739 1655 1974 1708L1982 1700Q1980 1656 1936 1565Q1817 1319 1724 1319Q1710 1319 1550 1311L1290 1298Q1308 1043 1573 747Q1781 515 2060 334Q2349 147 2478 147Z"  horiz-adv-x="2503" vert-adv-y="4167"  />

      
      <glyph glyph-name="uni2013" unicode="&#x2013;" d="M2335 1659Q2164 1301 2023 1229Q1984 1209 1881 1209Q1612 1209 1075 1219Q538 1229 269 1229Q60 1229 0 1188Q2 1211 46 1297Q171 1542 307 1618Q345 1639 446 1638L2125 1618Q2268 1616 2335 1659Z"  horiz-adv-x="2400" vert-adv-y="4167"  />

      
      <glyph glyph-name="uni2014" unicode="&#x2014;" d="M2961 1781Q2789 1420 2649 1351Q2608 1331 2494 1331L395 1329Q160 1329 100 1288Q102 1310 146 1397Q270 1642 407 1718Q443 1738 546 1738L2739 1740Q2897 1740 2961 1781Z"  horiz-adv-x="3009" vert-adv-y="4167"  />

      
      <glyph glyph-name="uni201C" unicode="&#x201C;" d="M1733 2290Q1648 2214 1496 2118Q1314 2003 1245 2003Q1205 2003 1085.50 2089.50Q966 2176 963 2212Q1043 2371 1220 2683Q1436 3065 1466 3068Q1421 2873 1421 2707Q1421 2485 1464 2458Q1522 2431 1618 2385Q1732 2330 1733 2290M770 2290Q687 2217 532 2119Q349 2003 283 2003Q245 2003 124 2090.50Q3 2178 0 2212Q70 2352 258 2683Q476 3065 504 3068Q459 2878 459 2707Q459 2484 500 2458L655 2385Q769 2331 770 2290Z"  horiz-adv-x="1815" vert-adv-y="4167"  />

      
      <glyph glyph-name="uni201D" unicode="&#x201D;" d="M1434 2863Q1434 2845 1196 2426Q1073 2209 930 2007Q975 2198 975 2367Q975 2590 921 2623Q819 2672 774 2694Q664 2749 664 2785Q664 2817 881.50 2944.50Q1099 3072 1151 3072Q1189 3072 1311.50 2983.50Q1434 2895 1434 2863M471 2863Q471 2845 234 2426Q110 2208-31 2007Q12 2195 12 2367Q12 2538-2 2581Q-10 2605-39 2623L-187 2693Q-297 2745-297 2785Q-297 2815-79.50 2943.50Q138 3072 188 3072Q226 3072 348.50 2983.50Q471 2895 471 2863Z"  horiz-adv-x="1430" vert-adv-y="4167"  />

      
      <glyph glyph-name="uni2018" unicode="&#x2018;" d="M778 2290Q695 2217 540 2119Q357 2003 291 2003Q253 2003 132 2090.50Q11 2178 8 2212Q78 2352 266 2683Q484 3065 512 3068Q467 2878 467 2707Q467 2484 508 2458L663 2385Q777 2331 778 2290Z"  horiz-adv-x="872" vert-adv-y="4167"  />

      
      <glyph glyph-name="uni2019" unicode="&#x2019;" d="M479 2863Q479 2846 241 2426Q114 2202-23 2007Q20 2195 20 2367Q20 2591-31 2623L-179 2693Q-289 2745-289 2785Q-289 2815-72 2943.50Q145 3072 197 3072Q233 3072 356 2982Q479 2892 479 2863Z"  horiz-adv-x="467" vert-adv-y="4167"  />

      
      <glyph glyph-name="unif7" unicode="&#xf7;" d="M2015 348Q2011 325 1789 164.50Q1567 4 1536 4Q1517 4 1476 90Q1459 127 1409 233Q1333 393 1323 983Q1319 925 1005 748Q696 573 614 573Q505 573 311 732Q111 896 111 1004L111 1475Q111 1514-76 1712Q-75 1757 142.50 1898.50Q360 2040 418 2040Q453 2040 570.50 1912.50Q688 1785 688 1749L688 1094Q688 1033 787 961Q881 893 946 893Q1012 893 1162 961Q1323 1034 1323 1085L1323 1421Q1323 1486 1237 1598L1151 1708Q1151 1756 1343.50 1902Q1536 2048 1593 2048Q1620 2048 1696 1981Q1901 1801 1901 1729L1901 537Q1901 494 1937 425Q1976 350 2015 348Z"  horiz-adv-x="2249" vert-adv-y="4167"  />

      
      <glyph glyph-name="uniff" unicode="&#xff;" d="M2052 2060Q2052 2025 2037.50 1957.50Q2023 1890 2023 1855L2023 246L1446-2L1446 750Q1431 748 1088 372Q749 0 676 0Q564 0 119 295Q192 297 633 568Q1084 845 1192 860Q1092 898 922 975Q896 996 821 1052Q397 1356 397 1520Q397 1667 514 1817Q631 1967 774 1999Q879 2023 987 2023Q1130 2023 1252 1977Q1410 1917 1425 1798L1446 1626Q1446 1868 1511 1868Q1553 1868 1764 1970.50Q1975 2073 2032 2073Q2052 2073 2052 2060M1446 803L1446 1577Q1334 1765 1241 1765Q1089 1765 1001 1539Q934 1367 934 1180Q934 1075 1446 803Z"  horiz-adv-x="2208" vert-adv-y="4167"  />

      
      <glyph glyph-name="unia4" unicode="&#xa4;" d="M2277 2245L2052 2015Q2245 1831 2245 1434Q2245 1067 2052 840L2273 618L2036 381L1815 610Q1596 418 1212 418Q832 418 618 606L389 377L147 618L373 840Q184 1071 184 1434Q184 1812 373 2028L152 2249L401 2499L627 2273Q842 2449 1212 2449Q1591 2449 1782 2281L2015 2507L2277 2245M1794 1434Q1794 1695 1635 1866Q1472 2040 1212 2040Q954 2040 792 1865Q635 1694 635 1434Q635 1176 793 1004Q957 827 1212 827Q1470 827 1634 1003Q1794 1174 1794 1434Z"  horiz-adv-x="2425" vert-adv-y="4167"  />

      
      <glyph glyph-name="uni2039" unicode="&#x2039;" d="M1597 971L1061 676Q994 682 250 1229Q0 1413 0 1434Q0 1453 345 1772Q664 2067 870 2247Q1300 2622 1413 2662L933 2218Q482 1801 463 1745L1597 971Z"  horiz-adv-x="2081" vert-adv-y="4167"  />

      
      <glyph glyph-name="uni203A" unicode="&#x203A;" d="M1761 1905Q1761 1886 1416 1567Q1104 1278 891 1092Q463 717 348 676L867 1157Q1280 1540 1298 1593L348 2367Q871 2662 885 2662Q1185 2662 1468 2428Q1761 2186 1761 1905Z"  horiz-adv-x="2081" vert-adv-y="4167"  />

      
      <glyph glyph-name="uni2021" unicode="&#x2021;" d="M2544 2654Q2541 2637 2318 2479Q2091 2318 2081 2318Q2042 2318 1899 2386Q1756 2454 1716 2454Q1679 2454 1679 2417L1679 1790Q2080 1790 2290 1847Q2195 1651 2040 1491Q1981 1430 1679 1430Q1679 1245 1537 1094Q1447 998 1275 876Q1071 731 987 729Q1130 841 1181 923Q1245 1026 1245 1188L1245 2302Q1245 2358 1608 2600Q1966 2839 2028 2839Q2070 2839 2294.50 2759Q2519 2679 2544 2654M2929 520Q2926 474 2690 309Q2502 178 2385 112Q2185 0 2089 0Q2039 0 1948 39L1482 238Q1152 377 1036 377Q930 377 707 223Q681 205 393-2Q391 81 234 220Q80 356-6 356Q145 451 350 639Q565 836 565 1032L565 1430Q216 1430-6 1372Q14 1435 115 1575Q160 1637 224 1710Q327 1790 565 1790L565 2302Q565 2489 851 2684Q1119 2867 1319 2867Q1145 2740 1116 2713Q999 2604 999 2499L999 1311Q999 1058 492 692Q707 692 856 389L1143 554Q1305 647 1450 647Q1592 647 1903 542Q2032 497 2369 382Q2469 348 2535 348Q2640 348 2741 408L2929 520Z"  horiz-adv-x="3072" vert-adv-y="4167"  />

      
      <glyph glyph-name="uni2219" unicode="&#x2219;" d="M1739 1029Q1739 773 1565 599.50Q1391 426 1135 426Q880 426 706 600Q532 774 532 1029Q532 1285 705.50 1459Q879 1633 1135 1633Q1391 1633 1565 1459Q1739 1285 1739 1029Z"  horiz-adv-x="2048" vert-adv-y="4167"  />

      
      <glyph glyph-name="uni2030" unicode="&#x2030;" d="M4289 545Q4289 281 4142 117Q3988-55 3727-55Q3468-55 3311 117Q3158 284 3158 545Q3158 803 3312 971Q3471 1143 3727 1143Q3984 1143 4139 971Q4289 805 4289 545M1368 2302Q1368 2042 1223 1875Q1071 1700 815 1700Q554 1700 398 1872Q246 2039 246 2302Q246 2562 399 2728Q557 2900 815 2900Q1068 2900 1222 2725Q1368 2559 1368 2302M2814 3101L303-350L229-289L2740 3158L2814 3101M2834 545Q2834 284 2688 119Q2534-55 2277-55Q2020-55 1862 118Q1708 286 1708 545Q1708 805 1861 971Q2019 1143 2277 1143Q2530 1143 2685 968Q2834 801 2834 545M3994 545Q3994 1053 3723 1053Q3453 1053 3453 545Q3453 33 3723 33Q3994 33 3994 545M1073 2302Q1073 2810 807 2810Q541 2810 541 2302Q541 1790 807 1790Q1073 1790 1073 2302M2540 545Q2540 1053 2273 1053Q2003 1053 2003 545Q2003 33 2273 33Q2540 33 2540 545Z"  horiz-adv-x="4518" vert-adv-y="4167"  />

      
      <glyph glyph-name="unic2" unicode="&#xc2;" d="M3191 1298Q3191 1153 3131 1033Q3062 895 2935 772Q2868 709 2696 546Q2411 275 2313 199Q2049-6 1864-6Q1667-6 1205 197.50Q743 401 532 401Q365 401 238 319Q811 773 811 1069L811 2138Q792 2132 303 1655Q188 1836 0 1946Q7 2004 377 2331Q439 2330 672 2118Q893 2339 984 2417Q1168 2575 1343 2654Q1208 2479 1208 2343L1208 1225Q1208 1126 823 758Q913 779 1008 779Q1054 779 1102 774Q1483 1168 1483 1401L1483 2380Q1483 2447 1703 2657Q1786 2736 1840 2780Q1946 2866 1995 2867Q2099 2799 2372 2625Q2559 2508 2802 2494L2150 1847Q2301 1933 2507 1933Q3191 1933 3191 1298M2331 2109Q2154 2109 1876 2261L1876 1655L2331 2109M2748 831Q2748 1293 2407 1477Q2261 1556 2114 1556Q1879 1556 1810 1475Q1773 1429 1664 1300Q1580 1201 1171 758Q2199 352 2339 352Q2358 352 2466 424Q2748 612 2748 831Z"  horiz-adv-x="3351" vert-adv-y="4167"  />

      
      </font>
</defs>
</svg>
